<svg width="15" height="16" viewBox="0 0 15 16" fill="none" xmlns="http://www.w3.org/2000/svg">
<g id="fi:gift">
<path id="Vector" d="M12.5 8V14.25H2.5V8" stroke="#754C29" stroke-linecap="round" stroke-linejoin="round"/>
<path id="Vector_2" d="M13.75 4.875H1.25V8H13.75V4.875Z" stroke="#754C29" stroke-linecap="round" stroke-linejoin="round"/>
<path id="Vector_3" d="M7.5 14.25V4.875" stroke="#754C29" stroke-linecap="round" stroke-linejoin="round"/>
<path id="Vector_4" d="M7.5 4.875H10.3125C10.7269 4.875 11.1243 4.71038 11.4174 4.41735C11.7104 4.12433 11.875 3.7269 11.875 3.3125C11.875 2.8981 11.7104 2.50067 11.4174 2.20765C11.1243 1.91462 10.7269 1.75 10.3125 1.75C8.125 1.75 7.5 4.875 7.5 4.875Z" stroke="#754C29" stroke-linecap="round" stroke-linejoin="round"/>
<path id="Vector_5" d="M7.5 4.875H4.6875C4.2731 4.875 3.87567 4.71038 3.58265 4.41735C3.28962 4.12433 3.125 3.7269 3.125 3.3125C3.125 2.8981 3.28962 2.50067 3.58265 2.20765C3.87567 1.91462 4.2731 1.75 4.6875 1.75C6.875 1.75 7.5 4.875 7.5 4.875Z" stroke="#754C29" stroke-linecap="round" stroke-linejoin="round"/>
</g>
</svg>
