<svg width="15" height="16" viewBox="0 0 15 16" fill="none" xmlns="http://www.w3.org/2000/svg">
<g id="fi:heart">
<path id="Vector" d="M13.0248 3.38129C12.7056 3.06192 12.3266 2.80857 11.9094 2.63572C11.4923 2.46287 11.0451 2.3739 10.5936 2.3739C10.142 2.3739 9.6949 2.46287 9.27773 2.63572C8.86057 2.80857 8.48155 3.06192 8.16233 3.38129L7.49983 4.04379L6.83733 3.38129C6.19252 2.73648 5.31798 2.37424 4.40608 2.37424C3.49418 2.37424 2.61964 2.73648 1.97483 3.38129C1.33002 4.0261 0.967773 4.90065 0.967773 5.81254C0.967773 6.72444 1.33002 7.59898 1.97483 8.24379L2.63733 8.90629L7.49983 13.7688L12.3623 8.90629L13.0248 8.24379C13.3442 7.92457 13.5976 7.54555 13.7704 7.12839C13.9433 6.71123 14.0322 6.2641 14.0322 5.81254C14.0322 5.36099 13.9433 4.91386 13.7704 4.4967C13.5976 4.07953 13.3442 3.70051 13.0248 3.38129V3.38129Z" stroke="#754C29" stroke-linecap="round" stroke-linejoin="round"/>
</g>
</svg>
