<svg width="15" height="16" viewBox="0 0 15 16" fill="none" xmlns="http://www.w3.org/2000/svg">
<g id="fi:users">
<path id="Vector" d="M14.375 13.625V12.375C14.3746 11.8211 14.1902 11.283 13.8509 10.8452C13.5115 10.4075 13.0363 10.0948 12.5 9.9563" stroke="#754C29" stroke-linecap="round" stroke-linejoin="round"/>
<path id="Vector_2" d="M10.625 13.625V12.375C10.625 11.712 10.3616 11.0761 9.89277 10.6072C9.42393 10.1384 8.78804 9.875 8.125 9.875H3.125C2.46196 9.875 1.82607 10.1384 1.35723 10.6072C0.888392 11.0761 0.625 11.712 0.625 12.375V13.625" stroke="#754C29" stroke-linecap="round" stroke-linejoin="round"/>
<path id="Vector_3" d="M10 2.4563C10.5378 2.59399 11.0144 2.90674 11.3548 3.34524C11.6952 3.78375 11.8799 4.32307 11.8799 4.87817C11.8799 5.43328 11.6952 5.9726 11.3548 6.4111C11.0144 6.84961 10.5378 7.16236 10 7.30005" stroke="#754C29" stroke-linecap="round" stroke-linejoin="round"/>
<path id="Vector_4" d="M5.625 7.375C7.00571 7.375 8.125 6.25571 8.125 4.875C8.125 3.49429 7.00571 2.375 5.625 2.375C4.24429 2.375 3.125 3.49429 3.125 4.875C3.125 6.25571 4.24429 7.375 5.625 7.375Z" stroke="#754C29" stroke-linecap="round" stroke-linejoin="round"/>
</g>
</svg>
