<svg xmlns="http://www.w3.org/2000/svg" width="25" height="25" viewBox="0 0 25 25" fill="none">
  <g clip-path="url(#clip0_179_423)">
    <path opacity="0.973" fill-rule="evenodd" clip-rule="evenodd" d="M24.4766 16.2734C24.4766 16.7735 24.4766 17.2734 24.4766 17.7734C24.2893 18.8591 23.8518 19.8357 23.1641 20.7031C23.4063 20.9765 23.6484 21.25 23.8906 21.5234C24.1395 21.9352 24.0849 22.3024 23.7266 22.625C23.6522 22.6654 23.574 22.6967 23.4922 22.7188C22.5234 22.7344 21.5547 22.75 20.5859 22.7656C17.6465 24.1553 14.6777 24.2178 11.6797 22.9531C7.5 19.5 8.16772 19.425 7.85938 19.2266C7.73703 19.0343 8.41672 19.6749 8.49219 19.4609C8.588 19.436 8.6427 19.311 8.70312 19.2266C8.82814 19.1953 8.64842 18.914 8.77344 18.9453C11.3431 20.3589 16.4993 23.273 19.2734 22.2969C19.6596 22.1507 20.0346 21.9788 20.3984 21.7812C21.1953 21.7656 21.9922 21.75 22.7891 21.7344C22.5781 21.4922 22.3672 21.25 22.1562 21.0078C22.0272 20.8281 22.0116 20.6406 22.1094 20.4453C23.4688 18.9606 23.8438 17.2575 23.2344 15.3359C22.4839 13.7261 21.2885 12.5776 19.6484 11.8906C18.6282 11.4432 17.5657 11.2167 16.4609 11.2109C15.347 12.73 13.8783 13.7534 12.0547 14.2812C11.0425 14.5655 10.0112 14.7296 8.96094 14.7734C8.41498 15.7745 8.25092 16.837 8.46875 17.9609C8.56588 18.2913 8.66741 18.6194 8.77344 18.9453C8.76444 19.0427 8.741 19.1364 8.70312 19.2266C8.62072 19.3008 8.55041 19.3789 8.49219 19.4609C8.23109 19.5117 8.02016 19.4336 7.85938 19.2266C7.26219 17.708 7.27002 16.1924 7.88281 14.6797C6.64203 14.5843 5.47016 14.2484 4.36719 13.6719C3.39844 13.6563 2.42969 13.6406 1.46094 13.625C1.00236 13.4344 0.838301 13.0985 0.96875 12.6172C1.20669 12.254 1.48013 11.9181 1.78906 11.6094C1.1021 10.7434 0.664595 9.76681 0.476562 8.67969C0.476562 8.17967 0.476562 7.6797 0.476562 7.17969C0.757552 5.61041 1.50755 4.30574 2.72656 3.26562C4.54985 1.81398 6.6358 1.08742 8.98438 1.08594C11.4215 1.09073 13.5699 1.86417 15.4297 3.40625C17.4758 5.33309 18.0227 7.62219 17.0703 10.2734C19.4619 10.4888 21.4697 11.4732 23.0938 13.2266C23.8099 14.1275 24.2708 15.1432 24.4766 16.2734Z" fill="#754C29"/>
    <path fill-rule="evenodd" clip-rule="evenodd" d="M4.55468 12.7109C3.77343 12.6797 2.99218 12.6484 2.21093 12.6172C2.46332 12.3412 2.68989 12.0443 2.89062 11.7266C2.92187 11.6328 2.92187 11.5391 2.89062 11.4453C1.13984 9.47192 0.952341 7.36254 2.32812 5.11718C3.62117 3.49728 5.30088 2.52072 7.36718 2.1875C9.80248 1.80144 12.0525 2.27019 14.1172 3.59375C15.3152 4.41852 16.1043 5.53568 16.4844 6.94531C16.7766 9.00659 16.1126 10.6863 14.4922 11.9844C13.1113 13.0387 11.5488 13.6325 9.80468 13.7656C7.94791 13.9333 6.19793 13.5818 4.55468 12.7109Z" fill="#754C29"/>
    <path fill-rule="evenodd" clip-rule="evenodd" d="M7.5547 4.60157C8.04628 4.55406 8.25722 4.77281 8.18752 5.25782C8.03292 5.47907 7.82198 5.54939 7.5547 5.46876C7.45313 5.42972 7.38281 5.3594 7.34377 5.25782C7.26459 4.98383 7.33491 4.76507 7.5547 4.60157Z" fill="white"/>
    <path fill-rule="evenodd" clip-rule="evenodd" d="M9.80468 4.60156C10.2499 4.53934 10.4608 4.72684 10.4375 5.16406C10.3255 5.4583 10.1146 5.55983 9.80468 5.46875C9.43132 5.176 9.43132 4.88693 9.80468 4.60156Z" fill="white"/>
    <path fill-rule="evenodd" clip-rule="evenodd" d="M5.63281 6.1953C6.09898 6.10746 6.32558 6.29496 6.3125 6.7578C6.20051 7.05204 5.98958 7.15357 5.67969 7.06249C5.32615 6.79254 5.31055 6.50351 5.63281 6.1953Z" fill="white"/>
    <path fill-rule="evenodd" clip-rule="evenodd" d="M11.7734 6.14844C12.2431 6.15739 12.4227 6.39177 12.3125 6.85156C12.0044 7.17997 11.7231 7.16431 11.4687 6.80469C11.3829 6.49212 11.4845 6.27336 11.7734 6.14844Z" fill="white"/>
    <path fill-rule="evenodd" clip-rule="evenodd" d="M7.88282 6.75781C8.20785 6.74909 8.52815 6.78031 8.84376 6.85156C9.37893 6.68552 9.88673 6.74018 10.3672 7.01562C10.7344 7.38279 11.1016 7.75001 11.4688 8.11718C11.9672 8.8602 11.9984 9.62581 11.5625 10.4141C10.8177 11.3169 9.91926 11.5044 8.8672 10.9766C7.87785 11.4848 7.01066 11.3285 6.26563 10.5078C5.73698 9.72495 5.73698 8.94373 6.26563 8.16406C6.64846 7.78123 7.03124 7.39845 7.41407 7.01562C7.56721 6.91577 7.72345 6.82985 7.88282 6.75781Z" fill="white"/>
    <path fill-rule="evenodd" clip-rule="evenodd" d="M8.02344 7.69531C8.53058 7.81728 9.03837 7.81728 9.54688 7.69531C9.63908 7.69728 9.72505 7.72072 9.80469 7.76562C10.1908 8.12033 10.5424 8.50311 10.8594 8.91406C11.0285 10.0105 10.5676 10.4558 9.47656 10.25C9.3163 10.074 9.12097 9.95684 8.89062 9.89844C8.63366 10.0298 8.37584 10.1626 8.11719 10.2969C7.25989 10.3927 6.83023 10.0099 6.82812 9.14844C6.8637 8.99445 6.92619 8.85383 7.01562 8.72656C7.36105 8.38897 7.697 8.04523 8.02344 7.69531Z" fill="white"/>
    <path opacity="0.999" fill-rule="evenodd" clip-rule="evenodd" d="M10.6484 21.8047C10.3507 21.5848 10.0538 21.366 9.7578 21.1484C9.90831 20.9284 9.93175 20.694 9.82811 20.4453C9.59889 20.2166 9.35669 20.201 9.10155 20.3984C8.87509 20.1019 8.67194 19.7894 8.49217 19.4609C8.55039 19.3789 8.6207 19.3008 8.70311 19.2266C8.74099 19.1364 8.76442 19.0427 8.77342 18.9453C8.66739 18.6194 8.56586 18.2913 8.46874 17.9609C8.25091 16.837 8.41497 15.7745 8.96092 14.7734C10.0112 14.7296 11.0425 14.5655 12.0547 14.2812C13.8783 13.7534 15.347 12.73 16.4609 11.2109C17.5657 11.2167 18.6282 11.4433 19.6484 11.8906C21.2885 12.5776 22.4838 13.7261 23.2344 15.3359C23.8438 17.2575 23.4688 18.9606 22.1094 20.4453C22.0116 20.6406 22.0272 20.8281 22.1562 21.0078C22.3672 21.25 22.5781 21.4922 22.789 21.7344C21.9922 21.75 21.1953 21.7656 20.3984 21.7812C20.0346 21.9788 19.6596 22.1507 19.2734 22.2969C16.4993 23.273 13.8274 23.0542 11.2578 21.6406C11.1328 21.6094 11.0078 21.6094 10.8828 21.6406C10.8224 21.7251 10.7442 21.7798 10.6484 21.8047Z" fill="#754C29"/>
    <path fill-rule="evenodd" clip-rule="evenodd" d="M2.21094 12.6172C2.99219 12.6485 3.77344 12.6797 4.55469 12.7109C3.7572 12.7265 2.96032 12.7109 2.16406 12.6641C2.16986 12.6356 2.18548 12.62 2.21094 12.6172Z" fill="#754C29"/>
    <path fill-rule="evenodd" clip-rule="evenodd" d="M14.2578 14.5391C14.867 14.4671 15.4295 14.5921 15.9453 14.9141C16.6787 14.4757 17.4443 14.421 18.2422 14.75C19.2432 15.3382 19.6417 16.2054 19.4375 17.3516C19.3501 17.6356 19.2251 17.9012 19.0625 18.1484C18.164 19.0469 17.2656 19.9453 16.3672 20.8438C16.0859 21 15.8047 21 15.5234 20.8438C14.6562 19.9766 13.789 19.1094 12.9219 18.2422C12.494 17.6717 12.3378 17.0311 12.4531 16.3203C12.7091 15.369 13.3106 14.7752 14.2578 14.5391Z" fill="white"/>
    <path fill-rule="evenodd" clip-rule="evenodd" d="M14.3047 15.4766C14.8522 15.3944 15.321 15.5428 15.711 15.9219C16.0155 16.036 16.2655 15.9579 16.461 15.6875C17.1587 15.3233 17.7759 15.4248 18.3125 15.9922C18.6504 16.5213 18.6504 17.0526 18.3125 17.5859C17.5306 18.3756 16.7416 19.1569 15.9453 19.9297C15.1804 19.1882 14.4226 18.4382 13.6719 17.6797C13.0957 16.7095 13.3066 15.9752 14.3047 15.4766Z" fill="white"/>
    <path opacity="0.935" fill-rule="evenodd" clip-rule="evenodd" d="M12 23C11.5735 23.1836 8.10472 19.9492 8 19.5C8.00319 19.3614 7.90927 19.0958 7.99984 19C8.25498 18.8025 9.59875 20.2166 9.82797 20.4453C9.93161 20.694 12.1505 22.78 12 23Z" fill="#754C29"/>
    <path d="M12.5 18.5C14.1195 20.4601 14.3988 22.2573 13.5 23C12.6011 23.7427 10.5596 22.7558 8.94007 20.7957C7.32058 18.8355 7.12453 17.5332 8.0234 16.7906C8.92228 16.0479 10.8805 16.5399 12.5 18.5Z" fill="#754C29"/>
  </g>
  <defs>
    <clipPath id="clip0_179_423">
      <rect width="24" height="24" fill="white" transform="translate(0.5 0.5)"/>
    </clipPath>
  </defs>
</svg>