<svg xmlns="http://www.w3.org/2000/svg" width="25" height="25" viewBox="0 0 25 25" fill="none">
  <g clip-path="url(#clip0_179_341)">
    <path opacity="0.946" fill-rule="evenodd" clip-rule="evenodd" d="M24.4766 16.2734C24.4766 16.7735 24.4766 17.2734 24.4766 17.7734C24.2893 18.8591 23.8518 19.8357 23.1641 20.7031C23.473 21.0119 23.7464 21.3478 23.9844 21.7109C24.1148 22.1922 23.9508 22.5282 23.4922 22.7188C22.5234 22.7344 21.5547 22.75 20.5859 22.7656C17.8646 24.0501 15.0834 24.1908 12.2422 23.1875C11.7044 22.985 11.1966 22.7272 10.7188 22.4141C10.5136 22.0672 10.5839 21.7938 10.9297 21.5938C11.0747 21.5632 11.2153 21.5788 11.3516 21.6406C14.3266 23.2393 17.3266 23.2861 20.3516 21.7812C21.1484 21.7656 21.9453 21.75 22.7422 21.7344C22.5312 21.4922 22.3203 21.25 22.1094 21.0078C22.0389 20.8419 22.0233 20.6701 22.0625 20.4922C22.7486 19.7609 23.2017 18.9015 23.4219 17.9141C23.6671 16.494 23.3546 15.2128 22.4844 14.0703C20.9155 12.2509 18.9233 11.3055 16.5078 11.2344C15.1793 12.9543 13.445 14.048 11.3047 14.5156C10.5292 14.6633 9.74797 14.7649 8.96094 14.8203C8.30033 16.1018 8.23002 17.4143 8.75 18.7578C8.82537 19.3389 8.58317 19.5498 8.02344 19.3906C7.96873 19.3359 7.91408 19.2813 7.85938 19.2266C7.26219 17.708 7.27002 16.1924 7.88281 14.6797C6.64203 14.5843 5.47016 14.2484 4.36719 13.6719C3.39844 13.6563 2.42969 13.6406 1.46094 13.625C1.00236 13.4344 0.838301 13.0985 0.96875 12.6172C1.20669 12.254 1.48013 11.9181 1.78906 11.6094C1.1021 10.7434 0.664595 9.76681 0.476562 8.67969C0.476562 8.17967 0.476562 7.6797 0.476562 7.17969C0.757552 5.61041 1.50755 4.30574 2.72656 3.26562C4.54985 1.81398 6.6358 1.08742 8.98438 1.08594C11.4215 1.09073 13.5699 1.86417 15.4297 3.40625C17.4758 5.33309 18.0227 7.62219 17.0703 10.2734C19.4619 10.4888 21.4697 11.4732 23.0938 13.2266C23.8099 14.1275 24.2708 15.1432 24.4766 16.2734ZM8.67969 2.07031C11.0041 2.01425 13.0509 2.72518 14.8203 4.20312C16.7179 6.0657 17.0382 8.16725 15.7812 10.5078C14.6801 12.0402 13.2035 13.0324 11.3516 13.4844C9.00125 14.057 6.75125 13.7915 4.60156 12.6875C3.80469 12.6719 3.00781 12.6562 2.21094 12.6406C2.42188 12.3984 2.63281 12.1563 2.84375 11.9141C2.91425 11.7482 2.92987 11.5763 2.89062 11.3984C1.24911 9.56408 1.01474 7.56406 2.1875 5.39844C3.25431 3.89579 4.684 2.90361 6.47656 2.42188C7.20767 2.24053 7.94206 2.12335 8.67969 2.07031Z" fill="#9A9A9A"/>
    <path opacity="0.888" fill-rule="evenodd" clip-rule="evenodd" d="M7.60155 4.55469C8.19283 4.57535 8.3725 4.8566 8.14061 5.39844C7.78755 5.62958 7.5063 5.56709 7.29686 5.21094C7.23447 4.9139 7.33605 4.69515 7.60155 4.55469Z" fill="#9A9A9A"/>
    <path opacity="0.891" fill-rule="evenodd" clip-rule="evenodd" d="M9.85155 4.5547C10.373 4.55256 10.5684 4.80257 10.4375 5.3047C10.2398 5.54517 9.99761 5.59983 9.71092 5.46876C9.53472 5.29331 9.48001 5.08235 9.54686 4.83595C9.61689 4.70407 9.71842 4.61032 9.85155 4.5547Z" fill="#9A9A9A"/>
    <path opacity="0.893" fill-rule="evenodd" clip-rule="evenodd" d="M5.67966 6.14843C6.20359 6.11712 6.41452 6.35149 6.31248 6.85155C6.10904 7.14987 5.85123 7.20457 5.53904 7.01562C5.40498 6.84307 5.36593 6.64774 5.42185 6.42968C5.4856 6.31141 5.57152 6.21766 5.67966 6.14843Z" fill="#9A9A9A"/>
    <path opacity="0.891" fill-rule="evenodd" clip-rule="evenodd" d="M11.7265 6.14845C12.2168 6.09956 12.4277 6.31833 12.3594 6.8047C12.0468 7.24219 11.7344 7.24219 11.4219 6.8047C11.3613 6.50409 11.4629 6.28533 11.7265 6.14845Z" fill="#9A9A9A"/>
    <path opacity="0.944" fill-rule="evenodd" clip-rule="evenodd" d="M8.11721 6.71094C8.36902 6.74567 8.619 6.79255 8.86721 6.85156C9.4126 6.64044 9.92822 6.69514 10.4141 7.01562C10.7656 7.36719 11.1172 7.71875 11.4688 8.07031C12.1244 9.06898 12.0384 9.99866 11.211 10.8594C10.4651 11.387 9.68381 11.4417 8.86721 11.0234C7.72172 11.5648 6.792 11.3148 6.07814 10.2734C5.76141 9.54444 5.80828 8.84131 6.21877 8.16406C6.61721 7.76562 7.01564 7.36719 7.41408 6.96875C7.63749 6.83975 7.87186 6.75378 8.11721 6.71094ZM8.16408 7.69531C7.76335 8.02541 7.38056 8.3848 7.01564 8.77344C6.86742 9.0208 6.82055 9.28639 6.87502 9.57031C7.14333 10.2474 7.61991 10.4583 8.30471 10.2031C8.56617 9.88142 8.87869 9.81894 9.24221 10.0156C9.53489 10.3138 9.87863 10.392 10.2735 10.25C10.8033 9.99491 10.9986 9.58086 10.8594 9.00781C10.5601 8.56766 10.2086 8.16922 9.80471 7.8125C9.72506 7.76759 9.6391 7.74416 9.54689 7.74219C9.07847 7.88038 8.61755 7.86472 8.16408 7.69531Z" fill="#9A9A9A"/>
    <path opacity="0.945" fill-rule="evenodd" clip-rule="evenodd" d="M14.3984 14.4922C14.9568 14.4522 15.4724 14.5773 15.9453 14.8672C17.1188 14.2441 18.1579 14.416 19.0625 15.3828C19.6563 16.3203 19.6563 17.2578 19.0625 18.1953C18.164 19.0938 17.2656 19.9922 16.3672 20.8906C16.0609 21.0574 15.7639 21.0418 15.4766 20.8437C14.625 19.9922 13.7734 19.1406 12.9219 18.2891C12.2633 17.3851 12.2164 16.4476 12.7812 15.4766C13.1962 14.9374 13.7352 14.6093 14.3984 14.4922ZM14.4922 15.4766C14.9498 15.4545 15.3404 15.603 15.6641 15.9219C15.8299 15.9924 16.0018 16.008 16.1797 15.9687C16.8833 15.3054 17.5786 15.3132 18.2656 15.9922C18.6094 16.5234 18.6094 17.0547 18.2656 17.5859C17.4994 18.36 16.7259 19.1256 15.9453 19.8828C15.196 19.1569 14.4538 18.4225 13.7187 17.6797C13.1918 16.9346 13.2777 16.2705 13.9766 15.6875C14.148 15.6021 14.3199 15.5318 14.4922 15.4766Z" fill="#9A9A9A"/>
    <path opacity="0.883" fill-rule="evenodd" clip-rule="evenodd" d="M9.24219 20.2578C9.75495 20.1847 9.9815 20.4034 9.92187 20.9141C9.66256 21.3066 9.36565 21.3378 9.03125 21.0078C8.89808 20.6971 8.96839 20.4471 9.24219 20.2578Z" fill="#9A9A9A"/>
  </g>
  <defs>
    <clipPath id="clip0_179_341">
      <rect width="24" height="24" fill="white" transform="translate(0.5 0.5)"/>
    </clipPath>
  </defs>
</svg>