<svg xmlns="http://www.w3.org/2000/svg" width="25" height="25" viewBox="0 0 25 25" fill="none">
  <g clip-path="url(#clip0_179_408)">
    <path opacity="0.944" fill-rule="evenodd" clip-rule="evenodd" d="M8.44531 1.74219C9.68722 1.66408 10.5544 2.19533 11.0469 3.33594C11.4815 4.53202 11.372 5.67266 10.7188 6.75781C9.93247 7.76994 8.95587 8.01214 7.78906 7.48438C6.85733 6.81641 6.38858 5.90235 6.38281 4.74219C6.38511 3.65186 6.80698 2.76905 7.64844 2.09375C7.9063 1.94897 8.17194 1.83178 8.44531 1.74219ZM8.58594 2.72656C9.3095 2.6861 9.8173 2.9986 10.1094 3.66406C10.4141 4.45989 10.3828 5.24113 10.0156 6.00781C9.61663 6.70316 9.0463 6.9141 8.30469 6.64063C7.67516 6.17061 7.36269 5.5378 7.36719 4.74219C7.38102 4.051 7.631 3.46507 8.11719 2.98438C8.27033 2.88455 8.42656 2.79861 8.58594 2.72656Z" fill="#9A9A9A"/>
    <path opacity="0.943" fill-rule="evenodd" clip-rule="evenodd" d="M15.6641 1.7422C17.0023 1.66573 17.9007 2.25948 18.3594 3.52345C18.7419 4.73683 18.57 5.86186 17.8438 6.89845C16.7308 8.03995 15.5902 8.07117 14.4219 6.9922C13.5896 5.8724 13.4177 4.65365 13.9063 3.33595C14.2574 2.54028 14.8433 2.00903 15.6641 1.7422ZM15.8047 2.72658C16.3317 2.65813 16.7614 2.83 17.0938 3.2422C17.73 4.21516 17.7457 5.19951 17.1406 6.19532C16.4959 6.94129 15.824 6.97251 15.125 6.28907C14.5799 5.46693 14.4862 4.59192 14.8438 3.66408C15.0362 3.21373 15.3565 2.90123 15.8047 2.72658Z" fill="#9A9A9A"/>
    <path opacity="0.944" fill-rule="evenodd" clip-rule="evenodd" d="M0.476562 9.99219C0.476562 9.58592 0.476562 9.17971 0.476562 8.77344C0.628758 8.03956 0.972509 7.40675 1.50781 6.875C2.35379 6.27538 3.2288 6.2285 4.13281 6.73438C4.96187 7.41416 5.38377 8.29696 5.39844 9.38281C5.38377 10.4687 4.96187 11.3515 4.13281 12.0313C2.54849 12.7358 1.40006 12.2905 0.6875 10.6953C0.608752 10.4573 0.538439 10.223 0.476562 9.99219ZM2.63281 7.36719C3.23014 7.3026 3.69108 7.52136 4.01562 8.02344C4.55937 8.99539 4.52812 9.9485 3.92188 10.8828C3.40725 11.4641 2.82131 11.55 2.16406 11.1406C1.4385 10.3409 1.25881 9.42683 1.625 8.39844C1.81462 7.90419 2.15056 7.56046 2.63281 7.36719Z" fill="#9A9A9A"/>
    <path opacity="0.943" fill-rule="evenodd" clip-rule="evenodd" d="M24.4766 8.77343C24.4766 9.17969 24.4766 9.58591 24.4766 9.99218C24.3139 10.9351 23.8296 11.6616 23.0235 12.1719C21.5771 12.6584 20.5224 12.2131 19.8594 10.8359C19.3733 9.5561 19.5139 8.35301 20.2813 7.22655C21.0413 6.3588 21.9554 6.14787 23.0235 6.59374C23.8296 7.10397 24.3139 7.83054 24.4766 8.77343ZM21.7578 7.36718C22.4019 7.30244 22.8784 7.55243 23.1875 8.11718C23.5365 8.84674 23.5834 9.59674 23.3281 10.3672C23.0539 11.1015 22.5304 11.4374 21.7578 11.375C21.4029 11.2701 21.1295 11.0591 20.9375 10.7422C20.3938 9.77023 20.425 8.81712 21.0313 7.8828C21.2412 7.65752 21.4833 7.48563 21.7578 7.36718Z" fill="#9A9A9A"/>
    <path opacity="0.942" fill-rule="evenodd" clip-rule="evenodd" d="M12.1015 9.52345C13.88 9.46369 15.4581 9.98714 16.8359 11.0938C17.9531 12.1485 19.0703 13.2031 20.1875 14.2578C20.835 15.0608 21.2334 15.9749 21.3828 17C21.3297 17.4643 21.0797 17.6205 20.6328 17.4688C20.5781 17.4141 20.5234 17.3594 20.4687 17.3047C20.3172 16.3957 19.9578 15.5832 19.3906 14.8672C18.2235 13.7311 17.0281 12.6296 15.8047 11.5625C13.5859 10.1563 11.3671 10.1563 9.14841 11.5625C7.84571 12.6933 6.58791 13.873 5.37498 15.1016C4.40059 16.5299 4.24434 18.0455 4.90623 19.6485C5.88404 21.4988 7.42309 22.3504 9.52341 22.2031C10.5517 22.064 11.4267 21.6265 12.1484 20.8906C12.3672 20.7344 12.5859 20.7344 12.8047 20.8906C14.1138 22.1465 15.6451 22.5215 17.3984 22.0156C18.2285 21.717 18.9316 21.2326 19.5078 20.5625C20.0146 20.4287 20.2569 20.624 20.2344 21.1485C19.5547 22.0477 18.6718 22.6649 17.5859 23C15.7131 23.4958 14.01 23.1598 12.4765 21.9922C10.7547 23.2817 8.87968 23.5552 6.85154 22.8125C4.47604 21.6641 3.37447 19.7657 3.54685 17.1172C3.75643 15.6275 4.43612 14.401 5.58591 13.4375C6.3188 12.7828 7.03754 12.111 7.74216 11.4219C8.9753 10.2843 10.4284 9.65147 12.1015 9.52345Z" fill="#9A9A9A"/>
    <path opacity="0.881" fill-rule="evenodd" clip-rule="evenodd" d="M20.5391 18.6641C21.0155 18.6019 21.2421 18.805 21.2187 19.2734C21.029 19.6647 20.7477 19.7428 20.375 19.5078C20.1786 19.1696 20.2332 18.8883 20.5391 18.6641Z" fill="#9A9A9A"/>
  </g>
  <defs>
    <clipPath id="clip0_179_408">
      <rect width="24" height="24" fill="white" transform="translate(0.5 0.5)"/>
    </clipPath>
  </defs>
</svg>