<svg xmlns="http://www.w3.org/2000/svg" width="24" height="25" viewBox="0 0 24 25" fill="none">
  <g clip-path="url(#clip0_179_314)">
    <path opacity="0.964" fill-rule="evenodd" clip-rule="evenodd" d="M7.94531 1.74219C9.18722 1.66408 10.0544 2.19533 10.5469 3.33594C10.9815 4.53202 10.872 5.67266 10.2188 6.75781C9.43247 7.76994 8.45587 8.01214 7.28906 7.48438C6.35733 6.81641 5.88858 5.90235 5.88281 4.74219C5.88511 3.65186 6.30698 2.76905 7.14844 2.09375C7.4063 1.94897 7.67194 1.83178 7.94531 1.74219Z" fill="#754C29"/>
    <path opacity="0.963" fill-rule="evenodd" clip-rule="evenodd" d="M15.1641 1.7422C16.5023 1.66573 17.4007 2.25948 17.8594 3.52345C18.2419 4.73683 18.07 5.86186 17.3438 6.89845C16.2308 8.03995 15.0902 8.07117 13.9219 6.9922C13.0896 5.8724 12.9177 4.65365 13.4063 3.33595C13.7574 2.54028 14.3433 2.00903 15.1641 1.7422Z" fill="#754C29"/>
    <path fill-rule="evenodd" clip-rule="evenodd" d="M8.13282 2.67969C8.90926 2.69789 9.43266 3.07289 9.70313 3.80469C10.019 4.71535 9.89401 5.55908 9.32813 6.33594C8.54513 7.02191 7.84201 6.94377 7.21876 6.10156C6.75301 5.1942 6.75301 4.28797 7.21876 3.38281C7.43851 3.02935 7.7432 2.79497 8.13282 2.67969Z" fill="#754C29"/>
    <path fill-rule="evenodd" clip-rule="evenodd" d="M15.3516 2.6797C15.943 2.65899 16.4039 2.89336 16.7344 3.38282C17.1299 4.13541 17.1924 4.91667 16.9219 5.72657C16.6413 6.48731 16.1022 6.83887 15.3047 6.78126C14.9659 6.65484 14.6924 6.4439 14.4844 6.14845C13.8884 5.06189 13.9666 4.03064 14.7188 3.0547C14.9149 2.89831 15.1258 2.77331 15.3516 2.6797Z" fill="#754C29"/>
    <path opacity="0.965" fill-rule="evenodd" clip-rule="evenodd" d="M-0.0234375 9.99219C-0.0234375 9.58592 -0.0234375 9.17971 -0.0234375 8.77344C0.128758 8.03956 0.472509 7.40675 1.00781 6.875C1.85379 6.27538 2.7288 6.2285 3.63281 6.73438C4.46187 7.41416 4.88377 8.29696 4.89844 9.38281C4.88377 10.4687 4.46187 11.3515 3.63281 12.0313C2.04849 12.7358 0.900056 12.2905 0.1875 10.6953C0.108752 10.4573 0.0384392 10.223 -0.0234375 9.99219Z" fill="#754C29"/>
    <path opacity="0.964" fill-rule="evenodd" clip-rule="evenodd" d="M23.9766 8.77343C23.9766 9.17969 23.9766 9.58591 23.9766 9.99218C23.8139 10.9351 23.3296 11.6616 22.5235 12.1719C21.0771 12.6584 20.0224 12.2131 19.3594 10.8359C18.8733 9.5561 19.0139 8.35301 19.7813 7.22655C20.5413 6.3588 21.4554 6.14787 22.5235 6.59374C23.3296 7.10397 23.8139 7.83054 23.9766 8.77343Z" fill="#754C29"/>
    <path fill-rule="evenodd" clip-rule="evenodd" d="M2.1328 7.32032C2.80336 7.26098 3.29555 7.52662 3.60936 8.1172C4.06692 9.09182 4.00441 10.0293 3.42186 10.9297C2.6651 11.6587 1.96197 11.6118 1.31249 10.7891C0.830296 9.91523 0.799045 9.0246 1.21874 8.1172C1.43182 7.73962 1.7365 7.47403 2.1328 7.32032Z" fill="#754C29"/>
    <path fill-rule="evenodd" clip-rule="evenodd" d="M21.2578 7.32033C21.7535 7.26933 22.1676 7.42556 22.5 7.78908C23.1717 8.75587 23.2185 9.7559 22.6406 10.7891C22.2007 11.4165 21.6304 11.5806 20.9297 11.2813C20.4498 10.9252 20.1608 10.4486 20.0625 9.85158C19.9109 8.96259 20.1531 8.20476 20.789 7.57814C20.9422 7.47829 21.0984 7.39237 21.2578 7.32033Z" fill="#754C29"/>
    <path opacity="0.968" fill-rule="evenodd" clip-rule="evenodd" d="M19.6172 20.6328C19.5937 20.4219 19.0547 20.5625 19.0547 20.5625C20.8328 17.2109 19.4809 15.5479 18.8906 14.8203C17.8359 13.8281 16.7812 12.8359 15.7266 11.8437C13.8418 10.4116 11.7949 10.1303 9.58593 11C8.86724 11.3438 8.22665 11.7969 7.66405 12.3594C6.81102 13.1968 5.94384 14.0171 5.06249 14.8203C3.77311 16.4642 3.61686 18.2142 4.59374 20.0703C5.82515 21.8874 7.52048 22.5671 9.67968 22.1094C10.4399 21.8858 11.0961 21.4952 11.6484 20.9375C11.864 20.7849 12.0827 20.7849 12.3047 20.9375C13.5861 22.1641 15.0861 22.5391 16.8047 22.0625C17.6951 21.7735 18.4451 21.2735 19.0547 20.5625C19.2511 20.5245 19.5703 20.4687 19.6172 20.6328C19.6172 20.6328 19.8031 21.0924 19.6406 21.3359C18.0607 23.0221 16.1467 23.5768 13.8984 23C13.1897 22.7863 12.5491 22.4504 11.9766 21.9922C10.4433 23.1597 8.74021 23.4957 6.86718 23C4.67415 22.2445 3.40071 20.7211 3.04687 18.4297C2.87888 16.8665 3.28513 15.4759 4.26562 14.2578C5.44682 13.1234 6.64213 12.0063 7.85155 10.9062C10.2321 9.27794 12.7165 9.10605 15.3047 10.3906C15.6613 10.6067 16.005 10.841 16.3359 11.0937C17.4531 12.1484 18.5703 13.2031 19.6875 14.2578C20.335 15.0608 22.0547 18.5937 19.6406 21.3359C19.6406 21.3359 19.7578 20.8437 19.6172 20.6328Z" fill="#754C29"/>
    <path fill-rule="evenodd" clip-rule="evenodd" d="M20.4609 17.5391C20.4661 17.9152 20.4504 18.2902 20.414 18.6641C19.8575 18.6845 19.6779 18.9501 19.875 19.4609C19.9694 19.5171 20.0554 19.5795 20.1328 19.6484C19.9737 19.9821 19.8019 20.3103 19.6172 20.6328C19.4386 20.548 19.2511 20.5245 19.0547 20.5625C18.4451 21.2735 17.6951 21.7735 16.8047 22.0625C15.086 22.5391 13.586 22.1641 12.3047 20.9375C12.0827 20.7849 11.8639 20.7849 11.6484 20.9375C11.0961 21.4952 10.4398 21.8858 9.67967 22.1094C7.52047 22.5671 5.82514 21.8874 4.59373 20.0703C3.61685 18.2142 3.7731 16.4642 5.06248 14.8203C5.94382 14.0172 6.81101 13.1968 7.66404 12.3594C8.22664 11.7969 8.86723 11.3438 9.58592 11C11.7949 10.1303 13.8417 10.4116 15.7265 11.8438C16.7812 12.836 17.8359 13.8281 18.8906 14.8203C19.4809 15.5479 19.8559 16.3761 20.0156 17.3047C20.1227 17.4637 20.2712 17.5418 20.4609 17.5391Z" fill="#754C29"/>
    <path opacity="0.937" fill-rule="evenodd" clip-rule="evenodd" d="M20.4141 18.6641C20.8107 18.9273 20.8419 19.232 20.5078 19.5781C20.3877 19.6287 20.2627 19.6521 20.1328 19.6484C20.0554 19.5795 19.9695 19.517 19.875 19.4609C19.6779 18.9501 19.8576 18.6845 20.4141 18.6641Z" fill="#754C29"/>
    <path d="M19.8281 20.8906C19.7812 21.2891 19.5553 21.5 19.2188 21.5C18.8822 21.5 18.7031 21.0865 18.7031 20.75C18.7031 20.4135 18.976 20.1406 19.3125 20.1406C19.649 20.1406 19.8281 20.5541 19.8281 20.8906Z" fill="#754C29"/>
    <path d="M19.7812 15.2188C19.7344 15.6172 20.3756 16.9531 20.0391 16.9531C19.7025 16.9531 18.6562 15.4147 18.6562 15.0781C18.6562 14.7416 18.9291 14.4688 19.2656 14.4688C19.6022 14.4688 19.7812 14.8822 19.7812 15.2188Z" fill="#754C29"/>
  </g>
  <defs>
    <clipPath id="clip0_179_314">
      <rect width="24" height="24" fill="white" transform="translate(0 0.5)"/>
    </clipPath>
  </defs>
</svg>