<svg xmlns="http://www.w3.org/2000/svg" width="25" height="25" viewBox="0 0 25 25" fill="none">
  <g clip-path="url(#clip0_179_638)">
    <path opacity="0.963" fill-rule="evenodd" clip-rule="evenodd" d="M9.94529 0.476562C10.1953 0.476562 10.4453 0.476562 10.6953 0.476562C11.4012 0.753531 11.8309 1.26916 11.9844 2.02344C12.1522 2.83357 12.0116 3.58357 11.5625 4.27344C11.0264 4.90826 10.378 5.0567 9.61717 4.71875C8.79029 4.06713 8.46995 3.21557 8.65623 2.16406C8.78424 1.35803 9.21395 0.795533 9.94529 0.476562Z" fill="#754C29"/>
    <path opacity="0.963" fill-rule="evenodd" clip-rule="evenodd" d="M14.2578 0.476562C14.5078 0.476562 14.7578 0.476562 15.0078 0.476562C15.7392 0.795533 16.1689 1.35803 16.2969 2.16406C16.4832 3.21557 16.1628 4.06713 15.336 4.71875C14.2515 5.08684 13.4937 4.73528 13.0625 3.66406C12.8117 2.87962 12.8586 2.114 13.2031 1.36719C13.4513 0.938698 13.8029 0.641823 14.2578 0.476562Z" fill="#754C29"/>
    <path fill-rule="evenodd" clip-rule="evenodd" d="M10.1797 1.41407C10.5552 1.40634 10.813 1.57821 10.9531 1.92969C11.1094 2.41407 11.1094 2.89844 10.9531 3.38282C10.6797 4.02159 10.3047 4.09971 9.82813 3.61719C9.48673 2.99174 9.48673 2.36674 9.82813 1.74219C9.94044 1.62188 10.0576 1.51251 10.1797 1.41407Z" fill="#754C29"/>
    <path fill-rule="evenodd" clip-rule="evenodd" d="M14.4453 1.41406C14.9102 1.44855 15.1993 1.69855 15.3125 2.16406C15.4831 2.79597 15.3503 3.35066 14.9141 3.82812C14.6109 4.0081 14.3531 3.95341 14.1406 3.66406C13.896 3.20907 13.8179 2.72469 13.9063 2.21094C13.9938 1.87873 14.1735 1.61311 14.4453 1.41406Z" fill="#754C29"/>
    <path opacity="0.959" fill-rule="evenodd" clip-rule="evenodd" d="M6.52344 3.57031C7.67723 3.73169 8.37252 4.38794 8.60938 5.53906C8.69535 6.04662 8.6016 6.51537 8.32813 6.94531C7.9559 7.35697 7.49498 7.50537 6.94532 7.39062C6.16073 7.15292 5.63727 6.64508 5.37501 5.86719C5.18049 5.26667 5.22735 4.68857 5.51563 4.13281C5.77204 3.79004 6.10799 3.60254 6.52344 3.57031Z" fill="#754C29"/>
    <path opacity="0.96" fill-rule="evenodd" clip-rule="evenodd" d="M18.289 3.57031C19.0245 3.61063 19.4854 3.98563 19.6718 4.69531C19.7928 5.74016 19.4256 6.56047 18.5703 7.15625C18.1287 7.41772 17.6599 7.48025 17.164 7.34375C16.5768 7.05275 16.2956 6.57617 16.3203 5.91406C16.3757 4.9355 16.8288 4.20893 17.6797 3.73438C17.884 3.66018 18.0872 3.60549 18.289 3.57031Z" fill="#754C29"/>
    <path fill-rule="evenodd" clip-rule="evenodd" d="M6.42968 4.55471C6.64914 4.54712 6.85225 4.6018 7.03905 4.71877C7.55772 5.10687 7.753 5.61469 7.62499 6.24221C7.55955 6.39615 7.44236 6.47429 7.27343 6.47659C6.45311 6.17973 6.11721 5.60162 6.26561 4.74221C6.33011 4.68572 6.38477 4.62322 6.42968 4.55471Z" fill="#754C29"/>
    <path fill-rule="evenodd" clip-rule="evenodd" d="M18.1953 4.55466C18.5734 4.53425 18.7609 4.71394 18.7578 5.09372C18.7042 5.74871 18.376 6.20185 17.7735 6.4531C17.5428 6.50579 17.3943 6.41986 17.3281 6.19529C17.2236 5.43549 17.5126 4.88861 18.1953 4.55466Z" fill="#754C29"/>
    <path opacity="0.966" fill-rule="evenodd" clip-rule="evenodd" d="M12.3828 5.11719C12.8158 5.12772 13.2064 5.26053 13.5547 5.51562C14.343 6.16752 15.1398 6.80811 15.9453 7.4375C16.8421 8.46744 17.0218 9.61588 16.4844 10.8828C15.9131 11.9458 15.0303 12.3754 13.8359 12.1719C13.3825 12.0077 12.9294 11.8436 12.4765 11.6797C12.0236 11.8436 11.5705 12.0077 11.1172 12.1719C9.45849 12.3426 8.48194 11.6004 8.18748 9.94531C8.07751 8.97847 8.35093 8.14255 9.00779 7.4375C9.81324 6.80811 10.6101 6.16752 11.3984 5.51562C11.6999 5.30187 12.028 5.16908 12.3828 5.11719Z" fill="#754C29"/>
    <path fill-rule="evenodd" clip-rule="evenodd" d="M12.289 6.10156C12.5257 6.08408 12.7444 6.13878 12.9453 6.26563C13.6505 6.86155 14.3693 7.43966 15.1015 8C15.7288 8.52219 15.9553 9.18627 15.7812 9.99219C15.5682 10.9402 14.9823 11.3542 14.0234 11.2344C13.7211 11.1223 13.4243 10.9973 13.1328 10.8594C12.7305 10.7279 12.3243 10.7123 11.914 10.8125C11.5913 10.966 11.2632 11.1066 10.9297 11.2344C9.97205 11.3558 9.38612 10.9418 9.17185 9.99219C8.99776 9.18627 9.2243 8.52219 9.85154 8C10.6588 7.35496 11.4713 6.72214 12.289 6.10156Z" fill="#754C29"/>
    <path fill-rule="evenodd" clip-rule="evenodd" d="M3.19533 7.60155C3.6698 7.52205 3.97448 7.70955 4.10939 8.16405C4.21667 9.77201 4.27917 11.3814 4.29689 12.9922C3.85799 13.7269 3.90487 14.4301 4.43752 15.1016C5.03908 15.7031 5.64066 16.3047 6.2422 16.9062C6.52195 17.1347 6.77977 17.1113 7.01564 16.8359C7.07742 16.6997 7.09308 16.5591 7.06252 16.4141C6.40763 15.7123 5.73577 15.0248 5.04689 14.3516C4.81859 13.9035 4.92016 13.5519 5.35158 13.2969C5.57597 13.2557 5.79469 13.2713 6.00783 13.3437C6.73439 14.0078 7.42969 14.7031 8.09377 15.4297C8.51044 15.9036 8.79169 16.4505 8.93752 17.0703C8.96095 18.3046 8.96878 19.539 8.96095 20.7734C7.75781 20.7734 6.55472 20.7734 5.35158 20.7734C5.45395 20.0681 5.32116 19.4118 4.95314 18.8047C4.76138 18.5306 4.55826 18.265 4.34377 18.0078C3.75001 17.4453 3.15627 16.8828 2.56252 16.3203C2.08454 15.7838 1.91266 15.1587 2.04689 14.4453C2.28744 12.4148 2.52181 10.3836 2.75002 8.35155C2.79116 8.03445 2.9396 7.78446 3.19533 7.60155Z" fill="#754C29"/>
    <path fill-rule="evenodd" clip-rule="evenodd" d="M21.2422 7.60157C21.6929 7.52592 21.9976 7.69776 22.1563 8.1172C22.3943 10.2274 22.6443 12.3367 22.9063 14.4453C23.0405 15.1588 22.8686 15.7838 22.3906 16.3203C21.7969 16.8828 21.2031 17.4453 20.6094 18.0078C20.1233 18.4955 19.7952 19.0736 19.625 19.7422C19.6016 20.0856 19.5938 20.4293 19.6016 20.7734C18.3984 20.7734 17.1953 20.7734 15.9922 20.7734C15.9844 19.539 15.9922 18.3046 16.0156 17.0703C16.1615 16.4505 16.4427 15.9036 16.8594 15.4297C17.5406 14.6704 18.2671 13.9594 19.0391 13.2969C19.6961 13.1887 20.0164 13.4622 20 14.1172C19.9779 14.199 19.9467 14.2772 19.9063 14.3516C19.2174 15.0248 18.5455 15.7123 17.8906 16.4141C17.8452 16.8529 18.0405 17.0639 18.4766 17.0469C19.1847 16.4326 19.8644 15.7842 20.5156 15.1016C21.052 14.431 21.0989 13.7279 20.6563 12.9922C20.6757 11.5387 20.7225 10.0856 20.7969 8.63282C20.7605 8.2012 20.9089 7.85746 21.2422 7.60157Z" fill="#754C29"/>
    <path fill-rule="evenodd" clip-rule="evenodd" d="M8.77344 24.0078C8.39844 24.0078 8.02344 24.0078 7.64844 24.0078C7.55122 23.5973 7.30124 23.4645 6.89844 23.6094C6.77619 23.7218 6.69805 23.8546 6.66407 24.0078C6.28907 24.0078 5.91407 24.0078 5.53907 24.0078C5.50508 23.8546 5.42694 23.7218 5.30469 23.6094C5.04292 23.5538 4.77729 23.5226 4.50782 23.5156C4.4515 23.4733 4.41244 23.4187 4.39063 23.3516C4.34592 22.8314 4.36155 22.3157 4.4375 21.8047C4.47268 21.7754 4.51174 21.7519 4.55469 21.7344C6.28907 21.7031 8.02344 21.7031 9.75782 21.7344C9.80075 21.7519 9.83985 21.7754 9.875 21.8047C9.92764 22.0732 9.95108 22.3466 9.94532 22.625C9.95108 22.9034 9.92764 23.1768 9.875 23.4453C9.83985 23.4747 9.80075 23.4981 9.75782 23.5156C9.50253 23.5204 9.25255 23.5516 9.00782 23.6094C8.88557 23.7218 8.80743 23.8546 8.77344 24.0078Z" fill="#754C29"/>
    <path fill-rule="evenodd" clip-rule="evenodd" d="M19.3203 24.0078C18.9766 24.0078 18.6328 24.0078 18.2891 24.0078C18.1918 23.5973 17.9419 23.4645 17.5391 23.6094C17.4168 23.7218 17.3387 23.8546 17.3047 24.0078C16.9297 24.0078 16.5547 24.0078 16.1797 24.0078C16.1457 23.8546 16.0676 23.7218 15.9453 23.6094C15.6835 23.5538 15.4179 23.5226 15.1484 23.5156C15.0921 23.4733 15.0531 23.4187 15.0313 23.3516C14.9865 22.8314 15.0022 22.3157 15.0781 21.8047C15.1133 21.7754 15.1524 21.7519 15.1953 21.7344C16.9297 21.7031 18.6641 21.7031 20.3984 21.7344C20.4414 21.7519 20.4805 21.7754 20.5156 21.8047C20.5683 22.0732 20.5917 22.3466 20.5859 22.625C20.5917 22.9034 20.5683 23.1768 20.5156 23.4453C20.4805 23.4747 20.4414 23.4981 20.3984 23.5156C20.1485 23.5312 19.8984 23.5469 19.6484 23.5625C19.4635 23.6603 19.3541 23.8087 19.3203 24.0078Z" fill="#754C29"/>
    <path opacity="0.943" fill-rule="evenodd" clip-rule="evenodd" d="M7.64844 24.0078C7.64929 24.2247 7.55554 24.381 7.36719 24.4766C7.22657 24.4766 7.08594 24.4766 6.94532 24.4766C6.75697 24.381 6.66322 24.2247 6.66407 24.0078C6.69805 23.8546 6.77619 23.7218 6.89844 23.6094C7.30124 23.4645 7.55122 23.5973 7.64844 24.0078Z" fill="#754C29"/>
    <path opacity="0.944" fill-rule="evenodd" clip-rule="evenodd" d="M18.2891 24.0078C18.2899 24.2247 18.1962 24.381 18.0078 24.4766C17.8672 24.4766 17.7266 24.4766 17.5859 24.4766C17.3976 24.381 17.3038 24.2247 17.3047 24.0078C17.3387 23.8546 17.4168 23.7218 17.5391 23.6094C17.9419 23.4645 18.1918 23.5973 18.2891 24.0078Z" fill="#754C29"/>
  </g>
  <defs>
    <clipPath id="clip0_179_638">
    <rect width="24" height="24" fill="white" transform="translate(0.5 0.5)"/>
    </clipPath>
  </defs>
</svg>