<svg xmlns="http://www.w3.org/2000/svg" width="25" height="25" viewBox="0 0 25 25" fill="none">
  <g clip-path="url(#clip0_179_378)">
    <path opacity="0.944" fill-rule="evenodd" clip-rule="evenodd" d="M9.94529 0.476562C10.1953 0.476562 10.4453 0.476562 10.6953 0.476562C11.4012 0.753531 11.8309 1.26916 11.9844 2.02344C12.1522 2.83357 12.0116 3.58357 11.5625 4.27344C11.0264 4.90826 10.378 5.0567 9.61717 4.71875C8.79029 4.06713 8.46995 3.21557 8.65623 2.16406C8.78424 1.35803 9.21395 0.795533 9.94529 0.476562ZM10.1797 1.46094C10.4253 1.41586 10.6206 1.49399 10.7656 1.69531C11.1311 2.28523 11.1624 2.8946 10.8594 3.52344C10.5701 3.98221 10.242 4.01346 9.87498 3.61719C9.53143 2.99045 9.53143 2.36545 9.87498 1.74219C9.97168 1.63746 10.0732 1.54371 10.1797 1.46094Z" fill="#9A9A9A"/>
    <path opacity="0.945" fill-rule="evenodd" clip-rule="evenodd" d="M14.2578 0.476562C14.5078 0.476562 14.7578 0.476562 15.0078 0.476562C15.7392 0.795533 16.1689 1.35803 16.2969 2.16406C16.4832 3.21557 16.1628 4.06713 15.336 4.71875C14.2515 5.08684 13.4937 4.73528 13.0625 3.66406C12.8117 2.87962 12.8586 2.114 13.2031 1.36719C13.4513 0.938698 13.8029 0.641823 14.2578 0.476562ZM14.4453 1.46094C14.7837 1.4314 15.0258 1.57203 15.1719 1.88281C15.3907 2.41406 15.3907 2.94531 15.1719 3.47656C14.8284 4.01705 14.469 4.03268 14.0938 3.52344C13.7907 2.89543 13.8219 2.28605 14.1875 1.69531C14.2686 1.60616 14.3545 1.52803 14.4453 1.46094Z" fill="#9A9A9A"/>
    <path opacity="0.942" fill-rule="evenodd" clip-rule="evenodd" d="M6.52344 3.57031C7.67723 3.73169 8.37252 4.38794 8.60938 5.53906C8.69535 6.04662 8.6016 6.51537 8.32813 6.94531C7.9559 7.35697 7.49498 7.50537 6.94532 7.39062C6.16073 7.15292 5.63727 6.64508 5.37501 5.86719C5.18049 5.26667 5.22735 4.68857 5.51563 4.13281C5.77204 3.79004 6.10799 3.60254 6.52344 3.57031ZM6.57032 4.55469C7.33152 4.8108 7.68308 5.34205 7.62501 6.14844C7.54382 6.3883 7.37976 6.47422 7.13282 6.40625C6.4836 6.08459 6.19452 5.56114 6.26563 4.83594C6.33294 4.69804 6.43452 4.60429 6.57032 4.55469Z" fill="#9A9A9A"/>
    <path opacity="0.942" fill-rule="evenodd" clip-rule="evenodd" d="M18.289 3.57031C19.0245 3.61063 19.4854 3.98563 19.6718 4.69531C19.7928 5.74016 19.4256 6.56047 18.5703 7.15625C18.1287 7.41772 17.6599 7.48025 17.164 7.34375C16.5768 7.05275 16.2956 6.57617 16.3203 5.91406C16.3757 4.9355 16.8288 4.20893 17.6797 3.73438C17.884 3.66018 18.0872 3.60549 18.289 3.57031ZM18.1484 4.60156C18.5329 4.54078 18.7204 4.70484 18.7109 5.09375C18.6821 5.71391 18.3853 6.15144 17.8203 6.40625C17.5733 6.47422 17.4093 6.3883 17.3281 6.14844C17.2813 5.46073 17.5547 4.94511 18.1484 4.60156Z" fill="#9A9A9A"/>
    <path opacity="0.943" fill-rule="evenodd" clip-rule="evenodd" d="M12.3828 5.11719C12.8158 5.12772 13.2064 5.26053 13.5547 5.51562C14.343 6.16752 15.1398 6.80811 15.9453 7.4375C16.8421 8.46744 17.0218 9.61588 16.4844 10.8828C15.9131 11.9458 15.0303 12.3754 13.8359 12.1719C13.3825 12.0077 12.9294 11.8436 12.4765 11.6797C12.0236 11.8436 11.5705 12.0077 11.1172 12.1719C9.45849 12.3426 8.48194 11.6004 8.18748 9.94531C8.07751 8.97847 8.35093 8.14255 9.00779 7.4375C9.81324 6.80811 10.6101 6.16752 11.3984 5.51562C11.6999 5.30187 12.028 5.16908 12.3828 5.11719ZM12.4297 6.10156C12.6219 6.12228 12.7938 6.19259 12.9453 6.3125C13.6349 6.89281 14.338 7.45531 15.0547 8C15.8671 8.74981 16.0155 9.617 15.5 10.6016C15.2031 11.082 14.7734 11.293 14.2109 11.2344C13.8188 11.1401 13.4438 10.9995 13.0859 10.8125C12.6796 10.6563 12.2734 10.6563 11.8672 10.8125C11.4527 11.0314 11.0153 11.1798 10.5547 11.2578C9.83677 11.1574 9.39146 10.7511 9.21873 10.0391C9.03329 9.22034 9.25988 8.54066 9.89841 8C10.6151 7.45531 11.3182 6.89281 12.0078 6.3125C12.1402 6.21505 12.2808 6.14473 12.4297 6.10156Z" fill="#9A9A9A"/>
    <path opacity="0.946" fill-rule="evenodd" clip-rule="evenodd" d="M9.99219 24.4766C9.67967 24.4766 9.3672 24.4766 9.05469 24.4766C8.77316 24.292 8.70284 24.042 8.84375 23.7266C8.90066 23.6539 8.97097 23.5993 9.05469 23.5625C9.2578 23.5469 9.46095 23.5312 9.66406 23.5156C9.7498 23.5028 9.82011 23.4637 9.875 23.3984C9.91301 22.8806 9.90519 22.365 9.85156 21.8516C9.82695 21.8191 9.79569 21.7957 9.75781 21.7812C8.02344 21.75 6.28906 21.75 4.55469 21.7812C4.51681 21.7957 4.48556 21.8191 4.46094 21.8516C4.40732 22.365 4.39951 22.8806 4.4375 23.3984C4.49239 23.4637 4.56271 23.5028 4.64844 23.5156C4.85156 23.5312 5.05469 23.5469 5.25781 23.5625C5.63023 23.867 5.63023 24.1717 5.25781 24.4766C4.94531 24.4766 4.63281 24.4766 4.32031 24.4766C3.93879 24.3532 3.66535 24.1032 3.5 23.7266C3.44855 23.3621 3.42511 22.995 3.42969 22.625C3.42511 22.255 3.44855 21.8878 3.5 21.5234C3.66362 21.1411 3.94487 20.8911 4.34375 20.7734C4.48757 20.083 4.33132 19.4736 3.875 18.9453C3.18616 18.2408 2.48303 17.5533 1.76562 16.8828C1.1589 16.1279 0.940152 15.2685 1.10937 14.3047C1.35107 12.1137 1.6167 9.92618 1.90625 7.74218C2.28996 6.8276 2.96965 6.47604 3.94531 6.68749C4.71967 7.01018 5.10249 7.59612 5.09375 8.4453C5.13628 9.74402 5.20658 11.0409 5.30469 12.3359C5.84412 12.2247 6.32848 12.3419 6.75781 12.6875C7.47012 13.3841 8.16542 14.0951 8.84375 14.8203C9.47309 15.5637 9.83244 16.4231 9.92187 17.3984C9.93748 18.5234 9.95314 19.6484 9.96875 20.7734C10.4426 20.9191 10.7394 21.2316 10.8594 21.7109C10.903 22.3854 10.8874 23.0573 10.8125 23.7266C10.6483 24.1019 10.3749 24.3519 9.99219 24.4766ZM3.33594 7.60155C3.87444 7.6443 4.13225 7.94116 4.10937 8.49218C4.16819 9.94648 4.2385 11.3996 4.32031 12.8516C3.99108 13.374 3.90514 13.9365 4.0625 14.5391C4.15224 14.7657 4.27724 14.9689 4.4375 15.1484C5.07317 15.8155 5.73725 16.4483 6.42969 17.0469C6.94522 17.1094 7.15616 16.8828 7.0625 16.3672C6.42326 15.681 5.76701 15.0092 5.09375 14.3516C4.84827 13.7644 5.03577 13.405 5.65625 13.2734C5.8228 13.2821 5.9712 13.3367 6.10156 13.4375C6.84669 14.1513 7.55759 14.8934 8.23437 15.6641C8.63708 16.1727 8.87145 16.7509 8.9375 17.3984C8.96094 18.5233 8.96876 19.6483 8.96094 20.7734C7.7578 20.7734 6.5547 20.7734 5.35156 20.7734C5.44151 20.0776 5.32433 19.4213 5 18.8047C4.8039 18.5065 4.58515 18.2252 4.34375 17.9609C3.75 17.3984 3.15625 16.8359 2.5625 16.2734C2.10005 15.729 1.9438 15.104 2.09375 14.3984C2.33155 12.3676 2.56592 10.3363 2.79687 8.30468C2.8303 7.95171 3.00999 7.71734 3.33594 7.60155Z" fill="#9A9A9A"/>
    <path opacity="0.946" fill-rule="evenodd" clip-rule="evenodd" d="M20.6328 24.4766C20.2891 24.4766 19.9453 24.4766 19.6016 24.4766C19.3287 24.2901 19.2584 24.0401 19.3906 23.7266C19.4476 23.654 19.5179 23.5993 19.6016 23.5625C19.836 23.5469 20.0703 23.5312 20.3047 23.5156C20.3904 23.5028 20.4608 23.4637 20.5156 23.3984C20.5537 22.8806 20.5458 22.365 20.4922 21.8516C20.4676 21.8191 20.4363 21.7957 20.3985 21.7813C18.6641 21.75 16.9297 21.75 15.1953 21.7813C15.1575 21.7957 15.1262 21.8191 15.1016 21.8516C15.048 22.365 15.0401 22.8806 15.0781 23.3984C15.133 23.4637 15.2034 23.5028 15.2891 23.5156C15.4922 23.5312 15.6954 23.5469 15.8985 23.5625C16.1574 23.6993 16.2434 23.9103 16.1563 24.1953C16.0925 24.3136 16.0066 24.4073 15.8985 24.4766C15.5859 24.4766 15.2735 24.4766 14.961 24.4766C14.5794 24.3532 14.306 24.1032 14.1406 23.7266C14.0658 23.0573 14.0502 22.3854 14.0938 21.7109C14.2137 21.2316 14.5106 20.9191 14.9844 20.7734C15 19.6328 15.0157 18.4922 15.0313 17.3516C15.1269 16.3923 15.4862 15.5485 16.1094 14.8203C16.8033 14.0795 17.5143 13.3529 18.2422 12.6406C18.6681 12.3383 19.1368 12.2367 19.6485 12.3359C19.7466 11.0409 19.8169 9.74404 19.8594 8.44532C19.9473 7.12223 20.6426 6.53629 21.9453 6.68751C22.4801 6.86287 22.8473 7.21443 23.0469 7.7422C23.3364 9.9262 23.6021 12.1137 23.8438 14.3047C24.0108 15.2678 23.792 16.1272 23.1875 16.8828C22.4037 17.6041 21.6537 18.3541 20.9375 19.1328C20.6035 19.6305 20.4941 20.1773 20.6094 20.7734C21.0083 20.8911 21.2896 21.1411 21.4531 21.5234C21.5046 21.8879 21.5281 22.255 21.5235 22.625C21.5281 22.995 21.5046 23.3622 21.4531 23.7266C21.2878 24.1032 21.0144 24.3532 20.6328 24.4766ZM21.336 7.60157C21.8183 7.59168 22.0917 7.82606 22.1563 8.3047C22.3906 10.3359 22.625 12.3672 22.8594 14.3984C23.0094 15.104 22.8531 15.729 22.3906 16.2734C21.7813 16.8516 21.1719 17.4297 20.5625 18.0078C20.348 18.265 20.1449 18.5306 19.9531 18.8047C19.6288 19.4211 19.5116 20.0774 19.6016 20.7734C18.3984 20.7734 17.1954 20.7734 15.9922 20.7734C15.9844 19.6327 15.9922 18.4921 16.0156 17.3516C16.0954 16.7235 16.3298 16.161 16.7188 15.6641C17.3956 14.8934 18.1065 14.1513 18.8516 13.4375C19.3245 13.1577 19.6917 13.2592 19.9531 13.7422C19.9891 13.9341 19.9735 14.1216 19.9063 14.3047C19.2174 14.9779 18.5455 15.6654 17.8906 16.3672C17.797 16.8828 18.0079 17.1094 18.5235 17.0469C19.2159 16.4483 19.88 15.8155 20.5156 15.1484C20.9192 14.6905 21.0599 14.1592 20.9375 13.5547C20.8608 13.3077 20.7593 13.0733 20.6328 12.8516C20.7146 11.3996 20.7849 9.9465 20.8438 8.4922C20.8227 8.08565 20.9868 7.78879 21.336 7.60157Z" fill="#9A9A9A"/>
    <path opacity="0.898" fill-rule="evenodd" clip-rule="evenodd" d="M7.3672 24.4766C7.22657 24.4766 7.08595 24.4766 6.94532 24.4766C6.61542 24.2229 6.58415 23.9339 6.85157 23.6094C7.47407 23.4351 7.71628 23.6616 7.57814 24.2891C7.51265 24.3627 7.44234 24.4252 7.3672 24.4766Z" fill="#9A9A9A"/>
    <path opacity="0.899" fill-rule="evenodd" clip-rule="evenodd" d="M18.0078 24.4766C17.8672 24.4766 17.7266 24.4766 17.5859 24.4766C17.256 24.2229 17.2248 23.9339 17.4922 23.6094C18.1147 23.4351 18.3569 23.6616 18.2188 24.2891C18.1533 24.3627 18.083 24.4252 18.0078 24.4766Z" fill="#9A9A9A"/>
  </g>
  <defs>
    <clipPath id="clip0_179_378">
      <rect width="24" height="24" fill="white" transform="translate(0.5 0.5)"/>
    </clipPath>
  </defs>
</svg>