<svg xmlns="http://www.w3.org/2000/svg" width="24" height="25" viewBox="0 0 24 25" fill="none">
  <g clip-path="url(#clip0_179_360)">
    <path opacity="0.95" fill-rule="evenodd" clip-rule="evenodd" d="M7.47656 0.476562C10.3047 0.476562 13.1328 0.476562 15.9609 0.476562C16.5501 0.97483 17.1594 1.45139 17.7891 1.90625C17.958 2.03317 18.0752 2.19723 18.1406 2.39844C18.2093 3.6773 18.2327 4.95855 18.2109 6.24219C18.9324 6.2218 19.6512 6.24523 20.3672 6.3125C20.7278 6.4542 20.9543 6.71202 21.0469 7.08594C21.0781 12.3984 21.0781 17.711 21.0469 23.0234C20.8847 23.7714 20.4394 24.2558 19.7109 24.4766C14.5547 24.4766 9.39844 24.4766 4.24219 24.4766C3.51373 24.2558 3.06842 23.7714 2.90625 23.0234C2.875 17.711 2.875 12.3984 2.90625 7.08594C2.99884 6.71202 3.2254 6.4542 3.58594 6.3125C4.12988 6.24631 4.67675 6.22288 5.22656 6.24219C5.21878 5.94491 5.22656 5.64805 5.25 5.35156C5.4638 5.00212 5.69817 4.9865 5.95313 5.30469C5.97656 5.61678 5.98434 5.9293 5.97656 6.24219C6.41405 6.24219 6.85158 6.24219 7.28906 6.24219C7.30467 4.71062 7.28906 3.17937 7.24219 1.64844C6.83949 1.95528 6.44105 2.26778 6.04688 2.58594C5.98669 3.05005 5.95542 3.5188 5.95313 3.99219C5.74805 4.22101 5.52928 4.23663 5.29688 4.03906C5.24438 3.78626 5.22094 3.52844 5.22656 3.26562C5.18311 2.85938 5.25342 2.47657 5.4375 2.11719C6.11245 1.5589 6.79214 1.01202 7.47656 0.476562ZM8.03906 1.17969C10.4766 1.17969 12.9141 1.17969 15.3516 1.17969C15.3516 1.60156 15.3516 2.02344 15.3516 2.44531C12.9141 2.44531 10.4766 2.44531 8.03906 2.44531C8.03906 2.02344 8.03906 1.60156 8.03906 1.17969ZM16.1016 1.60156C16.5792 1.9222 17.0245 2.28158 17.4375 2.67969C17.4609 3.86708 17.4688 5.05459 17.4609 6.24219C17.0078 6.24219 16.5547 6.24219 16.1016 6.24219C16.1016 4.69531 16.1016 3.14844 16.1016 1.60156ZM8.03906 3.19531C10.4766 3.19531 12.9141 3.19531 15.3516 3.19531C15.3516 4.21094 15.3516 5.22655 15.3516 6.24219C12.9141 6.24219 10.4766 6.24219 8.03906 6.24219C8.03906 5.22655 8.03906 4.21094 8.03906 3.19531ZM3.86719 6.99219C9.27347 6.98436 14.6797 6.99219 20.0859 7.01562C20.153 7.03742 20.2077 7.07652 20.25 7.13281C20.3279 12.3947 20.3436 17.6603 20.2969 22.9297C20.1571 23.4413 19.8212 23.7148 19.2891 23.75C14.4141 23.7813 9.53906 23.7813 4.66406 23.75C4.13373 23.7153 3.79779 23.4419 3.65625 22.9297C3.625 17.6953 3.625 12.461 3.65625 7.22656C3.7043 7.12405 3.77461 7.04591 3.86719 6.99219Z" fill="#9A9A9A"/>
    <path opacity="0.935" fill-rule="evenodd" clip-rule="evenodd" d="M6.07032 8.67969C10.0079 8.67187 13.9454 8.67969 17.8828 8.70313C18.3483 8.85618 18.6062 9.17648 18.6563 9.66407C18.6875 13.4766 18.6875 17.2891 18.6563 21.1016C18.5969 21.6297 18.3078 21.95 17.7891 22.0625C16.4766 22.0938 15.1641 22.0938 13.8516 22.0625C13.5587 21.8509 13.5431 21.6165 13.8047 21.3594C15.0859 21.3438 16.3672 21.3281 17.6484 21.3125C17.7812 21.2735 17.8672 21.1875 17.9063 21.0547C17.9375 17.2734 17.9375 13.4922 17.9063 9.71094C17.8876 9.58288 17.8173 9.49696 17.6953 9.45313C13.8828 9.42187 10.0703 9.42187 6.25782 9.45313C6.19075 9.47493 6.13609 9.51402 6.09376 9.57032C6.03943 11.5051 6.016 13.4426 6.02345 15.3828C6.03128 17.2734 6.03906 19.1641 6.04689 21.0547C6.08593 21.1875 6.1719 21.2735 6.3047 21.3125C8.3672 21.3281 10.4297 21.3438 12.4922 21.3594C12.7282 21.5006 12.7829 21.6959 12.6563 21.9453C12.6014 22.0106 12.5311 22.0497 12.4453 22.0625C10.3516 22.0938 8.25784 22.0938 6.16407 22.0625C5.64531 21.95 5.35623 21.6297 5.29689 21.1016C5.26562 17.2734 5.26562 13.4453 5.29689 9.61719C5.37775 9.15393 5.63556 8.84141 6.07032 8.67969Z" fill="#9A9A9A"/>
    <path opacity="0.936" fill-rule="evenodd" clip-rule="evenodd" d="M10.947 13.5068C11.4315 13.458 11.7066 13.6725 11.7723 14.1505C11.7071 14.6336 11.432 14.8427 10.947 14.7778C10.4957 14.5845 10.3692 14.2599 10.5673 13.8039C10.6678 13.6687 10.7944 13.5697 10.947 13.5068Z" fill="#9A9A9A"/>
    <path opacity="0.939" fill-rule="evenodd" clip-rule="evenodd" d="M13.3899 13.5068C14.0507 13.5086 14.2983 13.8278 14.1326 14.4641C13.8999 14.7947 13.5973 14.8773 13.2248 14.7117C12.9516 14.5221 12.858 14.2636 12.9442 13.9359C13.0248 13.7177 13.1734 13.5746 13.3899 13.5068Z" fill="#9A9A9A"/>
    <path opacity="0.938" fill-rule="evenodd" clip-rule="evenodd" d="M9.42837 15.0914C10.0879 15.0409 10.3575 15.338 10.2372 15.9827C10.0291 16.3526 9.72654 16.4572 9.32933 16.2963C9.02532 16.0886 8.93179 15.808 9.04872 15.4545C9.13109 15.2846 9.25766 15.1635 9.42837 15.0914Z" fill="#9A9A9A"/>
    <path opacity="0.936" fill-rule="evenodd" clip-rule="evenodd" d="M14.8094 15.0914C15.4697 15.0417 15.7393 15.3388 15.6182 15.9828C15.383 16.3759 15.0584 16.4694 14.6444 16.2634C14.3205 15.9408 14.2985 15.5997 14.5783 15.24C14.6575 15.1897 14.7345 15.1401 14.8094 15.0914Z" fill="#9A9A9A"/>
    <path opacity="0.974" fill-rule="evenodd" clip-rule="evenodd" d="M12.1024 15.3225C12.7031 15.268 13.1157 15.5211 13.3404 16.0818C13.4576 16.188 13.5842 16.2816 13.72 16.3624C14.0985 16.7714 14.1481 17.2171 13.8686 17.6994C13.7085 17.8977 13.5049 18.0242 13.2578 18.079C12.6416 18.1011 12.0254 18.1011 11.4091 18.079C10.8245 17.9059 10.5659 17.5152 10.6333 16.9071C10.6828 16.6926 10.7873 16.511 10.947 16.3624C11.2317 16.2317 11.4243 16.0171 11.5247 15.7186C11.6845 15.532 11.877 15.4 12.1024 15.3225Z" fill="#9A9A9A"/>
  </g>
  <defs>
    <clipPath id="clip0_179_360">
      <rect width="24" height="24" fill="white" transform="translate(0 0.5)"/>
    </clipPath>
  </defs>
</svg>