<svg width="24" height="12" viewBox="0 0 24 12" fill="none" xmlns="http://www.w3.org/2000/svg">
<path id="Vector" fill-rule="evenodd" clip-rule="evenodd" d="M19.6042 4.99288e-05C19.7718 -0.000604974 19.9416 0.00547136 20.1064 0.00144007C20.5555 0.0348918 21.0219 0.105156 21.3443 0.434223C21.6189 0.97371 22.202 0.777216 22.916 0.954273C23.2952 1.1283 23.7537 1.06875 23.9902 1.37282C24.0674 1.49953 23.6624 1.75523 23.6624 1.75523C23.5315 2.26007 22.7797 2.49658 22.4968 2.46467C22.1828 2.49618 22.0344 2.6611 21.735 2.55706C21.6398 2.57495 21.5511 2.59772 21.4729 2.62992C21.1994 2.70461 20.8799 2.80806 20.6336 2.969C20.6195 3.19999 20.5978 3.42765 20.6098 3.66385C20.6364 3.90726 20.6458 4.26042 20.2749 4.15742C20.0946 4.16455 19.9575 4.0745 19.8385 3.95857C19.76 4.13999 19.6875 4.32781 19.5883 4.50814C19.4062 4.88937 19.5169 5.34271 19.4869 5.75901C19.4869 6.17517 19.4869 6.59132 19.4869 7.00754C19.4739 7.47856 19.0495 7.84924 18.7662 8.21337C18.3203 8.59598 17.8636 8.96687 17.3731 9.30022C17.3112 9.32907 17.25 9.35937 17.1891 9.39018C17.1344 9.55934 17.0543 9.72143 17.0458 9.89625C17.0396 10.1111 17.0653 10.331 17.0179 10.5381C17.0278 10.7306 17.0189 10.9239 17.022 11.1168C17.1902 11.1761 17.4025 11.0874 17.547 11.2194C17.6196 11.3543 17.7838 11.4061 17.8228 11.5823C18.026 11.7888 17.6945 11.9202 17.5174 11.9477C17.3362 11.939 17.2198 12.0254 17.0115 11.9925C16.796 12.017 16.6122 11.962 16.41 11.9063C16.3275 11.7303 16.065 11.638 16.0559 11.4172C15.9811 11.2441 15.8016 11.1199 15.8493 10.8801C15.8152 10.693 15.8799 10.5949 15.9697 10.4535C15.9997 10.2637 15.9818 10.0774 15.9708 9.88634C15.9675 9.88685 15.9642 9.88765 15.9609 9.88817C15.4675 10.1319 14.8139 9.96479 14.5149 9.90345C13.4987 9.60111 12.7537 9.49588 12.0696 9.1116C10.8508 8.74964 9.27808 8.81717 8.23874 8.11076C8.08584 8.03189 7.93554 7.96114 7.78769 7.89663C7.43953 7.89806 7.07492 8.37579 7.07492 8.37579C6.64884 9.10477 5.9768 9.15592 5.25 9.53497C4.94726 9.65883 5.04546 9.97156 5.10803 10.2062C5.19164 10.4479 5.22896 10.6784 5.33597 10.9082C5.93582 11.106 5.95681 11.1467 6.13676 11.7058C5.95423 11.881 5.5736 11.7295 5.31837 11.815C5.07866 11.9042 4.81685 11.7582 4.62041 11.6398C4.39749 11.1425 4.46798 10.6799 4.04636 10.2678C3.82632 10.0767 3.737 9.8022 3.69599 9.53477C3.87112 8.99889 4.16619 8.66753 3.96659 8.04538C3.64625 7.41292 3.62115 7.02264 3.55922 6.39255C3.52969 6.18503 3.5925 5.99007 3.69961 5.81414C3.39308 6.01085 3.12731 6.30148 2.93483 6.78427C2.70469 7.64547 1.4336 9.83838 0 9.76015C0.118451 9.42813 0.524709 9.3262 0.750987 9.07485C1.10982 8.82447 1.39186 8.48789 1.61041 8.12299C2.20434 6.98899 2.30168 5.98538 3.45906 5.18415C4.35532 4.80561 5.00589 4.48985 5.82134 4.56154C7.52272 4.44814 8.19082 4.30118 9.37262 4.39751C10.4728 4.4736 11.6266 4.50927 12.586 4.60756C13.0761 4.71658 13.521 4.42619 13.9039 4.39785C14.8586 4.20127 16.3813 3.98004 16.629 3.11992C17.0504 2.37224 17.3534 1.6012 17.9631 1.01484C17.89 0.810165 18.0262 0.567576 18.1426 0.380171C18.3061 0.2555 18.818 0.135555 18.818 0.135555C19.0521 0.0205835 19.3252 0.00109777 19.6042 4.99288e-05Z" fill="#FFB62B"/>
</svg>
