<svg width="14" height="14" viewBox="0 0 14 14" fill="none" xmlns="http://www.w3.org/2000/svg">
<circle cx="7" cy="7" r="7" fill="#FB724C"/>
<g clip-path="url(#clip0_2039_2930)">
<path d="M10.8499 9.44961C10.8499 9.63526 10.7762 9.81331 10.6449 9.94458C10.5136 10.0759 10.3356 10.1496 10.1499 10.1496H3.8499C3.66425 10.1496 3.4862 10.0759 3.35493 9.94458C3.22365 9.81331 3.1499 9.63526 3.1499 9.44961V5.59961C3.1499 5.41396 3.22365 5.23591 3.35493 5.10463C3.4862 4.97336 3.66425 4.89961 3.8499 4.89961H5.2499L5.9499 3.84961H8.0499L8.7499 4.89961H10.1499C10.3356 4.89961 10.5136 4.97336 10.6449 5.10463C10.7762 5.23591 10.8499 5.41396 10.8499 5.59961V9.44961Z" stroke="white" stroke-linecap="round" stroke-linejoin="round"/>
<path d="M6.99961 8.74971C7.77281 8.74971 8.39961 8.12291 8.39961 7.34971C8.39961 6.57651 7.77281 5.94971 6.99961 5.94971C6.22641 5.94971 5.59961 6.57651 5.59961 7.34971C5.59961 8.12291 6.22641 8.74971 6.99961 8.74971Z" stroke="white" stroke-linecap="round" stroke-linejoin="round"/>
</g>
<defs>
<clipPath id="clip0_2039_2930">
<rect width="8.4" height="8.4" fill="white" transform="translate(2.7998 2.7998)"/>
</clipPath>
</defs>
</svg>
