<svg width="14" height="14" viewBox="0 0 14 14" fill="none" xmlns="http://www.w3.org/2000/svg">
<g id="Group 33593">
<g id="Group 33592">
<path id="Vector" d="M9.66667 7.66665C10.0349 7.66665 10.3333 7.36817 10.3333 6.99998C10.3333 6.63179 10.0349 6.33331 9.66667 6.33331C9.29848 6.33331 9 6.63179 9 6.99998C9 7.36817 9.29848 7.66665 9.66667 7.66665Z" stroke="#754C29" stroke-linecap="round" stroke-linejoin="round"/>
<path id="Vector_2" d="M7.00001 7.66665C7.3682 7.66665 7.66668 7.36817 7.66668 6.99998C7.66668 6.63179 7.3682 6.33331 7.00001 6.33331C6.63182 6.33331 6.33334 6.63179 6.33334 6.99998C6.33334 7.36817 6.63182 7.66665 7.00001 7.66665Z" stroke="#754C29" stroke-linecap="round" stroke-linejoin="round"/>
<path id="Vector_3" d="M4.33334 7.66665C4.70153 7.66665 5.00001 7.36817 5.00001 6.99998C5.00001 6.63179 4.70153 6.33331 4.33334 6.33331C3.96515 6.33331 3.66667 6.63179 3.66667 6.99998C3.66667 7.36817 3.96515 7.66665 4.33334 7.66665Z" stroke="#754C29" stroke-linecap="round" stroke-linejoin="round"/>
</g>
<path id="Vector_4" d="M13 6.66669C13.0023 7.5466 12.7967 8.41462 12.4 9.20003C11.9296 10.1412 11.2065 10.9328 10.3116 11.4862C9.41677 12.0396 8.3855 12.333 7.33334 12.3334C6.45343 12.3357 5.58541 12.1301 4.8 11.7334L1 13L2.26667 9.20003C1.86995 8.41462 1.66437 7.5466 1.66667 6.66669C1.66707 5.61453 1.96041 4.58326 2.51381 3.68839C3.06722 2.79352 3.85884 2.0704 4.8 1.60002C5.58541 1.20331 6.45343 0.997725 7.33334 1.00002H7.66667C9.05624 1.07668 10.3687 1.66319 11.3528 2.64726C12.3368 3.63133 12.9233 4.94379 13 6.33336V6.66669Z" stroke="#754C29" stroke-width="1.5" stroke-linecap="round" stroke-linejoin="round"/>
</g>
</svg>
