<svg width="20" height="20" viewBox="0 0 20 20" fill="none" xmlns="http://www.w3.org/2000/svg">
<g id="Icon/direction">
<path id="Vector" d="M7.05781 15.8078C6.99974 15.8659 6.95368 15.9348 6.92225 16.0107C6.89082 16.0865 6.87465 16.1679 6.87465 16.25C6.87465 16.3321 6.89082 16.4134 6.92225 16.4893C6.95368 16.5652 6.99974 16.6341 7.05781 16.6922C7.11588 16.7502 7.18482 16.7963 7.26069 16.8277C7.33656 16.8592 7.41787 16.8753 7.5 16.8753C7.58212 16.8753 7.66344 16.8592 7.73931 16.8277C7.81518 16.7963 7.88412 16.7502 7.94218 16.6922L14.1922 10.4422C14.2503 10.3841 14.2964 10.3152 14.3278 10.2393C14.3593 10.1634 14.3755 10.0821 14.3755 9.99998C14.3755 9.91785 14.3593 9.83652 14.3278 9.76064C14.2964 9.68477 14.2503 9.61584 14.1922 9.55779L7.94218 3.30779C7.82491 3.19052 7.66585 3.12463 7.5 3.12463C7.33414 3.12463 7.17508 3.19052 7.05781 3.30779C6.94053 3.42507 6.87465 3.58413 6.87465 3.74998C6.87465 3.91583 6.94053 4.07489 7.05781 4.19217L12.8664 9.99998L7.05781 15.8078Z" fill="#333333"/>
</g>
</svg>
