<svg width="20" height="20" viewBox="0 0 20 20" fill="none" xmlns="http://www.w3.org/2000/svg">
<g id="Icon/direction">
<path id="Vector" d="M12.9422 15.8078C13.0003 15.8659 13.0463 15.9348 13.0777 16.0107C13.1092 16.0865 13.1254 16.1679 13.1254 16.25C13.1254 16.3321 13.1092 16.4134 13.0777 16.4893C13.0463 16.5652 13.0003 16.6341 12.9422 16.6922C12.8841 16.7502 12.8152 16.7963 12.7393 16.8277C12.6634 16.8592 12.5821 16.8753 12.5 16.8753C12.4179 16.8753 12.3366 16.8592 12.2607 16.8277C12.1848 16.7963 12.1159 16.7502 12.0578 16.6922L5.80782 10.4422C5.74971 10.3841 5.70361 10.3152 5.67215 10.2393C5.6407 10.1634 5.62451 10.0821 5.62451 9.99998C5.62451 9.91785 5.6407 9.83652 5.67215 9.76064C5.70361 9.68477 5.74971 9.61584 5.80782 9.55779L12.0578 3.30779C12.1751 3.19052 12.3342 3.12463 12.5 3.12463C12.6659 3.12463 12.8249 3.19052 12.9422 3.30779C13.0595 3.42507 13.1254 3.58413 13.1254 3.74998C13.1254 3.91583 13.0595 4.07489 12.9422 4.19217L7.1336 9.99998L12.9422 15.8078Z" fill="#333333"/>
</g>
</svg>
