<svg width="14" height="14" viewBox="0 0 14 14" fill="none" xmlns="http://www.w3.org/2000/svg">
<g id="Group 33624">
<circle id="Ellipse 40" cx="7" cy="7" r="7" fill="#FC5555"/>
<g id="Group 33625">
<path id="Vector" d="M7 9.8L9.8 7L11 8.2L8.2 11L7 9.8Z" fill="#FC5555" stroke="white" stroke-width="0.7" stroke-linecap="round" stroke-linejoin="round"/>
<path id="Vector_2" d="M9.4 7.4L8.8 4.4L3 3L4.4 8.8L7.4 9.4L9.4 7.4Z" fill="#FC5555" stroke="white" stroke-width="0.7" stroke-linecap="round" stroke-linejoin="round"/>
<g id="Vector_3">
<path d="M3 3L6.0344 6.0344L3 3Z" fill="#FC5555"/>
<path d="M3 3L6.0344 6.0344" stroke="white" stroke-width="0.7" stroke-linecap="round" stroke-linejoin="round"/>
</g>
<path id="Vector_4" d="M6.5998 7.3998C7.04163 7.3998 7.3998 7.04163 7.3998 6.5998C7.3998 6.15798 7.04163 5.7998 6.5998 5.7998C6.15798 5.7998 5.7998 6.15798 5.7998 6.5998C5.7998 7.04163 6.15798 7.3998 6.5998 7.3998Z" fill="#FC5555" stroke="white" stroke-width="0.7" stroke-linecap="round" stroke-linejoin="round"/>
</g>
</g>
</svg>
