<svg width="14" height="16" viewBox="0 0 14 16" fill="none" xmlns="http://www.w3.org/2000/svg">
<g id="Isolation_Mode" clip-path="url(#clip0_2123_2336)">
<path id="Vector" fill-rule="evenodd" clip-rule="evenodd" d="M14 8.16231C14 7.65518 13.9542 7.16826 13.8701 6.7002H7.14299V9.46548H10.9874C10.8218 10.3592 10.3185 11.1162 9.56212 11.6233V13.4168H11.8709C13.2214 12.1722 14.0007 10.3397 14.0007 8.16231H14Z" fill="#3E82F1"/>
<path id="Vector_2" fill-rule="evenodd" clip-rule="evenodd" d="M7.14299 15.1489C9.07157 15.1489 10.6886 14.5085 11.8702 13.4168L9.56145 11.6233C8.92151 12.0523 8.10392 12.3055 7.14232 12.3055C5.28171 12.3055 3.70709 11.0481 3.1452 9.3584H0.75972V11.2105C1.9353 13.5467 4.35039 15.1489 7.14299 15.1489Z" fill="#32A753"/>
<path id="Vector_3" fill-rule="evenodd" clip-rule="evenodd" d="M3.14588 9.3584C3.00322 8.9294 2.9218 8.47144 2.9218 8.00001C2.9218 7.52857 3.00322 7.07061 3.14588 6.64161V4.78955H0.759721C0.275895 5.75464 0 6.84634 0 8.00001C0 9.15367 0.275895 10.2454 0.759721 11.2105L3.14588 9.3584Z" fill="#F9BB00"/>
<path id="Vector_4" fill-rule="evenodd" clip-rule="evenodd" d="M7.14299 3.69449C8.19139 3.69449 9.13348 4.05547 9.87368 4.76329L11.9227 2.71256C10.6852 1.55957 9.0682 0.851074 7.14299 0.851074C4.35039 0.851074 1.9353 2.45327 0.75972 4.78956L3.14588 6.64161C3.70776 4.95186 5.28238 3.69449 7.14299 3.69449Z" fill="#E74133"/>
</g>
<defs>
<clipPath id="clip0_2123_2336">
<rect width="14" height="14.2979" fill="white" transform="translate(0 0.851074)"/>
</clipPath>
</defs>
</svg>
