<svg width="14px" height="13px" viewBox="0 0 32.00 32.00" version="1.1" xmlns="http://www.w3.org/2000/svg" xmlns:xlink="http://www.w3.org/1999/xlink" xmlns:sketch="http://www.bohemiancoding.com/sketch/ns" fill="" stroke="">

<g id="SVGRepo_bgCarrier" stroke-width="0"/>

<g id="SVGRepo_tracerCarrier" stroke-linecap="round" stroke-linejoin="round"/>

<g id="SVGRepo_iconCarrier"> <title>heart-like</title> <desc>Created with Sketch Beta.</desc> <defs> </defs> <g id="Page-1" stroke-width="0.00032" fill="none" fill-rule="evenodd" sketch:type="MSPage"> <g id="Icon-Set" sketch:type="MSLayerGroup" transform="translate(-100.000000, -880.000000)" fill="#FB724C"> <path d="M128,893.682 L116,908 L104,893.623 C102.565,891.629 102,890.282 102,888.438 C102,884.999 104.455,881.904 108,881.875 C110.916,881.851 114.222,884.829 116,887.074 C117.731,884.908 121.084,881.875 124,881.875 C127.451,881.875 130,884.999 130,888.438 C130,890.282 129.553,891.729 128,893.682 L128,893.682 Z M124,880 C120.667,880 118.145,881.956 116,884 C113.957,881.831 111.333,880 108,880 C103.306,880 100,884.036 100,888.438 C100,890.799 100.967,892.499 102.026,894.097 L114.459,909.003 C115.854,910.48 116.118,910.48 117.513,909.003 L129.974,894.097 C131.22,892.499 132,890.799 132,888.438 C132,884.036 128.694,880 124,880 L124,880 Z" id="heart-like" sketch:type="MSShapeGroup"> </path> </g> </g> </g>

</svg>