<svg xmlns="http://www.w3.org/2000/svg" width="18" height="18" viewBox="0 0 18 18" fill="none">
<path d="M2.43641 1.68746C1.81733 1.39174 1.13719 1.95746 1.31398 2.62024L2.60998 7.46289C2.64246 7.58459 2.70998 7.69408 2.80415 7.77774C2.89833 7.8614 3.015 7.91555 3.13969 7.93346L9.49369 8.84117C9.67755 8.86689 9.67755 9.13303 9.49369 9.15939L3.14034 10.0665C3.01565 10.0844 2.89897 10.1385 2.8048 10.2222C2.71062 10.3058 2.6431 10.4153 2.61062 10.537L1.31398 15.3822C1.13719 16.0444 1.81733 16.6101 2.43641 16.315L16.2566 9.72639C16.8666 9.43581 16.8666 8.56667 16.2566 8.27546L2.43641 1.68746Z" fill="#919191"/>
</svg>