<svg width="50" height="18" viewBox="0 0 50 18" fill="none" xmlns="http://www.w3.org/2000/svg">
<g id="logo">
<path id="Vector" d="M38.1128 8.02787C38.8323 8.255 39.4704 8.40197 40.0542 8.50885C40.638 8.60238 41.2353 8.66918 41.8327 8.68254C42.1313 8.68254 42.3757 8.6291 42.5658 8.52222C42.7559 8.41533 42.878 8.255 42.9459 8.04123C42.9866 7.92099 43.0002 7.77402 43.0002 7.60033C42.9867 7.35984 42.9052 7.14607 42.7694 6.97238C42.6337 6.79869 42.4436 6.67844 42.1992 6.59828C42.077 6.5582 41.9141 6.53147 41.7241 6.53147C40.7466 6.50475 39.8641 6.37115 39.0767 6.11729C38.5065 5.94361 38.1264 5.70311 37.9363 5.42254C37.7462 5.1286 37.7191 4.72778 37.882 4.22008L38.3436 2.73704C38.4522 2.41639 38.4115 2.13581 38.2485 1.89532C38.0856 1.65483 37.8005 1.46778 37.4204 1.34753L37.3389 1.32081C36.9588 1.20056 36.6194 1.20056 36.3479 1.30745C36.0628 1.41433 35.8727 1.62811 35.7777 1.94876L35.2889 3.48524C34.9224 4.63426 34.9631 5.58287 35.4111 6.30434C35.8591 7.03918 36.7687 7.61369 38.1264 8.02787H38.1128Z" fill="#FFD233"/>
<path id="Vector (Stroke)" fill-rule="evenodd" clip-rule="evenodd" d="M38.1139 8.02408C38.1136 8.02396 38.1132 8.02384 38.1128 8.02372C38.0759 8.01242 38.0394 8.00101 38.0032 7.98947C36.7136 7.57845 35.8454 7.01674 35.4111 6.30435C34.9631 5.58287 34.9224 4.63426 35.2889 3.48524L35.7777 1.94877C35.8727 1.62811 36.0628 1.41434 36.3479 1.30745C36.6194 1.20057 36.9588 1.20057 37.3389 1.32082L37.4204 1.34754C37.8005 1.46778 38.0856 1.65483 38.2485 1.89532C38.4115 2.13582 38.4522 2.41639 38.3436 2.73705L37.882 4.22008C37.7191 4.72779 37.7462 5.12861 37.9363 5.42254C38.1263 5.70312 38.5065 5.94361 39.0767 6.1173C39.8641 6.37115 40.7466 6.50476 41.724 6.53148C41.9141 6.53148 42.077 6.5582 42.1992 6.59828C42.4436 6.67845 42.6337 6.79869 42.7694 6.97238C42.9052 7.14607 42.9866 7.35984 43.0002 7.60033C43.0002 7.77402 42.9866 7.92099 42.9459 8.04124C42.878 8.25501 42.7558 8.41533 42.5658 8.52222C42.3757 8.62911 42.1313 8.68255 41.8327 8.68255C41.2353 8.66919 40.638 8.60238 40.0542 8.50886C39.503 8.40794 38.9034 8.2713 38.2326 8.06519C38.1974 8.05437 38.162 8.04336 38.1264 8.03215C38.126 8.03203 38.1256 8.03191 38.1252 8.03179C38.1211 8.03049 38.1169 8.02918 38.1128 8.02788H38.1264C38.1222 8.02661 38.1181 8.02535 38.1139 8.02408ZM37.8879 8.75622C36.4752 8.32239 35.3585 7.67606 34.7681 6.70998C34.1588 5.72653 34.1629 4.51954 34.5679 3.24979C34.568 3.24968 34.568 3.24958 34.568 3.24947L35.0545 1.7201C35.2115 1.19807 35.5553 0.788678 36.0791 0.590292C36.5502 0.406689 37.0704 0.432274 37.5648 0.588662L37.5686 0.589864L37.6503 0.616665C38.1266 0.767986 38.5827 1.03251 38.8733 1.46146C39.1783 1.91174 39.2407 2.44382 39.0636 2.97572L38.6035 4.45387L38.6025 4.4571C38.4874 4.81572 38.5434 4.95623 38.5662 4.99592C38.6207 5.06962 38.8092 5.2348 39.2949 5.38277L39.3007 5.38454L39.3065 5.3864C40.0095 5.61304 40.816 5.73863 41.7352 5.76445C41.9868 5.76547 42.2261 5.80081 42.4327 5.86857C42.7806 5.98269 43.1125 6.17523 43.3635 6.49636C43.5986 6.79713 43.7343 7.16281 43.7566 7.55656L43.7578 7.57843V7.60033C43.7578 7.79865 43.7445 8.04381 43.665 8.28265C43.5433 8.66086 43.3054 8.9837 42.9336 9.19279C42.5968 9.38221 42.2142 9.4496 41.8327 9.4496H41.8243L41.8159 9.44941C41.175 9.43508 40.5423 9.36365 39.9358 9.26649L39.9276 9.26517L39.9194 9.26367C39.3097 9.15204 38.6409 8.99803 37.8873 8.76016L37.8879 8.75622Z" fill="#754C29"/>
<path id="Vector_2" d="M43.2582 10.6733C42.688 10.1923 41.9684 9.80482 41.086 9.5376C40.2307 9.27039 39.4161 9.17686 38.6694 9.25703C37.9091 9.33719 37.2846 9.56432 36.7552 9.93842C36.2393 10.3125 35.8727 10.8202 35.6691 11.4482C35.4654 12.0628 35.479 12.6774 35.6826 13.2786C35.8863 13.8798 36.28 14.4142 36.8502 14.8952C37.4204 15.3762 38.1399 15.7503 38.9952 16.0175C39.8505 16.2847 40.6651 16.3783 41.4254 16.3115C42.1857 16.2447 42.8237 16.0175 43.3396 15.6434C43.8555 15.2693 44.2221 14.775 44.4122 14.1604C44.6158 13.5324 44.6158 12.9179 44.4122 12.3166C44.2085 11.7154 43.8148 11.1676 43.2446 10.6866L43.2582 10.6733ZM38.683 10.6465C38.8459 10.5397 39.0631 10.5664 39.1989 10.6866C39.1989 10.6866 39.2939 10.7935 39.3211 10.8603C39.4976 11.2611 39.3618 11.8089 38.9817 12.0761C38.8052 12.1964 38.5472 12.2097 38.3979 12.036C38.0585 11.6219 38.2214 10.9271 38.6694 10.6465H38.683ZM40.4479 14.3742C40.3936 14.628 40.3121 14.9353 40.0678 15.0689C39.8098 15.1892 39.5247 15.0155 39.4025 14.7883C39.2532 14.5345 39.1446 14.2272 38.8731 14.0669C38.5744 13.8531 38.1671 13.8397 37.882 13.5992C37.6512 13.3988 37.6919 13.0114 37.9499 12.8511C38.2757 12.5972 38.6694 12.4369 39.0767 12.3567C39.4297 12.2899 39.837 12.3834 40.1085 12.6106C40.2443 12.7174 40.3529 12.8644 40.4072 13.0381C40.5565 13.4656 40.5022 13.9333 40.4343 14.3742H40.4479ZM40.0135 11.702C40.0135 11.702 39.932 11.6486 39.9048 11.6085C39.6197 11.181 39.837 10.5931 40.2035 10.2858C40.3936 10.1255 40.7058 10.0587 40.8959 10.2056C40.8959 10.2056 40.9502 10.2591 40.9774 10.2858C41.2217 10.6332 41.086 11.1142 40.828 11.4215C40.638 11.6619 40.2986 11.8624 39.9999 11.6887L40.0135 11.702ZM42.1313 13.7729C41.8462 14.0936 41.276 14.2806 40.9231 13.9867C40.6787 13.7596 40.8145 13.3588 41.0452 13.1717C41.3439 12.8911 41.8462 12.7442 42.1992 12.998C42.43 13.2118 42.335 13.5725 42.1313 13.7729ZM42.2807 12.0628C42.0499 12.4502 41.5476 12.7308 41.0996 12.5571C41.0452 12.5304 41.0045 12.5037 40.9638 12.4636C40.7194 12.1697 40.8959 11.7421 41.1539 11.5016C41.4254 11.2344 41.8734 11.0474 42.2264 11.2478C42.2264 11.2478 42.24 11.2478 42.2535 11.2611C42.4979 11.4482 42.4572 11.8223 42.2807 12.0628Z" fill="#FFD233"/>
<path id="Vector (Stroke)_2" fill-rule="evenodd" clip-rule="evenodd" d="M43.7852 11.2243C43.7802 11.2183 43.7751 11.2123 43.77 11.2064C43.6637 11.0814 43.547 10.9599 43.4203 10.8421C43.3642 10.79 43.3062 10.7386 43.2461 10.6879C43.2456 10.6875 43.2451 10.6871 43.2446 10.6866L43.2582 10.6733C43.2577 10.6728 43.2572 10.6724 43.2567 10.672C43.2171 10.6386 43.1768 10.6057 43.1358 10.5733C42.9784 10.4488 42.8103 10.331 42.6313 10.2205C42.2703 9.99759 41.8648 9.80425 41.4128 9.64463C41.3882 9.63593 41.3634 9.62734 41.3385 9.61884C41.2559 9.59064 41.1717 9.56356 41.086 9.5376C40.8721 9.47079 40.6608 9.41484 40.4525 9.36974C39.8276 9.23448 39.2294 9.19691 38.6694 9.25703C37.9092 9.33719 37.2846 9.56433 36.7552 9.93842C36.2393 10.3125 35.8727 10.8202 35.6691 11.4482C35.4654 12.0628 35.479 12.6774 35.6826 13.2786C35.8863 13.8798 36.28 14.4143 36.8502 14.8952C37.4204 15.3762 38.1399 15.7503 38.9952 16.0175C39.8506 16.2847 40.6651 16.3783 41.4254 16.3115C42.1857 16.2447 42.8237 16.0175 43.3396 15.6434C43.8555 15.2693 44.2221 14.775 44.4122 14.1604C44.6158 13.5324 44.6158 12.9179 44.4122 12.3166C44.2809 11.9291 44.0707 11.5638 43.7852 11.2243ZM45.1335 14.3947C44.8911 15.1747 44.4214 15.8025 43.7807 16.267C43.1375 16.7335 42.3643 16.9989 41.4909 17.0756C40.6223 17.152 39.7094 17.0434 38.7719 16.7505C37.8422 16.46 37.0279 16.0435 36.3653 15.4846C35.7144 14.9355 35.2245 14.2904 34.966 13.5274C34.7114 12.7755 34.6916 11.9883 34.9501 11.2066C35.203 10.4282 35.6651 9.78539 36.3141 9.31481L36.3178 9.31207L36.3216 9.30939C36.9701 8.85123 37.7206 8.58597 38.5903 8.49417C39.4546 8.40151 40.3717 8.5121 41.3062 8.80366C42.2722 9.09657 43.085 9.52884 43.7431 10.0839L44.3897 10.6293L44.3294 10.6887C44.6857 11.1034 44.9581 11.5639 45.1288 12.0678C45.3876 12.832 45.3849 13.6165 45.1335 14.3947ZM40.8959 10.2056C40.894 10.2041 40.892 10.2026 40.89 10.2012C40.8883 10.1999 40.8866 10.1987 40.8849 10.1975C40.7641 10.1113 40.5981 10.1066 40.4452 10.1545C40.3564 10.1824 40.272 10.228 40.2035 10.2858C40.1268 10.3501 40.0566 10.4267 39.9963 10.5116C39.9816 10.5321 39.9676 10.5531 39.9542 10.5745C39.9481 10.5842 39.9421 10.5941 39.9363 10.604C39.7543 10.9129 39.7004 11.3019 39.9049 11.6085C39.9098 11.6158 39.9166 11.6236 39.9243 11.6314C39.9421 11.6493 39.9651 11.6674 39.9832 11.6808C39.9885 11.6847 39.9933 11.6881 39.9975 11.6911C39.9978 11.6913 39.998 11.6914 39.9982 11.6916C40.0075 11.6981 40.0135 11.702 40.0135 11.702L39.9999 11.6887C40.0053 11.6918 40.0107 11.6949 40.0162 11.6978C40.0165 11.6979 40.0168 11.6981 40.0171 11.6982C40.0403 11.7106 40.0637 11.7207 40.0873 11.7288C40.0877 11.7289 40.0881 11.7291 40.0885 11.7292C40.107 11.7355 40.1255 11.7405 40.144 11.7444C40.1453 11.7446 40.1466 11.7449 40.1479 11.7451C40.4049 11.7962 40.6689 11.6229 40.828 11.4215C40.8666 11.3756 40.9024 11.3258 40.9346 11.2732C40.9361 11.2707 40.9377 11.2681 40.9392 11.2656C41.0589 11.0668 41.1275 10.8286 41.0993 10.605C41.0863 10.5025 41.053 10.403 40.9949 10.3119C40.9893 10.3031 40.9834 10.2944 40.9774 10.2858L40.8959 10.2056ZM41.7977 11.1703C41.5584 11.2011 41.3222 11.336 41.1539 11.5016C41.1197 11.5335 41.0869 11.5687 41.0563 11.6064C41.0545 11.6087 41.0527 11.6109 41.0509 11.6132C40.8901 11.8151 40.7934 12.0873 40.8791 12.318C40.8823 12.3268 40.8859 12.3356 40.8897 12.3443C40.8904 12.3459 40.8911 12.3475 40.8918 12.3491C40.9098 12.3889 40.9336 12.4273 40.9638 12.4636C40.9727 12.4723 40.9816 12.4805 40.9906 12.4881C41.023 12.5154 41.0571 12.5362 41.0996 12.5571C41.5078 12.7154 41.9612 12.4965 42.213 12.1632C42.2376 12.1307 42.2602 12.0972 42.2807 12.0628C42.4572 11.8223 42.4979 11.4482 42.2535 11.2611C42.24 11.2478 42.2264 11.2478 42.2264 11.2478C42.0922 11.1716 41.9444 11.1514 41.7977 11.1703ZM42.2851 13.1092C42.2641 13.0693 42.2357 13.0318 42.1992 12.998C41.9009 12.7835 41.496 12.8552 41.1974 13.0519C41.1427 13.088 41.0915 13.1282 41.0453 13.1717C40.9992 13.209 40.957 13.2548 40.9208 13.306C40.8577 13.3953 40.8129 13.5011 40.7985 13.6071C40.7797 13.7453 40.8124 13.8838 40.9231 13.9867C41.0147 14.063 41.121 14.1069 41.2331 14.1245C41.2471 14.1267 41.2612 14.1284 41.2753 14.1298C41.5847 14.16 41.9295 14 42.1314 13.7729C42.3028 13.6042 42.3973 13.3219 42.2851 13.1092ZM40.4348 14.3713C40.4392 14.3423 40.4436 14.3132 40.4479 14.284C40.4806 14.0612 40.5066 13.8327 40.502 13.6071C40.498 13.4136 40.4715 13.2221 40.4072 13.0381C40.3965 13.0041 40.3838 12.971 40.3692 12.9391C40.3538 12.9056 40.3364 12.8733 40.3171 12.8424C40.2912 12.8009 40.2621 12.7619 40.2301 12.7257C40.193 12.6834 40.1522 12.6449 40.1085 12.6106C40.0441 12.5567 39.972 12.5103 39.8948 12.4718C39.8445 12.4467 39.792 12.4249 39.738 12.4066C39.7237 12.4018 39.7093 12.3972 39.6948 12.3928C39.5235 12.3413 39.3397 12.3238 39.165 12.3434C39.1632 12.3436 39.1615 12.3438 39.1597 12.344C39.1318 12.3473 39.1041 12.3515 39.0767 12.3567C38.7207 12.4268 38.375 12.5581 38.076 12.7596C38.033 12.7886 37.9909 12.8191 37.9499 12.8511C37.6919 13.0114 37.6512 13.3988 37.882 13.5993C38.0334 13.7269 38.2192 13.7906 38.4049 13.8542C38.569 13.9104 38.733 13.9666 38.8731 14.0669C39.0841 14.1915 39.1967 14.4049 39.3065 14.6129C39.338 14.6726 39.3693 14.7318 39.4025 14.7883C39.4434 14.8644 39.5026 14.9344 39.5729 14.9895C39.7125 15.0988 39.8962 15.1489 40.0678 15.0689C40.2582 14.9648 40.3497 14.7553 40.4065 14.5478C40.4168 14.5102 40.4259 14.4726 40.4343 14.4358C40.4389 14.4157 40.4433 14.3958 40.4475 14.3762C40.4476 14.3756 40.4478 14.3749 40.4479 14.3742H40.4343C40.4345 14.3732 40.4346 14.3722 40.4348 14.3713ZM38.2658 11.7998C38.2956 11.8845 38.3392 11.9645 38.3979 12.0361C38.5472 12.2097 38.8052 12.1964 38.9817 12.0761C38.9939 12.0675 39.0059 12.0586 39.0177 12.0494C39.0184 12.0489 39.019 12.0484 39.0197 12.0478C39.082 11.9989 39.137 11.9421 39.1844 11.8796C39.2553 11.7863 39.3092 11.6804 39.3451 11.569C39.4206 11.3347 39.4161 11.0762 39.3211 10.8603C39.2939 10.7935 39.1989 10.6866 39.1989 10.6866C39.1698 10.6608 39.1369 10.6394 39.1017 10.6226C38.9725 10.5611 38.811 10.5626 38.683 10.6465H38.6694C38.2988 10.8786 38.1233 11.3941 38.2658 11.7998Z" fill="#754C29"/>
<path id="Vector_3" d="M49.0688 6.14402C48.9194 5.90353 48.6615 5.72984 48.2949 5.60959L47.5075 5.3691L47.5754 5.14197C47.684 4.82131 47.6433 4.54074 47.4804 4.30024C47.3174 4.05975 47.0323 3.8727 46.6522 3.75246L46.5707 3.72574C46.1906 3.60549 45.8512 3.60549 45.5797 3.69901C45.2946 3.8059 45.1045 4.01967 45.0095 4.34033L43.4346 9.25706C43.326 9.57771 43.3668 9.85829 43.5297 10.0988C43.6926 10.3393 43.9777 10.5263 44.3578 10.6466L44.4393 10.6733C44.8194 10.7935 45.1588 10.7935 45.4303 10.7C45.7154 10.5931 45.9055 10.3794 46.0005 10.0587L46.0413 9.92509L46.8287 10.1656C47.1953 10.2858 47.5211 10.2858 47.779 10.1656C48.037 10.0453 48.2135 9.83157 48.3221 9.52427C48.4171 9.21697 48.4035 8.9364 48.2542 8.69591C48.1049 8.45542 47.8469 8.28173 47.4804 8.16148L46.6929 7.92099L46.8694 7.38656L47.6568 7.62705C48.0234 7.7473 48.3492 7.7473 48.6072 7.62705C48.8651 7.50681 49.0416 7.29304 49.1502 6.98574C49.2453 6.67845 49.2317 6.39787 49.0823 6.15738L49.0688 6.14402Z" fill="#FFD233"/>
<path id="Vector (Stroke)_3" fill-rule="evenodd" clip-rule="evenodd" d="M48.295 5.60957C48.6615 5.72982 48.9195 5.9035 49.0688 6.144L49.0824 6.15736C49.2317 6.39785 49.2453 6.67842 49.1503 6.98572C49.0416 7.29301 48.8652 7.50679 48.6072 7.62703C48.5173 7.66896 48.4191 7.69627 48.3137 7.70896C48.1171 7.73266 47.8956 7.70535 47.6569 7.62703L46.8695 7.38654L46.693 7.92097L47.4804 8.16146C47.482 8.162 47.4837 8.16255 47.4853 8.16309C47.4889 8.16428 47.4925 8.16547 47.4961 8.16667C47.736 8.24706 47.9286 8.35082 48.0739 8.48179C48.1455 8.54639 48.2056 8.6176 48.2542 8.69589C48.4036 8.93638 48.4171 9.21695 48.3221 9.52425C48.2135 9.83154 48.037 10.0453 47.7791 10.1656C47.5211 10.2858 47.1953 10.2858 46.8287 10.1656L46.0413 9.92507L46.0006 10.0587C45.9055 10.3793 45.7155 10.5931 45.4304 10.7C45.1588 10.7935 44.8194 10.7935 44.4393 10.6733L44.3578 10.6465C43.9777 10.5263 43.6926 10.3392 43.5297 10.0988C43.3668 9.85826 43.3261 9.57769 43.4347 9.25703L45.0095 4.34031C45.1045 4.01965 45.2946 3.80588 45.5797 3.69899C45.8512 3.60547 46.1906 3.60547 46.5708 3.72571L46.6522 3.75244C47.0324 3.87268 47.3175 4.05973 47.4804 4.30022C47.6268 4.51639 47.6745 4.76495 47.6038 5.04589C47.5959 5.0775 47.5864 5.10952 47.5754 5.14195L47.5075 5.36905L48.295 5.60957ZM48.393 4.83832L48.5211 4.87745L48.5285 4.87986C48.9599 5.02139 49.3731 5.2542 49.6523 5.6486L49.6755 5.67135L49.7237 5.74908C50.0216 6.22873 50.0153 6.7555 49.8732 7.21493L49.8687 7.22965L49.8635 7.24417C49.7001 7.70656 49.4011 8.10141 48.924 8.32378C48.9223 8.32459 48.9206 8.3254 48.9188 8.3262C49.193 8.79541 49.1833 9.30633 49.0451 9.75346L49.0405 9.76817L49.0354 9.78269C48.872 10.2451 48.5729 10.6399 48.0959 10.8623C47.614 11.087 47.0831 11.0538 46.6031 10.8978L46.4482 10.8505C46.2637 11.1031 46.0116 11.3 45.6934 11.4193L45.6839 11.4229L45.6744 11.4262C45.2198 11.5827 44.7124 11.5633 44.2134 11.4054L44.2096 11.4042L44.1279 11.3774C43.6517 11.2261 43.1955 10.9616 42.905 10.5326C42.5993 10.0814 42.5373 9.54801 42.7158 9.01499L44.2866 4.11082C44.4443 3.58727 44.79 3.17713 45.3167 2.97967L45.3261 2.97611L45.3357 2.97281C45.7902 2.81625 46.2977 2.83573 46.7967 2.99356L46.8005 2.99476L46.8822 3.02157C47.3584 3.17289 47.8145 3.43741 48.1051 3.86636C48.3059 4.1627 48.4015 4.49448 48.393 4.83832Z" fill="#754C29"/>
<path id="Vector_4" d="M25.6639 13.0381C25.6639 12.8645 25.7453 12.7041 25.9218 12.5705C26.6685 11.9426 27.2251 11.328 27.6053 10.7401C27.9718 10.1389 28.1619 9.52428 28.1619 8.89633C28.1619 8.78945 28.1076 8.736 27.999 8.736H26.7092C26.4106 8.736 26.1934 8.68256 26.0304 8.56232C25.8811 8.44207 25.7996 8.26838 25.7996 8.05461C25.7996 7.84084 25.8811 7.66715 26.0304 7.5469C26.1798 7.42666 26.4106 7.37321 26.7092 7.37321H28.9357C29.1801 7.37321 29.3838 7.44002 29.5331 7.58699C29.6824 7.72059 29.7639 7.921 29.7639 8.14813V8.52223C29.7639 9.56437 29.5331 10.4863 29.0851 11.2745C28.6371 12.0628 27.9583 12.8244 27.0487 13.5325C26.8586 13.6661 26.6685 13.7463 26.4649 13.7463C26.2612 13.7463 26.0847 13.6795 25.9218 13.5325C25.7589 13.3722 25.6639 13.2118 25.6639 13.0515V13.0381ZM32.9735 15.552C32.8377 15.4317 32.7778 15.2961 32.7778 15.069V10.994H32.0311V14.8418C32.0311 15.069 31.9632 15.2427 31.8275 15.3495C31.6917 15.4698 31.5017 15.5232 31.2301 15.5232C30.9586 15.5232 30.7685 15.4698 30.6328 15.3495C30.497 15.2293 30.4291 15.069 30.4291 14.8418V7.57363C30.4291 7.34649 30.497 7.1728 30.6328 7.06592C30.7685 6.95903 30.9586 6.89223 31.2301 6.89223C31.5017 6.89223 31.6917 6.94567 31.8275 7.06592C31.9632 7.18617 32.0311 7.34649 32.0311 7.57363V9.60445H32.7778V7.4801C32.7778 7.25297 32.8457 7.07928 32.9815 6.9724C33.1172 6.85215 33.3073 6.79871 33.5788 6.79871C33.8503 6.79871 34.0404 6.85215 34.1762 6.9724C34.3119 7.09264 34.3798 7.25297 34.3798 7.4801V15.0556C34.3798 15.2827 34.3119 15.4564 34.1762 15.5633C34.0404 15.6836 33.8503 15.737 33.5788 15.737C33.3073 15.737 33.1172 15.6836 32.9815 15.5633L32.9735 15.552Z" fill="#FFD233"/>
<path id="Vector (Stroke)_4" fill-rule="evenodd" clip-rule="evenodd" d="M27.0487 13.5325C26.8586 13.6661 26.6685 13.7463 26.4649 13.7463C26.2612 13.7463 26.0848 13.6794 25.9218 13.5325C25.7589 13.3722 25.6639 13.2118 25.6639 13.0515V13.0381C25.6639 12.8644 25.7453 12.7041 25.9218 12.5705C26.6685 11.9426 27.2252 11.328 27.6053 10.7401C27.9718 10.1389 28.1619 9.52428 28.1619 8.89632C28.1619 8.78944 28.1076 8.736 27.999 8.736H26.7093C26.4106 8.736 26.1934 8.68255 26.0304 8.56231C25.8811 8.44206 25.7996 8.26837 25.7996 8.0546C25.7996 7.84083 25.8811 7.66714 26.0304 7.5469C26.1798 7.42665 26.4106 7.37321 26.7093 7.37321H28.9358C29.1801 7.37321 29.3838 7.44001 29.5331 7.58698C29.589 7.63699 29.6354 7.69636 29.6716 7.76299C29.732 7.87436 29.7639 8.00601 29.7639 8.14813V8.52223C29.7639 8.90418 29.7329 9.26998 29.6716 9.61897C29.5655 10.2222 29.3689 10.7752 29.0851 11.2745C28.6371 12.0628 27.9583 12.8244 27.0487 13.5325ZM29.6716 11.7775C29.166 12.6249 28.4382 13.4183 27.5104 14.1406L27.4958 14.1519L27.4807 14.1626C27.2162 14.3485 26.8764 14.5133 26.4649 14.5133C26.0714 14.5133 25.7165 14.3746 25.4179 14.1052L25.4056 14.0941L25.3938 14.0825C25.1804 13.8725 24.9063 13.5239 24.9063 13.0515V13.0381C24.9063 12.5908 25.1263 12.2224 25.4502 11.97C26.1444 11.3846 26.639 10.8317 26.9659 10.3285C27.1369 10.0465 27.2549 9.7719 27.3251 9.50305H26.7093C26.332 9.50305 25.9301 9.43744 25.5842 9.18215L25.5713 9.17268L25.5589 9.16267C25.2158 8.88642 25.0421 8.48481 25.0421 8.0546C25.0421 7.62439 25.2158 7.22278 25.5589 6.94654C25.9104 6.66354 26.3534 6.60616 26.7093 6.60616H28.9358C29.2344 6.60616 29.5546 6.67195 29.8376 6.85673C29.9142 6.71152 30.0215 6.57555 30.1678 6.46038C30.4664 6.22529 30.8324 6.12517 31.2301 6.12517C31.5873 6.12517 31.9933 6.19365 32.3263 6.48858C32.3367 6.49783 32.347 6.50718 32.357 6.51662C32.3994 6.46903 32.4466 6.42359 32.4989 6.38088C32.8288 6.09792 33.2274 6.03165 33.5788 6.03165C33.936 6.03165 34.342 6.10012 34.675 6.39506C35.0038 6.68627 35.1374 7.07333 35.1374 7.48009V15.0556C35.1374 15.4264 35.0239 15.8568 34.6587 16.1548C34.3288 16.4378 33.9302 16.504 33.5788 16.504C33.2216 16.504 32.8157 16.4356 32.4827 16.1406L32.4164 16.0819L32.3993 16.0577C32.3658 16.0235 32.3332 15.9869 32.3023 15.9476C31.9739 16.225 31.5788 16.2903 31.2301 16.2903C30.8729 16.2903 30.467 16.2218 30.134 15.9269C29.8052 15.6357 29.6716 15.2486 29.6716 14.8418V11.7775ZM32.7778 15.069C32.7778 15.2961 32.8377 15.4317 32.9735 15.552L32.9815 15.5633C33.1172 15.6835 33.3073 15.737 33.5788 15.737C33.8504 15.737 34.0404 15.6835 34.1762 15.5633C34.3119 15.4564 34.3798 15.2827 34.3798 15.0556V7.48009C34.3798 7.25296 34.3119 7.09263 34.1762 6.97239C34.0404 6.85214 33.8504 6.7987 33.5788 6.7987C33.3073 6.7987 33.1172 6.85214 32.9815 6.97239C32.8615 7.06685 32.7945 7.21348 32.7806 7.40306C32.7787 7.428 32.7778 7.45369 32.7778 7.48009V9.60444H32.0311V7.57362C32.0311 7.5411 32.0297 7.50995 32.027 7.48009C32.0254 7.46325 32.0234 7.44682 32.0209 7.43078C31.9973 7.27669 31.9329 7.15923 31.8275 7.06591C31.6917 6.94567 31.5017 6.89222 31.2301 6.89222C30.9586 6.89222 30.7685 6.95903 30.6328 7.06591C30.497 7.1728 30.4291 7.34649 30.4291 7.57362V14.8418C30.4291 15.069 30.497 15.2293 30.6328 15.3495C30.7685 15.4698 30.9586 15.5232 31.2301 15.5232C31.5017 15.5232 31.6917 15.4698 31.8275 15.3495C31.9319 15.2674 31.9961 15.1457 32.0203 14.9906C32.0275 14.944 32.0311 14.8943 32.0311 14.8418V10.994H32.7778V15.069Z" fill="#754C29"/>
<path id="Vector_5" d="M19.8566 16.0576C19.5987 16.0576 19.395 16.0042 19.2321 15.8839C19.0828 15.7637 19.0013 15.59 19.0013 15.3762V13.6928H16.0417C15.743 13.6928 15.5258 13.6393 15.3765 13.5191C15.2271 13.3989 15.1457 13.2252 15.1457 13.0114C15.1457 12.7976 15.2271 12.6239 15.3765 12.5037C15.5258 12.3834 15.7566 12.33 16.0417 12.33H23.658C23.9567 12.33 24.1739 12.3834 24.3232 12.5037C24.4726 12.6239 24.554 12.7976 24.554 13.0114C24.554 13.2252 24.4726 13.3989 24.3232 13.5191C24.1739 13.6393 23.9431 13.6928 23.658 13.6928H20.7527V15.3762C20.7527 15.59 20.6712 15.7637 20.5219 15.8839C20.3725 16.0042 20.1689 16.0576 19.8974 16.0576H19.8431H19.8566ZM19.7888 10.7134C19.2593 11.1409 18.5126 11.5016 17.5894 11.7956C17.4265 11.849 17.2772 11.8624 17.1414 11.8624C16.8427 11.8624 16.6255 11.7421 16.4626 11.515C16.3947 11.4215 16.354 11.3146 16.354 11.1943C16.354 11.0741 16.3947 10.9672 16.4762 10.8737C16.5576 10.7802 16.6798 10.7 16.8291 10.6466C17.5758 10.3793 18.1189 10.1121 18.4854 9.87164C18.852 9.63115 19.0285 9.31049 19.0421 8.92303H17.4401C17.1957 8.92303 16.9921 8.86959 16.8427 8.74934C16.6934 8.6291 16.6255 8.46877 16.6255 8.24164C16.6255 8.0145 16.6934 7.85418 16.8427 7.73393C16.9921 7.61368 17.1821 7.56024 17.4401 7.56024H22.3139C22.5719 7.56024 22.762 7.61368 22.9113 7.73393C23.0606 7.85418 23.1285 8.02787 23.1285 8.24164C23.1285 8.45541 23.0606 8.6291 22.9113 8.74934C22.762 8.86959 22.5719 8.92303 22.3139 8.92303H20.7527C20.7527 9.1368 20.7255 9.33721 20.6576 9.53762C21.5808 9.92508 22.3139 10.2858 22.8841 10.6198C23.1421 10.7668 23.2779 10.9539 23.2779 11.181C23.2779 11.3146 23.2235 11.4616 23.1149 11.6085C23.0471 11.7021 22.952 11.7822 22.8298 11.8357C22.7076 11.8891 22.5719 11.9292 22.4361 11.9292C22.2596 11.9292 22.0967 11.8891 21.9474 11.7956C21.2278 11.3948 20.5083 11.034 19.7888 10.7V10.7134Z" fill="#FFB62B"/>
<path id="Vector (Stroke)_5" fill-rule="evenodd" clip-rule="evenodd" d="M18.773 16.4943L18.7606 16.4843C18.4175 16.2081 18.2438 15.8064 18.2438 15.3762V14.4598H16.0417C15.6763 14.4598 15.252 14.3989 14.905 14.1195C14.5619 13.8432 14.3881 13.4416 14.3881 13.0114C14.3881 12.5812 14.5619 12.1796 14.905 11.9033C15.1343 11.7187 15.4029 11.6298 15.6585 11.5905C15.6193 11.4689 15.5964 11.3364 15.5964 11.1943C15.5964 10.8798 15.7094 10.5943 15.908 10.3663C16.0915 10.1556 16.332 10.0109 16.5767 9.92334C16.8099 9.83989 17.0187 9.75763 17.2047 9.67779C16.9248 9.64768 16.6287 9.557 16.3712 9.34969C16.0062 9.0558 15.8679 8.6533 15.8679 8.24163C15.8679 7.82996 16.0062 7.42746 16.3712 7.13357C16.6994 6.86933 17.0785 6.79318 17.4401 6.79318H22.3139C22.6755 6.79318 23.0547 6.86933 23.3828 7.13357C23.7535 7.43204 23.8861 7.85221 23.8861 8.24163C23.8861 8.63105 23.7535 9.05122 23.3828 9.34969C23.1757 9.5165 22.9482 9.60835 22.7176 9.65341C22.9109 9.75507 23.0915 9.8552 23.26 9.95383C23.6531 10.1791 24.0354 10.5781 24.0354 11.181C24.0354 11.3213 24.0125 11.4551 23.9735 11.5805C24.2533 11.6137 24.5442 11.7016 24.7948 11.9033C25.1378 12.1796 25.3116 12.5812 25.3116 13.0114C25.3116 13.4416 25.1378 13.8432 24.7948 14.1195C24.4454 14.4007 24.005 14.4598 23.658 14.4598H21.5103V15.3762C21.5103 15.8064 21.3365 16.2081 20.9934 16.4843C20.6564 16.7557 20.2561 16.8247 19.8974 16.8247H19.8431C19.4865 16.8228 19.1142 16.7461 18.7859 16.5038L18.773 16.4943ZM19.8431 16.0576C19.8476 16.0576 19.8521 16.0576 19.8566 16.0576H19.8974C20.1689 16.0576 20.3725 16.0042 20.5219 15.8839C20.6712 15.7637 20.7527 15.59 20.7527 15.3762V13.6928H23.658C23.9431 13.6928 24.1739 13.6393 24.3232 13.5191C24.4726 13.3989 24.554 13.2252 24.554 13.0114C24.554 12.7976 24.4726 12.6239 24.3232 12.5037C24.1739 12.3834 23.9567 12.33 23.658 12.33H16.0417C15.7566 12.33 15.5258 12.3834 15.3765 12.5037C15.2272 12.6239 15.1457 12.7976 15.1457 13.0114C15.1457 13.2252 15.2272 13.3989 15.3765 13.5191C15.5258 13.6393 15.7431 13.6928 16.0417 13.6928H19.0013V15.3762C19.0013 15.59 19.0828 15.7637 19.2321 15.8839C19.3922 16.0021 19.5915 16.0557 19.8431 16.0576ZM16.4991 11.5629C16.6576 11.759 16.8645 11.8624 17.1414 11.8624C17.2772 11.8624 17.4265 11.849 17.5894 11.7956C17.8199 11.7222 18.0393 11.6447 18.2472 11.5629C18.8669 11.3193 19.3832 11.0387 19.7792 10.721C19.7824 10.7185 19.7856 10.7159 19.7888 10.7134V10.7C19.7984 10.7044 19.8079 10.7089 19.8175 10.7134C20.0605 10.8264 20.3034 10.9425 20.5463 11.0621C20.8714 11.2222 21.1965 11.3888 21.5216 11.5629C21.6635 11.639 21.8054 11.7165 21.9474 11.7956C22.0967 11.8891 22.2596 11.9292 22.4361 11.9292C22.5719 11.9292 22.7077 11.8891 22.8298 11.8357C22.952 11.7822 23.0471 11.702 23.1149 11.6085C23.1262 11.5933 23.1368 11.5781 23.1469 11.5629C23.2342 11.4313 23.2779 11.3008 23.2779 11.181C23.2779 10.9538 23.1421 10.7668 22.8841 10.6198C22.3894 10.33 21.7721 10.0201 21.0143 9.69008C20.9289 9.65287 20.8417 9.61541 20.7527 9.57769C20.7212 9.56436 20.6896 9.55101 20.6576 9.53761C20.7255 9.3372 20.7527 9.1368 20.7527 8.92302H22.3139C22.5719 8.92302 22.762 8.86958 22.9113 8.74934C23.0606 8.62909 23.1285 8.4554 23.1285 8.24163C23.1285 8.02786 23.0606 7.85417 22.9113 7.73392C22.762 7.61368 22.5719 7.56023 22.3139 7.56023H17.4401C17.1821 7.56023 16.9921 7.61368 16.8427 7.73392C16.6934 7.85417 16.6255 8.0145 16.6255 8.24163C16.6255 8.46876 16.6934 8.62909 16.8427 8.74934C16.9921 8.86958 17.1957 8.92302 17.4401 8.92302H19.0421C19.0317 9.21994 18.9256 9.47763 18.7116 9.69008C18.6464 9.75486 18.5711 9.81543 18.4854 9.87163C18.1189 10.1121 17.5758 10.3793 16.8291 10.6466C16.6798 10.7 16.5576 10.7802 16.4762 10.8737C16.3947 10.9672 16.354 11.0741 16.354 11.1943C16.354 11.3146 16.3947 11.4215 16.4626 11.515C16.4745 11.5315 16.4866 11.5475 16.4991 11.5629Z" fill="#754C29"/>
<path id="Vector_6" d="M10.0709 11.6085C9.86722 11.5016 9.63642 11.4482 9.37847 11.4482C9.24271 11.4482 9.12052 11.4616 8.98476 11.4883C8.26522 11.6352 7.55926 11.7288 6.85329 11.7688V10.0453H4.1652V11.8356H2.14234C1.68075 11.8356 1.34135 11.9292 1.11055 12.1162C0.879754 12.3033 0.757568 12.5571 0.757568 12.8778C0.757568 13.1984 0.879754 13.4657 1.11055 13.6393C1.34135 13.8264 1.69433 13.9199 2.14234 13.9199H4.66752C5.72647 13.9199 6.66323 13.8798 7.46422 13.7997C8.26522 13.7195 9.01191 13.5993 9.7043 13.4389C9.9894 13.3721 10.2066 13.2652 10.356 13.1049C10.5053 12.9446 10.5868 12.7575 10.5868 12.5304C10.5868 12.3834 10.5596 12.2365 10.5053 12.1029C10.4238 11.8757 10.2745 11.7154 10.0709 11.6085Z" fill="#FFB62B"/>
<path id="Vector (Stroke)_6" fill-rule="evenodd" clip-rule="evenodd" d="M8.83758 10.7359L8.84021 10.7353C9.01748 10.7004 9.18834 10.6812 9.37848 10.6812C9.74248 10.6812 10.0953 10.7574 10.4195 10.9275C10.774 11.1136 11.059 11.4116 11.2119 11.8259C11.302 12.0535 11.3443 12.2949 11.3443 12.5304C11.3443 12.9699 11.1773 13.3411 10.9071 13.6312C10.6182 13.9413 10.2423 14.1002 9.87511 14.1863L9.87416 14.1865L9.8732 14.1867C9.14594 14.3551 8.3674 14.4801 7.53875 14.563C6.70655 14.6463 5.74392 14.687 4.66753 14.687H2.14235C1.61776 14.687 1.06866 14.5822 0.647792 14.2468C0.207128 13.9095 0 13.4034 0 12.8778C0 12.3304 0.222022 11.8538 0.637145 11.5174C1.05776 11.1765 1.59655 11.0686 2.14235 11.0686H3.40763V9.27829H7.61088V10.9335C8.01512 10.8864 8.42214 10.8207 8.83496 10.7364L8.83758 10.7359ZM7.61088 11.7054C7.35794 11.7334 7.10562 11.7545 6.8533 11.7689V10.0453H4.16521V11.8357H2.14235C1.68076 11.8357 1.34135 11.9292 1.11056 12.1162C0.879762 12.3033 0.757576 12.5571 0.757576 12.8778C0.757576 13.1985 0.879762 13.4657 1.11056 13.6394C1.34135 13.8264 1.69434 13.9199 2.14235 13.9199H4.66753C5.72647 13.9199 6.66323 13.8799 7.46423 13.7997C8.26523 13.7195 9.01192 13.5993 9.70431 13.439C9.98941 13.3722 10.2066 13.2653 10.356 13.1049C10.5053 12.9446 10.5868 12.7576 10.5868 12.5304C10.5868 12.3835 10.5596 12.2365 10.5053 12.1029C10.4238 11.8758 10.2745 11.7154 10.0709 11.6085C9.86722 11.5017 9.63643 11.4482 9.37848 11.4482C9.24272 11.4482 9.12053 11.4616 8.98477 11.4883C8.5224 11.5827 8.06564 11.6551 7.61088 11.7054Z" fill="#754C29"/>
<path id="Vector_7" d="M15.447 6.99909C15.2298 6.81204 14.9311 6.71851 14.5374 6.71851H13.7093V3.39171C13.7093 3.05769 13.5871 2.79048 13.3563 2.61679C13.1255 2.42974 12.7997 2.33621 12.406 2.33621H12.3245C11.9172 2.33621 11.605 2.42974 11.3742 2.61679C11.1434 2.80384 11.0212 3.05769 11.0212 3.39171V14.9353C11.0212 15.2693 11.1434 15.5366 11.3742 15.7103C11.605 15.8973 11.9308 15.9908 12.3245 15.9908H12.406C12.8132 15.9908 13.1255 15.8973 13.3563 15.7103C13.5871 15.5232 13.7093 15.2693 13.7093 14.9353V8.8295H14.5374C14.9311 8.8295 15.2298 8.73598 15.447 8.54893C15.6642 8.36188 15.7593 8.10803 15.7593 7.77401C15.7593 7.43999 15.6507 7.18614 15.447 6.99909Z" fill="#FFB62B"/>
<path id="Vector (Stroke)_7" fill-rule="evenodd" clip-rule="evenodd" d="M15.9471 6.42272L15.956 6.43097C16.3373 6.78118 16.5169 7.25154 16.5169 7.774C16.5169 8.2714 16.3657 8.76478 15.9378 9.13323C15.5415 9.47453 15.0466 9.59655 14.5374 9.59655H14.4669V14.9353C14.4669 15.4903 14.2492 15.9691 13.8297 16.3091C13.4238 16.6381 12.9246 16.7579 12.406 16.7579H12.3245C11.8273 16.7579 11.3175 16.6417 10.9113 16.3175C10.4666 15.9771 10.2636 15.4682 10.2636 14.9353V3.3917C10.2636 2.83673 10.4813 2.35789 10.9008 2.01794C11.3067 1.68894 11.8059 1.56915 12.3245 1.56915H12.406C12.9032 1.56915 13.4129 1.68528 13.8192 2.00949C14.2639 2.34989 14.4669 2.85882 14.4669 3.3917V5.95146H14.5374C15.0466 5.95146 15.5415 6.07347 15.9378 6.41477L15.9471 6.42272ZM13.3563 2.61678C13.1255 2.42973 12.7997 2.33621 12.406 2.33621H12.3245C11.9172 2.33621 11.605 2.42973 11.3742 2.61678C11.1434 2.80383 11.0212 3.05768 11.0212 3.3917V14.9353C11.0212 15.2693 11.1434 15.5366 11.3742 15.7102C11.605 15.8973 11.9308 15.9908 12.3245 15.9908H12.406C12.8132 15.9908 13.1255 15.8973 13.3563 15.7102C13.5871 15.5232 13.7093 15.2693 13.7093 14.9353V8.82949H14.5374C14.9311 8.82949 15.2298 8.73597 15.447 8.54892C15.6643 8.36187 15.7593 8.10802 15.7593 7.774C15.7593 7.43998 15.6507 7.18613 15.447 6.99908C15.2298 6.81203 14.9311 6.71851 14.5374 6.71851H13.7093V3.3917C13.7093 3.05768 13.5871 2.79047 13.3563 2.61678Z" fill="#754C29"/>
<path id="Vector_8" d="M8.83545 2.80383L8.07518 1.50784L7.31491 2.80383L6.55464 4.09981H3.8937L3.13343 2.80383L2.35959 1.50784L1.59932 2.80383L0.83905 4.09981V8.44203C0.83905 8.98982 1.05627 9.41736 1.47713 9.73802C1.898 10.0587 2.4682 10.219 3.18774 10.219H7.38279C8.10233 10.219 8.64538 10.0587 9.02551 9.73802C9.40565 9.41736 9.60929 8.98982 9.60929 8.44203V4.09981L8.84902 2.80383H8.83545Z" fill="#FFB62B"/>
<path id="Vector (Stroke)_8" fill-rule="evenodd" clip-rule="evenodd" d="M3.13344 2.80384L3.89371 4.09982H6.55465L8.07519 1.50785L8.83545 2.80384H8.84903L9.6093 4.09982V8.44204C9.6093 8.98983 9.40566 9.41737 9.02552 9.73803C8.64539 10.0587 8.10234 10.219 7.3828 10.219H3.18774C2.4682 10.219 1.898 10.0587 1.47714 9.73803C1.05628 9.41737 0.839058 8.98983 0.839058 8.44204V4.09982L2.3596 1.50785L3.13344 2.80384ZM9.26661 2.03678H9.28019L10.3669 3.8892V8.44204C10.3669 9.21203 10.0675 9.8575 9.51043 10.3274C8.9452 10.8042 8.20317 10.9861 7.3828 10.9861H3.18774C2.36313 10.9861 1.61435 10.8025 1.02163 10.3509C0.41307 9.88727 0.0814819 9.23398 0.0814819 8.44204V3.8892L2.35384 0.0156321L3.78327 2.40955L4.32487 3.33277H6.12349L8.07519 0.00582886L9.26661 2.03678Z" fill="#754C29"/>
<g id="Group 33623">
<path id="Vector_9" d="M4.47749 7.29855H6.16094C6.56823 7.29855 6.90764 7.63257 6.90764 8.03339V8.55446C6.90764 8.64798 6.82618 8.72815 6.73115 8.72815H3.89371C3.79868 8.72815 3.71722 8.64798 3.71722 8.55446V8.03339C3.71722 7.63257 4.05663 7.29855 4.46392 7.29855H4.47749Z" fill="#754C29"/>
<path id="Ellipse 38" d="M3.10607 6.00219C3.10607 6.13987 2.99584 6.25148 2.85986 6.25148C2.72388 6.25148 2.61365 6.13987 2.61365 6.00219C2.61365 5.86451 2.72388 5.7529 2.85986 5.7529C2.99584 5.7529 3.10607 5.86451 3.10607 6.00219Z" fill="#754C29"/>
<path id="Ellipse 39" d="M8.03033 6.00219C8.03033 6.13987 7.92009 6.25148 7.78411 6.25148C7.64814 6.25148 7.5379 6.13987 7.5379 6.00219C7.5379 5.86451 7.64814 5.7529 7.78411 5.7529C7.92009 5.7529 8.03033 5.86451 8.03033 6.00219Z" fill="#754C29"/>
</g>
</g>
</svg>
