<svg width="52" height="20" viewBox="0 0 52 20" fill="none" xmlns="http://www.w3.org/2000/svg">
<mask id="path-1-outside-1_2102_2629" maskUnits="userSpaceOnUse" x="24.7944" y="0.562042" width="27" height="19" fill="black">
<rect fill="white" x="24.7944" y="0.562042" width="27" height="19"/>
<path d="M25.7944 13.7688C25.7944 13.5552 25.8855 13.3666 26.0665 13.204C26.8685 12.443 27.4684 11.7015 27.866 10.9773C28.2637 10.2532 28.4614 9.50843 28.4614 8.73982C28.4614 8.60648 28.4003 8.54035 28.2804 8.54035H26.8952C26.5775 8.54035 26.3376 8.4688 26.1743 8.32462C26.011 8.18044 25.9299 7.97555 25.9299 7.70996C25.9299 7.44436 26.011 7.23947 26.1743 7.09529C26.3365 6.95111 26.5775 6.87956 26.8952 6.87956H29.279C29.5434 6.87956 29.76 6.96412 29.9255 7.13432C30.0921 7.30452 30.1754 7.53325 30.1754 7.82053V8.27476C30.1754 9.5377 29.9333 10.651 29.4489 11.6148C28.9646 12.5785 28.2382 13.4924 27.2695 14.3564C27.0729 14.5266 26.8641 14.6111 26.6453 14.6111C26.4264 14.6111 26.2409 14.5266 26.0665 14.3564C25.8855 14.1645 25.7944 13.9683 25.7944 13.7688ZM33.6378 16.8486C33.4945 16.7088 33.4223 16.5017 33.4223 16.2286V11.2765H32.6159V15.951C32.6159 16.2242 32.5437 16.4313 32.4004 16.5711C32.2571 16.711 32.0449 16.7814 31.765 16.7814C31.4851 16.7814 31.2729 16.711 31.1296 16.5711C30.9863 16.4313 30.9141 16.2242 30.9141 15.951V7.14516C30.9141 6.87197 30.9863 6.66492 31.1296 6.52507C31.2729 6.38523 31.4851 6.31476 31.765 6.31476C32.0449 6.31476 32.2571 6.38523 32.4004 6.52507C32.5437 6.66492 32.6159 6.87197 32.6159 7.14516V9.61466H33.4223V7.0335C33.4223 6.76031 33.4945 6.55326 33.6378 6.41341C33.7811 6.27357 33.9933 6.2031 34.2732 6.2031C34.5531 6.2031 34.7653 6.27357 34.9086 6.41341C35.0519 6.55326 35.1241 6.76031 35.1241 7.0335V16.2275C35.1241 16.5007 35.0519 16.7077 34.9086 16.8476C34.7653 16.9874 34.5531 17.0579 34.2732 17.0579C33.9933 17.0579 33.7811 16.9874 33.6378 16.8476V16.8486Z"/>
<path fill-rule="evenodd" clip-rule="evenodd" d="M36.2618 4.12309C35.8415 5.41713 35.842 6.45888 36.2638 7.25174L36.2628 7.25468C36.6845 8.04754 37.5695 8.65147 38.9157 9.06746C39.6251 9.28665 40.2713 9.43936 40.8544 9.5256C41.4375 9.61183 42.0285 9.65351 42.6288 9.65109C42.9255 9.64236 43.1723 9.57283 43.368 9.44054C43.5638 9.30826 43.6992 9.12655 43.7742 8.89542C43.8168 8.7644 43.8413 8.60189 43.8488 8.40496C43.8453 8.13981 43.7782 7.91173 43.6471 7.72219C43.516 7.53266 43.3327 7.40151 43.0958 7.32829C42.9735 7.29052 42.816 7.26937 42.6247 7.26533C41.6384 7.26996 40.7554 7.15099 39.9736 6.90942C39.4091 6.735 39.0354 6.48991 38.8553 6.17508C38.6737 5.85978 38.6724 5.4139 38.8473 4.83943L39.3696 3.18004C39.4867 2.81936 39.4654 2.50661 39.3086 2.24272C39.1504 1.97836 38.8816 1.7884 38.5013 1.67087L38.4243 1.64709C38.044 1.52957 37.7106 1.53346 37.4266 1.66117C37.1412 1.78841 36.9407 2.03261 36.8235 2.39329L36.2618 4.12309ZM36.2671 14.9733C36.45 15.6324 36.8195 16.2179 37.3766 16.7319C37.9338 17.2459 38.6392 17.6355 39.4919 17.899C40.3446 18.1625 41.1544 18.2411 41.9179 18.1352C42.6833 18.0283 43.334 17.758 43.8706 17.3228C44.4087 16.8881 44.7867 16.3326 45.0142 15.6319C45.2418 14.9311 45.2644 14.248 45.0844 13.5849C44.903 12.9214 44.535 12.3314 43.9797 11.8116C43.4245 11.2917 42.7044 10.8959 41.8517 10.6324C40.999 10.3689 40.1918 10.2928 39.431 10.406C38.6701 10.5191 38.0195 10.7943 37.481 11.2354C36.9415 11.6745 36.5549 12.2565 36.3302 12.9484C36.1055 13.6403 36.0853 14.3161 36.2671 14.9733ZM44.2789 11.1767C44.4372 11.441 44.706 11.631 45.0863 11.7485L45.0868 11.7471L45.1637 11.7708C45.5441 11.8884 45.8775 11.8845 46.1614 11.7568C46.4468 11.6295 46.6474 11.3853 46.7645 11.0246L46.8132 10.8745L47.5996 11.1175C47.9693 11.2317 48.2871 11.2197 48.5528 11.0816C48.8186 10.9434 49.008 10.6974 49.1218 10.347C49.2356 9.99662 49.2259 9.68907 49.0902 9.42683C48.9545 9.16459 48.7017 8.97634 48.332 8.86208L47.5457 8.61911L47.7412 8.01699L48.5275 8.25996C48.8973 8.37422 49.215 8.36226 49.4808 8.22407C49.7465 8.08588 49.936 7.83989 50.0498 7.48951C50.1636 7.13913 50.1538 6.83158 50.0181 6.56934C49.8824 6.3071 49.6297 6.11885 49.2599 6.00459L48.4736 5.76162L48.5568 5.50546C48.6739 5.14478 48.6526 4.83203 48.4959 4.56814C48.3376 4.30379 48.0688 4.11382 47.6885 3.99629L47.6115 3.97251C47.2312 3.85499 46.8978 3.85888 46.6139 3.98659C46.3284 4.11383 46.1279 4.35803 46.0108 4.71871L44.218 10.2394C44.1008 10.6 44.1206 10.9123 44.2789 11.1767ZM36.804 14.6674L36.8125 14.6562L38.059 15.5663C38.0653 15.5765 38.0718 15.5865 38.0786 15.5963L36.804 14.6674ZM38.0786 15.5963L38.5152 15.9145C38.3385 15.8387 38.1794 15.7414 38.0786 15.5963ZM38.5633 15.9345C38.5471 15.928 38.5311 15.9213 38.5152 15.9145L40.0313 17.0195C40.1198 17.1089 40.2167 17.1851 40.3262 17.2344L41.5987 18.1618L41.6042 18.1545L41.6142 18.1618L44.7335 14.0281L44.725 14.0219L44.7335 14.0107L43.4007 13.0394C43.3893 13.0205 43.3764 13.0022 43.3621 12.9847C43.2914 12.8981 43.1933 12.8381 43.0782 12.8043L41.593 11.7219C41.5259 11.6263 41.438 11.5539 41.3317 11.5141C41.3175 11.5089 41.3032 11.5042 41.2889 11.5002L39.9389 10.5163L39.9334 10.5236L39.9234 10.5163L36.8041 14.6501L36.8125 14.6562L39.9334 10.5236L41.2618 11.4935C40.895 11.4127 40.4647 11.7373 40.2735 12.2562C40.07 12.8084 40.214 13.3713 40.596 13.5142C40.9764 13.6566 41.4507 13.3244 41.6542 12.7722C41.796 12.3874 41.769 11.9975 41.6105 11.748L43.0451 12.7954C42.7533 12.7243 42.3628 12.8123 42.0257 13.0522L42.0262 13.0508C41.5396 13.3972 41.347 13.9263 41.5983 14.2363C41.8485 14.5443 42.448 14.5152 42.9346 14.1687C43.3808 13.8511 43.5797 13.3799 43.4157 13.066L44.725 14.0219L41.6042 18.1545L40.3669 17.2512C40.5022 17.3022 40.6565 17.3119 40.8374 17.2566C41.6133 17.0194 41.4031 14.9137 40.7671 14.4582L40.7666 14.4596C40.1306 14.0041 37.9772 14.4206 37.9668 15.2041C37.9648 15.3501 37.9992 15.4685 38.059 15.5663L38.5633 15.9345ZM39.9897 16.9758L38.5633 15.9345C38.6706 15.9776 38.7829 16.0139 38.8913 16.049C39.0835 16.1111 39.2638 16.1694 39.3835 16.2551C39.503 16.3407 39.6129 16.4898 39.7301 16.6489C39.8112 16.7591 39.8959 16.874 39.9897 16.9758ZM39.9897 16.9758C40.0034 16.9907 40.0172 17.0053 40.0313 17.0195L40.3262 17.2344C40.3396 17.2404 40.3531 17.246 40.3669 17.2512L39.9897 16.9758ZM43.4157 13.066L43.0451 12.7954C43.0563 12.7982 43.0673 12.8011 43.0782 12.8043L43.4007 13.0394C43.406 13.0481 43.411 13.057 43.4157 13.066ZM41.6105 11.748L41.2618 11.4935C41.2709 11.4955 41.2799 11.4977 41.2889 11.5002L41.593 11.7219C41.599 11.7304 41.6048 11.7391 41.6105 11.748ZM39.6038 13.2688C39.5595 13.7875 39.2244 14.169 38.8548 14.1208C38.4852 14.0726 38.2219 13.6148 38.2678 13.0965C38.3121 12.5778 38.6488 12.1968 39.0168 12.2445C39.3848 12.2922 39.6482 12.75 39.6038 13.2688ZM41.6382 15.6268C41.5385 15.2869 41.884 14.9195 42.41 14.8062C42.9364 14.6915 43.4434 14.8749 43.5436 15.2134C43.6433 15.5533 43.2977 15.9207 42.7717 16.034C42.2453 16.1487 41.7378 15.9667 41.6382 15.6268Z"/>
</mask>
<path d="M25.7944 13.7688C25.7944 13.5552 25.8855 13.3666 26.0665 13.204C26.8685 12.443 27.4684 11.7015 27.866 10.9773C28.2637 10.2532 28.4614 9.50843 28.4614 8.73982C28.4614 8.60648 28.4003 8.54035 28.2804 8.54035H26.8952C26.5775 8.54035 26.3376 8.4688 26.1743 8.32462C26.011 8.18044 25.9299 7.97555 25.9299 7.70996C25.9299 7.44436 26.011 7.23947 26.1743 7.09529C26.3365 6.95111 26.5775 6.87956 26.8952 6.87956H29.279C29.5434 6.87956 29.76 6.96412 29.9255 7.13432C30.0921 7.30452 30.1754 7.53325 30.1754 7.82053V8.27476C30.1754 9.5377 29.9333 10.651 29.4489 11.6148C28.9646 12.5785 28.2382 13.4924 27.2695 14.3564C27.0729 14.5266 26.8641 14.6111 26.6453 14.6111C26.4264 14.6111 26.2409 14.5266 26.0665 14.3564C25.8855 14.1645 25.7944 13.9683 25.7944 13.7688ZM33.6378 16.8486C33.4945 16.7088 33.4223 16.5017 33.4223 16.2286V11.2765H32.6159V15.951C32.6159 16.2242 32.5437 16.4313 32.4004 16.5711C32.2571 16.711 32.0449 16.7814 31.765 16.7814C31.4851 16.7814 31.2729 16.711 31.1296 16.5711C30.9863 16.4313 30.9141 16.2242 30.9141 15.951V7.14516C30.9141 6.87197 30.9863 6.66492 31.1296 6.52507C31.2729 6.38523 31.4851 6.31476 31.765 6.31476C32.0449 6.31476 32.2571 6.38523 32.4004 6.52507C32.5437 6.66492 32.6159 6.87197 32.6159 7.14516V9.61466H33.4223V7.0335C33.4223 6.76031 33.4945 6.55326 33.6378 6.41341C33.7811 6.27357 33.9933 6.2031 34.2732 6.2031C34.5531 6.2031 34.7653 6.27357 34.9086 6.41341C35.0519 6.55326 35.1241 6.76031 35.1241 7.0335V16.2275C35.1241 16.5007 35.0519 16.7077 34.9086 16.8476C34.7653 16.9874 34.5531 17.0579 34.2732 17.0579C33.9933 17.0579 33.7811 16.9874 33.6378 16.8476V16.8486Z" fill="#FFD233"/>
<path fill-rule="evenodd" clip-rule="evenodd" d="M36.2618 4.12309C35.8415 5.41713 35.842 6.45888 36.2638 7.25174L36.2628 7.25468C36.6845 8.04754 37.5695 8.65147 38.9157 9.06746C39.6251 9.28665 40.2713 9.43936 40.8544 9.5256C41.4375 9.61183 42.0285 9.65351 42.6288 9.65109C42.9255 9.64236 43.1723 9.57283 43.368 9.44054C43.5638 9.30826 43.6992 9.12655 43.7742 8.89542C43.8168 8.7644 43.8413 8.60189 43.8488 8.40496C43.8453 8.13981 43.7782 7.91173 43.6471 7.72219C43.516 7.53266 43.3327 7.40151 43.0958 7.32829C42.9735 7.29052 42.816 7.26937 42.6247 7.26533C41.6384 7.26996 40.7554 7.15099 39.9736 6.90942C39.4091 6.735 39.0354 6.48991 38.8553 6.17508C38.6737 5.85978 38.6724 5.4139 38.8473 4.83943L39.3696 3.18004C39.4867 2.81936 39.4654 2.50661 39.3086 2.24272C39.1504 1.97836 38.8816 1.7884 38.5013 1.67087L38.4243 1.64709C38.044 1.52957 37.7106 1.53346 37.4266 1.66117C37.1412 1.78841 36.9407 2.03261 36.8235 2.39329L36.2618 4.12309ZM36.2671 14.9733C36.45 15.6324 36.8195 16.2179 37.3766 16.7319C37.9338 17.2459 38.6392 17.6355 39.4919 17.899C40.3446 18.1625 41.1544 18.2411 41.9179 18.1352C42.6833 18.0283 43.334 17.758 43.8706 17.3228C44.4087 16.8881 44.7867 16.3326 45.0142 15.6319C45.2418 14.9311 45.2644 14.248 45.0844 13.5849C44.903 12.9214 44.535 12.3314 43.9797 11.8116C43.4245 11.2917 42.7044 10.8959 41.8517 10.6324C40.999 10.3689 40.1918 10.2928 39.431 10.406C38.6701 10.5191 38.0195 10.7943 37.481 11.2354C36.9415 11.6745 36.5549 12.2565 36.3302 12.9484C36.1055 13.6403 36.0853 14.3161 36.2671 14.9733ZM44.2789 11.1767C44.4372 11.441 44.706 11.631 45.0863 11.7485L45.0868 11.7471L45.1637 11.7708C45.5441 11.8884 45.8775 11.8845 46.1614 11.7568C46.4468 11.6295 46.6474 11.3853 46.7645 11.0246L46.8132 10.8745L47.5996 11.1175C47.9693 11.2317 48.2871 11.2197 48.5528 11.0816C48.8186 10.9434 49.008 10.6974 49.1218 10.347C49.2356 9.99662 49.2259 9.68907 49.0902 9.42683C48.9545 9.16459 48.7017 8.97634 48.332 8.86208L47.5457 8.61911L47.7412 8.01699L48.5275 8.25996C48.8973 8.37422 49.215 8.36226 49.4808 8.22407C49.7465 8.08588 49.936 7.83989 50.0498 7.48951C50.1636 7.13913 50.1538 6.83158 50.0181 6.56934C49.8824 6.3071 49.6297 6.11885 49.2599 6.00459L48.4736 5.76162L48.5568 5.50546C48.6739 5.14478 48.6526 4.83203 48.4959 4.56814C48.3376 4.30379 48.0688 4.11382 47.6885 3.99629L47.6115 3.97251C47.2312 3.85499 46.8978 3.85888 46.6139 3.98659C46.3284 4.11383 46.1279 4.35803 46.0108 4.71871L44.218 10.2394C44.1008 10.6 44.1206 10.9123 44.2789 11.1767ZM36.804 14.6674L36.8125 14.6562L38.059 15.5663C38.0653 15.5765 38.0718 15.5865 38.0786 15.5963L36.804 14.6674ZM38.0786 15.5963L38.5152 15.9145C38.3385 15.8387 38.1794 15.7414 38.0786 15.5963ZM38.5633 15.9345C38.5471 15.928 38.5311 15.9213 38.5152 15.9145L40.0313 17.0195C40.1198 17.1089 40.2167 17.1851 40.3262 17.2344L41.5987 18.1618L41.6042 18.1545L41.6142 18.1618L44.7335 14.0281L44.725 14.0219L44.7335 14.0107L43.4007 13.0394C43.3893 13.0205 43.3764 13.0022 43.3621 12.9847C43.2914 12.8981 43.1933 12.8381 43.0782 12.8043L41.593 11.7219C41.5259 11.6263 41.438 11.5539 41.3317 11.5141C41.3175 11.5089 41.3032 11.5042 41.2889 11.5002L39.9389 10.5163L39.9334 10.5236L39.9234 10.5163L36.8041 14.6501L36.8125 14.6562L39.9334 10.5236L41.2618 11.4935C40.895 11.4127 40.4647 11.7373 40.2735 12.2562C40.07 12.8084 40.214 13.3713 40.596 13.5142C40.9764 13.6566 41.4507 13.3244 41.6542 12.7722C41.796 12.3874 41.769 11.9975 41.6105 11.748L43.0451 12.7954C42.7533 12.7243 42.3628 12.8123 42.0257 13.0522L42.0262 13.0508C41.5396 13.3972 41.347 13.9263 41.5983 14.2363C41.8485 14.5443 42.448 14.5152 42.9346 14.1687C43.3808 13.8511 43.5797 13.3799 43.4157 13.066L44.725 14.0219L41.6042 18.1545L40.3669 17.2512C40.5022 17.3022 40.6565 17.3119 40.8374 17.2566C41.6133 17.0194 41.4031 14.9137 40.7671 14.4582L40.7666 14.4596C40.1306 14.0041 37.9772 14.4206 37.9668 15.2041C37.9648 15.3501 37.9992 15.4685 38.059 15.5663L38.5633 15.9345ZM39.9897 16.9758L38.5633 15.9345C38.6706 15.9776 38.7829 16.0139 38.8913 16.049C39.0835 16.1111 39.2638 16.1694 39.3835 16.2551C39.503 16.3407 39.6129 16.4898 39.7301 16.6489C39.8112 16.7591 39.8959 16.874 39.9897 16.9758ZM39.9897 16.9758C40.0034 16.9907 40.0172 17.0053 40.0313 17.0195L40.3262 17.2344C40.3396 17.2404 40.3531 17.246 40.3669 17.2512L39.9897 16.9758ZM43.4157 13.066L43.0451 12.7954C43.0563 12.7982 43.0673 12.8011 43.0782 12.8043L43.4007 13.0394C43.406 13.0481 43.411 13.057 43.4157 13.066ZM41.6105 11.748L41.2618 11.4935C41.2709 11.4955 41.2799 11.4977 41.2889 11.5002L41.593 11.7219C41.599 11.7304 41.6048 11.7391 41.6105 11.748ZM39.6038 13.2688C39.5595 13.7875 39.2244 14.169 38.8548 14.1208C38.4852 14.0726 38.2219 13.6148 38.2678 13.0965C38.3121 12.5778 38.6488 12.1968 39.0168 12.2445C39.3848 12.2922 39.6482 12.75 39.6038 13.2688ZM41.6382 15.6268C41.5385 15.2869 41.884 14.9195 42.41 14.8062C42.9364 14.6915 43.4434 14.8749 43.5436 15.2134C43.6433 15.5533 43.2977 15.9207 42.7717 16.034C42.2453 16.1487 41.7378 15.9667 41.6382 15.6268Z" fill="#FFD233"/>
<path d="M26.0665 13.204L26.7347 13.948L26.7449 13.9389L26.7548 13.9294L26.0665 13.204ZM26.1743 7.09529L26.8362 7.8449L26.8387 7.84265L26.1743 7.09529ZM29.9255 7.13432L29.2086 7.83149L29.2109 7.83388L29.9255 7.13432ZM27.2695 14.3564L27.924 15.1124L27.9296 15.1076L27.9352 15.1026L27.2695 14.3564ZM26.0665 14.3564L25.3392 15.0427L25.3533 15.0577L25.3681 15.072L26.0665 14.3564ZM33.6378 16.8486L32.9394 17.5643L34.6378 19.2219V16.8486H33.6378ZM33.4223 11.2765H34.4223V10.2765H33.4223V11.2765ZM32.6159 11.2765V10.2765H31.6159V11.2765H32.6159ZM32.6159 9.61466H31.6159V10.6147H32.6159V9.61466ZM33.4223 9.61466V10.6147H34.4223V9.61466H33.4223ZM33.6378 16.8476L34.3363 16.1319L32.6378 14.4743V16.8476H33.6378ZM36.2638 7.25174L37.2149 7.56047L37.3459 7.15681L37.1466 6.78213L36.2638 7.25174ZM36.2618 4.12309L35.3107 3.81423L35.3107 3.81423L36.2618 4.12309ZM36.2628 7.25468L35.3116 6.94595L35.1806 7.34961L35.3799 7.7243L36.2628 7.25468ZM38.9157 9.06746L38.6205 10.0229L38.6205 10.0229L38.9157 9.06746ZM40.8544 9.5256L41.0007 8.53636L41.0007 8.53636L40.8544 9.5256ZM42.6288 9.65109L42.6328 10.6511L42.6455 10.651L42.6582 10.6507L42.6288 9.65109ZM43.368 9.44054L43.928 10.2691L43.928 10.2691L43.368 9.44054ZM43.7742 8.89542L44.7253 9.20429L44.7253 9.20429L43.7742 8.89542ZM43.8488 8.40496L44.8481 8.44297L44.8491 8.41724L44.8487 8.3915L43.8488 8.40496ZM43.0958 7.32829L42.8005 8.28372L42.8005 8.28372L43.0958 7.32829ZM42.6247 7.26533L42.6458 6.26555L42.6329 6.26528L42.62 6.26534L42.6247 7.26533ZM39.9736 6.90942L39.6784 7.86484L39.6784 7.86484L39.9736 6.90942ZM38.8553 6.17508L39.7233 5.67858L39.7219 5.67601L38.8553 6.17508ZM38.8473 4.83943L37.8934 4.53919L37.8907 4.54812L38.8473 4.83943ZM39.3696 3.18004L38.4184 2.87116L38.4157 2.87982L39.3696 3.18004ZM39.3086 2.24272L40.1684 1.73199L40.1666 1.72904L39.3086 2.24272ZM38.5013 1.67087L38.206 2.6263L38.206 2.6263L38.5013 1.67087ZM38.4243 1.64709L38.7195 0.691665L38.7195 0.691664L38.4243 1.64709ZM37.4266 1.66117L37.8338 2.57453L37.8368 2.57316L37.4266 1.66117ZM36.8235 2.39329L37.7746 2.70216L37.7746 2.70216L36.8235 2.39329ZM37.3766 16.7319L36.6986 17.4669L36.6986 17.4669L37.3766 16.7319ZM36.2671 14.9733L35.3034 15.2399L35.3035 15.2406L36.2671 14.9733ZM39.4919 17.899L39.1967 18.8545L39.1967 18.8545L39.4919 17.899ZM41.9179 18.1352L42.0553 19.1257L42.0562 19.1256L41.9179 18.1352ZM43.8706 17.3228L43.2421 16.5449L43.2407 16.5461L43.8706 17.3228ZM45.0844 13.5849L46.0495 13.3231L46.049 13.3212L45.0844 13.5849ZM43.9797 11.8116L44.6632 11.0816L44.6632 11.0816L43.9797 11.8116ZM37.481 11.2354L38.1123 12.011L38.1147 12.009L37.481 11.2354ZM36.3302 12.9484L37.2813 13.2573L37.2813 13.2573L36.3302 12.9484ZM45.0863 11.7485L44.7911 12.704L45.7326 12.9949L46.0373 12.0577L45.0863 11.7485ZM44.2789 11.1767L45.1369 10.663L45.1369 10.663L44.2789 11.1767ZM45.0868 11.7471L45.382 10.7916L44.4405 10.5007L44.1358 11.4379L45.0868 11.7471ZM45.1637 11.7708L45.459 10.8154L45.459 10.8154L45.1637 11.7708ZM46.1614 11.7568L45.7542 10.8434L45.7512 10.8448L46.1614 11.7568ZM46.7645 11.0246L45.8134 10.7158L45.8134 10.7158L46.7645 11.0246ZM46.8132 10.8745L47.1085 9.91905L46.1666 9.62801L45.8621 10.5656L46.8132 10.8745ZM47.5996 11.1175L47.8948 10.162L47.8948 10.162L47.5996 11.1175ZM48.5528 11.0816L48.0915 10.1943L48.0914 10.1943L48.5528 11.0816ZM49.1218 10.347L50.0729 10.6559L50.0729 10.6559L49.1218 10.347ZM49.0902 9.42683L49.9783 8.96724L49.9783 8.96724L49.0902 9.42683ZM48.332 8.86208L48.6272 7.90666L48.6272 7.90666L48.332 8.86208ZM47.5457 8.61911L46.5946 8.31024L46.2813 9.27505L47.2504 9.57453L47.5457 8.61911ZM47.7412 8.01699L48.0364 7.06156L47.0946 6.77052L46.7901 7.70812L47.7412 8.01699ZM48.5275 8.25996L48.8227 7.30454L48.8227 7.30454L48.5275 8.25996ZM50.0498 7.48951L51.0009 7.79838L51.0009 7.79838L50.0498 7.48951ZM50.0181 6.56934L49.13 7.02894L49.13 7.02894L50.0181 6.56934ZM49.2599 6.00459L48.9647 6.96002L48.9647 6.96002L49.2599 6.00459ZM48.4736 5.76162L47.5225 5.45276L47.2092 6.41756L48.1784 6.71704L48.4736 5.76162ZM48.5568 5.50546L47.6057 5.19659L47.6057 5.1966L48.5568 5.50546ZM48.4959 4.56814L49.3556 4.05741L49.3538 4.05446L48.4959 4.56814ZM47.6885 3.99629L47.9837 3.04087L47.9837 3.04087L47.6885 3.99629ZM47.6115 3.97251L47.3163 4.92793L47.3163 4.92794L47.6115 3.97251ZM46.6139 3.98659L47.021 4.89995L47.0241 4.89858L46.6139 3.98659ZM46.0108 4.71871L46.9619 5.02758L46.9619 5.02758L46.0108 4.71871ZM44.218 10.2394L43.2669 9.93049L43.2669 9.93049L44.218 10.2394ZM36.804 14.6674L36.006 14.0648L35.3931 14.8765L36.2151 15.4755L36.804 14.6674ZM41.5987 18.1618L41.0097 18.9699L41.8041 19.549L42.3966 18.7645L41.5987 18.1618ZM41.6142 18.1618L41.0245 18.9695L41.8195 19.5498L42.4124 18.7642L41.6142 18.1618ZM44.7335 14.0281L45.5317 14.6304L46.1437 13.8195L45.3232 13.2204L44.7335 14.0281ZM44.7335 14.0107L45.5315 14.6134L46.1445 13.8017L45.3225 13.2026L44.7335 14.0107ZM43.3621 12.9847L42.5873 13.6169L42.5873 13.617L43.3621 12.9847ZM41.3317 11.5141L40.9811 12.4507L40.9812 12.4507L41.3317 11.5141ZM39.9389 10.5163L40.5279 9.70817L39.7334 9.12914L39.1409 9.91364L39.9389 10.5163ZM39.9234 10.5163L40.5131 9.70871L39.7181 9.12825L39.1252 9.91399L39.9234 10.5163ZM36.8041 14.6501L36.0058 14.0477L35.3939 14.8586L36.2144 15.4577L36.8041 14.6501ZM40.2735 12.2562L41.2118 12.602L41.2118 12.602L40.2735 12.2562ZM40.596 13.5142L40.9466 12.5777L40.9464 12.5776L40.596 13.5142ZM41.6542 12.7722L40.7159 12.4264L40.7159 12.4264L41.6542 12.7722ZM42.0257 13.0522L41.0704 12.7567L40.1965 15.5821L42.6057 13.8669L42.0257 13.0522ZM42.0262 13.0508L42.9815 13.3463L43.8555 10.5209L41.4462 12.2362L42.0262 13.0508ZM41.5983 14.2363L40.8216 14.8661L40.8222 14.8668L41.5983 14.2363ZM42.9346 14.1687L42.3547 13.3541L42.3547 13.3541L42.9346 14.1687ZM40.8374 17.2566L40.5451 16.3003L40.5451 16.3003L40.8374 17.2566ZM40.7671 14.4582L41.3493 13.6451L40.2221 12.8379L39.8119 14.1622L40.7671 14.4582ZM40.7666 14.4596L40.1844 15.2726L41.3116 16.0798L41.7218 14.7555L40.7666 14.4596ZM37.9668 15.2041L38.9667 15.2175L38.9667 15.2175L37.9668 15.2041ZM38.8913 16.049L39.199 15.0975L39.199 15.0975L38.8913 16.049ZM39.3835 16.2551L38.8014 17.0682L38.8014 17.0682L39.3835 16.2551ZM39.7301 16.6489L40.5352 16.0558L40.5352 16.0558L39.7301 16.6489ZM39.6038 13.2688L38.6075 13.1836L38.6075 13.1836L39.6038 13.2688ZM38.2678 13.0965L39.2639 13.1847L39.2641 13.1817L38.2678 13.0965ZM39.0168 12.2445L38.8882 13.2362L38.8882 13.2362L39.0168 12.2445ZM42.41 14.8062L42.6206 15.7838L42.6229 15.7833L42.41 14.8062ZM41.6382 15.6268L40.6786 15.9082L40.6786 15.9082L41.6382 15.6268ZM43.5436 15.2134L44.5032 14.9319L44.5025 14.9297L43.5436 15.2134ZM42.7717 16.034L42.5612 15.0564L42.5588 15.0569L42.7717 16.034ZM26.7944 13.7688C26.7944 13.8095 26.7845 13.8577 26.7633 13.9016C26.7436 13.9425 26.7254 13.9564 26.7347 13.948L25.3983 12.46C25.0394 12.7823 24.7944 13.2295 24.7944 13.7688H26.7944ZM26.7548 13.9294C27.6077 13.1201 28.2814 12.2985 28.7426 11.4587L26.9895 10.496C26.6554 11.1044 26.1293 11.7659 25.3782 12.4786L26.7548 13.9294ZM28.7426 11.4587C29.2153 10.5979 29.4614 9.68866 29.4614 8.73982H27.4614C27.4614 9.32819 27.3121 9.9085 26.9895 10.496L28.7426 11.4587ZM29.4614 8.73982C29.4614 8.5395 29.4174 8.20429 29.1549 7.91634C28.8765 7.61102 28.5209 7.54035 28.2804 7.54035V9.54035C28.1598 9.54035 27.8948 9.50275 27.6769 9.26383C27.4749 9.04228 27.4614 8.8068 27.4614 8.73982H29.4614ZM28.2804 7.54035H26.8952V9.54035H28.2804V7.54035ZM26.8952 7.54035C26.8084 7.54035 26.7693 7.53025 26.7633 7.52846C26.7613 7.52787 26.7689 7.52996 26.783 7.53748C26.7974 7.54518 26.8161 7.55732 26.8362 7.57502L25.5124 9.07423C25.9272 9.44052 26.4446 9.54035 26.8952 9.54035V7.54035ZM26.8362 7.57502C26.8532 7.59008 26.8706 7.60903 26.8862 7.63138C26.9019 7.65367 26.9129 7.67527 26.9202 7.69373C26.9348 7.73045 26.9299 7.74203 26.9299 7.70996H24.9299C24.9299 8.19214 25.0866 8.69823 25.5124 9.07423L26.8362 7.57502ZM26.9299 7.70996C26.9299 7.67789 26.9348 7.68947 26.9202 7.72618C26.9129 7.74464 26.9019 7.76624 26.8862 7.78854C26.8706 7.81089 26.8532 7.82983 26.8362 7.8449L25.5124 6.34569C25.0866 6.72168 24.9299 7.22778 24.9299 7.70996H26.9299ZM26.8387 7.84265C26.8175 7.86152 26.7978 7.87427 26.7829 7.88224C26.7684 7.89001 26.7605 7.89216 26.7626 7.89154C26.7648 7.89087 26.7761 7.88775 26.7986 7.88486C26.8212 7.88196 26.8529 7.87956 26.8952 7.87956V5.87956C26.4468 5.87956 25.9255 5.9784 25.5099 6.34793L26.8387 7.84265ZM26.8952 7.87956H29.279V5.87956H26.8952V7.87956ZM29.279 7.87956C29.304 7.87956 29.2978 7.88334 29.2734 7.87378C29.2618 7.86919 29.249 7.8627 29.2365 7.85433C29.224 7.846 29.2147 7.83776 29.2086 7.83148L30.6424 6.43715C30.264 6.04807 29.776 5.87956 29.279 5.87956V7.87956ZM29.2109 7.83388C29.203 7.82575 29.1947 7.81553 29.1874 7.80385C29.1801 7.79223 29.1757 7.78226 29.1733 7.77575C29.1686 7.76266 29.1754 7.77307 29.1754 7.82053H31.1754C31.1754 7.32913 31.0262 6.82922 30.6401 6.43476L29.2109 7.83388ZM29.1754 7.82053V8.27476H31.1754V7.82053H29.1754ZM29.1754 8.27476C29.1754 9.40835 28.9587 10.3633 28.5554 11.1657L30.3425 12.0638C30.9078 10.9388 31.1754 9.66704 31.1754 8.27476H29.1754ZM28.5554 11.1657C28.1379 11.9966 27.4972 12.8133 26.6039 13.6101L27.9352 15.1026C28.9792 14.1714 29.7914 13.1604 30.3425 12.0638L28.5554 11.1657ZM26.615 13.6003C26.5872 13.6244 26.5778 13.6258 26.5885 13.6214C26.5938 13.6193 26.6021 13.6165 26.6131 13.6143C26.6241 13.6122 26.6351 13.6111 26.6453 13.6111V15.6111C27.1455 15.6111 27.5792 15.4109 27.924 15.1124L26.615 13.6003ZM26.6453 13.6111C26.6555 13.6111 26.6713 13.6122 26.6907 13.6162C26.7103 13.6203 26.7288 13.6264 26.745 13.6336C26.7782 13.6483 26.7845 13.6598 26.765 13.6407L25.3681 15.072C25.6959 15.3919 26.1222 15.6111 26.6453 15.6111V13.6111ZM26.7938 13.6701C26.7614 13.6357 26.7612 13.6262 26.7698 13.645C26.7744 13.6548 26.7808 13.6713 26.786 13.6937C26.7912 13.7164 26.7944 13.7419 26.7944 13.7688H24.7944C24.7944 14.2978 25.0418 14.7275 25.3392 15.0427L26.7938 13.6701ZM34.3363 16.133C34.3593 16.1555 34.3784 16.1797 34.3932 16.2036C34.4079 16.2272 34.4163 16.2471 34.4208 16.2601C34.4293 16.2845 34.4223 16.2795 34.4223 16.2286H32.4223C32.4223 16.6715 32.542 17.1765 32.9394 17.5643L34.3363 16.133ZM34.4223 16.2286V11.2765H32.4223V16.2286H34.4223ZM33.4223 10.2765H32.6159V12.2765H33.4223V10.2765ZM31.6159 11.2765V15.951H33.6159V11.2765H31.6159ZM31.6159 15.951C31.6159 16.002 31.6089 16.007 31.6174 15.9826C31.6219 15.9696 31.6303 15.9497 31.645 15.9261C31.6598 15.9022 31.6789 15.8779 31.7019 15.8555L33.0988 17.2868C33.4962 16.899 33.6159 16.394 33.6159 15.951H31.6159ZM31.7019 15.8555C31.7249 15.833 31.7488 15.8154 31.7709 15.8023C31.7927 15.7894 31.81 15.7826 31.8194 15.7795C31.8367 15.7737 31.8237 15.7814 31.765 15.7814V17.7814C32.2021 17.7814 32.7057 17.6705 33.0988 17.2868L31.7019 15.8555ZM31.765 15.7814C31.7063 15.7814 31.6933 15.7737 31.7105 15.7795C31.72 15.7826 31.7373 15.7894 31.7591 15.8023C31.7812 15.8154 31.805 15.833 31.828 15.8555L30.4312 17.2868C30.8243 17.6705 31.3279 17.7814 31.765 17.7814V15.7814ZM31.828 15.8555C31.8511 15.8779 31.8701 15.9022 31.885 15.9261C31.8997 15.9497 31.9081 15.9696 31.9126 15.9826C31.9211 16.007 31.9141 16.002 31.9141 15.951H29.9141C29.9141 16.394 30.0338 16.899 30.4312 17.2868L31.828 15.8555ZM31.9141 15.951V7.14516H29.9141V15.951H31.9141ZM31.9141 7.14516C31.9141 7.0942 31.9211 7.08919 31.9126 7.11363C31.9081 7.12662 31.8997 7.1465 31.885 7.17012C31.8701 7.19402 31.8511 7.21826 31.828 7.24074L30.4312 5.8094C30.0338 6.19721 29.9141 6.7022 29.9141 7.14516H31.9141ZM31.828 7.24074C31.805 7.26319 31.7812 7.28082 31.7591 7.29392C31.7373 7.30683 31.72 7.3136 31.7105 7.31674C31.6933 7.32245 31.7063 7.31476 31.765 7.31476V5.31476C31.3279 5.31476 30.8243 5.42574 30.4312 5.8094L31.828 7.24074ZM31.765 7.31476C31.8237 7.31476 31.8367 7.32245 31.8194 7.31674C31.81 7.3136 31.7927 7.30683 31.7709 7.29392C31.7488 7.28082 31.7249 7.26319 31.7019 7.24074L33.0988 5.8094C32.7057 5.42574 32.2021 5.31476 31.765 5.31476V7.31476ZM31.7019 7.24074C31.6789 7.21826 31.6598 7.19402 31.645 7.17012C31.6303 7.14651 31.6219 7.12662 31.6174 7.11363C31.6089 7.0892 31.6159 7.0942 31.6159 7.14516H33.6159C33.6159 6.70219 33.4962 6.1972 33.0988 5.8094L31.7019 7.24074ZM31.6159 7.14516V9.61466H33.6159V7.14516H31.6159ZM32.6159 10.6147H33.4223V8.61466H32.6159V10.6147ZM34.4223 9.61466V7.0335H32.4223V9.61466H34.4223ZM34.4223 7.0335C34.4223 6.98254 34.4293 6.97753 34.4208 7.00197C34.4163 7.01496 34.4079 7.03485 34.3932 7.05846C34.3784 7.08236 34.3593 7.1066 34.3363 7.12908L32.9394 5.69774C32.542 6.08555 32.4223 6.59054 32.4223 7.0335H34.4223ZM34.3363 7.12908C34.3133 7.15153 34.2894 7.16916 34.2673 7.18226C34.2455 7.19517 34.2282 7.20194 34.2187 7.20508C34.2015 7.21079 34.2145 7.2031 34.2732 7.2031V5.2031C33.8361 5.2031 33.3325 5.31408 32.9394 5.69774L34.3363 7.12908ZM34.2732 7.2031C34.3319 7.2031 34.3449 7.21079 34.3277 7.20508C34.3182 7.20194 34.3009 7.19517 34.2791 7.18226C34.257 7.16916 34.2332 7.15153 34.2102 7.12908L35.607 5.69774C35.2139 5.31408 34.7103 5.2031 34.2732 5.2031V7.2031ZM34.2102 7.12908C34.1871 7.1066 34.1681 7.08236 34.1532 7.05847C34.1385 7.03485 34.1301 7.01497 34.1256 7.00197C34.1171 6.97754 34.1241 6.98254 34.1241 7.0335H36.1241C36.1241 6.59053 36.0044 6.08554 35.607 5.69774L34.2102 7.12908ZM34.1241 7.0335V16.2275H36.1241V7.0335H34.1241ZM34.1241 16.2275C34.1241 16.2784 34.1171 16.2834 34.1256 16.259C34.1301 16.246 34.1385 16.2261 34.1532 16.2025C34.1681 16.1786 34.1871 16.1544 34.2102 16.1319L35.607 17.5632C36.0044 17.1754 36.1241 16.6704 36.1241 16.2275H34.1241ZM34.2102 16.1319C34.2332 16.1094 34.257 16.0918 34.2791 16.0787C34.3009 16.0658 34.3182 16.059 34.3277 16.0559C34.3449 16.0502 34.3319 16.0579 34.2732 16.0579V18.0579C34.7103 18.0579 35.2139 17.9469 35.607 17.5632L34.2102 16.1319ZM34.2732 16.0579C34.2145 16.0579 34.2015 16.0502 34.2187 16.0559C34.2282 16.059 34.2455 16.0658 34.2673 16.0787C34.2894 16.0918 34.3133 16.1094 34.3363 16.1319L32.9394 17.5632C33.3325 17.9469 33.8361 18.0579 34.2732 18.0579V16.0579ZM32.6378 16.8476V16.8486H34.6378V16.8476H32.6378ZM37.1466 6.78213C36.9052 6.32832 36.8337 5.59971 37.2129 4.43196L35.3107 3.81423C34.8494 5.23456 34.7788 6.58944 35.3809 7.72135L37.1466 6.78213ZM37.2139 7.56341L37.2149 7.56047L35.3126 6.94301L35.3116 6.94595L37.2139 7.56341ZM39.211 8.11204C37.9771 7.73078 37.3883 7.24128 37.1457 6.78507L35.3799 7.7243C35.9807 8.85381 37.1619 9.57216 38.6205 10.0229L39.211 8.11204ZM41.0007 8.53636C40.479 8.4592 39.8835 8.31985 39.211 8.11204L38.6205 10.0229C39.3667 10.2535 40.0636 10.4195 40.7081 10.5148L41.0007 8.53636ZM42.6247 8.6511C42.0736 8.65332 41.533 8.61507 41.0007 8.53636L40.7081 10.5148C41.3421 10.6086 41.9833 10.6537 42.6328 10.6511L42.6247 8.6511ZM42.8081 8.61201C42.8074 8.61252 42.7583 8.64685 42.5994 8.65152L42.6582 10.6507C43.0928 10.6379 43.5373 10.5331 43.928 10.2691L42.8081 8.61201ZM42.8231 8.58655C42.8198 8.59682 42.8171 8.60272 42.8157 8.60533C42.8144 8.60786 42.814 8.6083 42.8145 8.60754C42.8151 8.60676 42.8156 8.60627 42.8155 8.60642C42.8153 8.6066 42.8132 8.60858 42.8081 8.61201L43.928 10.2691C44.314 10.0082 44.5836 9.64084 44.7253 9.20429L42.8231 8.58655ZM42.8495 8.36695C42.8441 8.50903 42.8276 8.57266 42.8231 8.58655L44.7253 9.20429C44.8059 8.95613 44.8385 8.69476 44.8481 8.44297L42.8495 8.36695ZM42.8246 8.29101C42.8257 8.29258 42.8476 8.31975 42.8489 8.41842L44.8487 8.3915C44.8429 7.95988 44.7306 7.53088 44.4695 7.15337L42.8246 8.29101ZM42.8005 8.28372C42.814 8.28787 42.8221 8.29144 42.8262 8.29339C42.8301 8.29529 42.8309 8.29604 42.8296 8.29517C42.8283 8.29425 42.8266 8.2928 42.825 8.29115C42.8234 8.28953 42.8233 8.28914 42.8246 8.29101L44.4695 7.15337C44.2014 6.7657 43.8254 6.5071 43.391 6.37287L42.8005 8.28372ZM42.6035 8.26511C42.6691 8.26649 42.7184 8.27063 42.7535 8.27533C42.7894 8.28013 42.8033 8.28456 42.8005 8.28372L43.391 6.37287C43.1481 6.2978 42.8896 6.27071 42.6458 6.26555L42.6035 8.26511ZM39.6784 7.86484C40.5744 8.14172 41.5611 8.27034 42.6294 8.26532L42.62 6.26534C41.7157 6.26959 40.9363 6.16026 40.2688 5.95399L39.6784 7.86484ZM37.9873 6.67157C38.3523 7.30987 39.0166 7.66034 39.6784 7.86484L40.2688 5.95399C40.0491 5.88609 39.9064 5.81624 39.8191 5.75892C39.7341 5.70317 39.7191 5.6711 39.7233 5.67858L37.9873 6.67157ZM37.8907 4.54812C37.6866 5.21824 37.6006 6.00015 37.9887 6.67414L39.7219 5.67601C39.7355 5.69961 39.7181 5.68816 39.7176 5.59921C39.7171 5.50553 39.7361 5.35364 39.8039 5.13073L37.8907 4.54812ZM38.4157 2.87982L37.8934 4.53921L39.8012 5.13965L40.3234 3.48026L38.4157 2.87982ZM38.4489 2.75344C38.4485 2.75275 38.4467 2.74935 38.4451 2.74435C38.4436 2.73941 38.4438 2.73753 38.444 2.74076C38.4444 2.7474 38.4456 2.7876 38.4185 2.87117L40.3207 3.48891C40.5052 2.92077 40.5042 2.29733 40.1684 1.73199L38.4489 2.75344ZM38.206 2.6263C38.3158 2.66023 38.3781 2.69506 38.4104 2.71792C38.4397 2.73866 38.4478 2.75173 38.4506 2.7564L40.1666 1.72904C39.8477 1.19638 39.3406 0.88358 38.7965 0.715449L38.206 2.6263ZM38.129 2.60251L38.206 2.6263L38.7965 0.715449L38.7195 0.691665L38.129 2.60251ZM37.8368 2.57316C37.8403 2.57158 37.9118 2.5354 38.129 2.60251L38.7195 0.691664C38.1761 0.523737 37.5808 0.495335 37.0164 0.749175L37.8368 2.57316ZM37.7746 2.70216C37.8022 2.61735 37.8276 2.58306 37.834 2.57521C37.8372 2.57133 37.8377 2.57147 37.8355 2.57318C37.8332 2.57493 37.832 2.57533 37.8338 2.57452L37.0195 0.74781C36.4195 1.01527 36.0562 1.51844 35.8724 2.08442L37.7746 2.70216ZM37.2129 4.43196L37.7746 2.70216L35.8724 2.08442L35.3107 3.81423L37.2129 4.43196ZM38.0547 15.9969C37.6191 15.595 37.3585 15.1665 37.2308 14.7059L35.3035 15.2406C35.5415 16.0982 36.0199 16.8408 36.6986 17.4669L38.0547 15.9969ZM39.7872 16.9436C39.0523 16.7165 38.4848 16.3937 38.0547 15.9969L36.6986 17.4669C37.3827 18.098 38.2261 18.5545 39.1967 18.8545L39.7872 16.9436ZM41.7805 17.1447C41.183 17.2275 40.5216 17.1706 39.7872 16.9436L39.1967 18.8545C40.1677 19.1545 41.1259 19.2546 42.0553 19.1257L41.7805 17.1447ZM43.2407 16.5461C42.8622 16.8531 42.3872 17.0599 41.7795 17.1448L42.0562 19.1256C42.9793 18.9966 43.8059 18.6628 44.5005 18.0994L43.2407 16.5461ZM44.0631 15.323C43.8923 15.8492 43.6218 16.2382 43.2421 16.5449L44.499 18.1006C45.1956 17.5379 45.6811 16.8161 45.9653 15.9407L44.0631 15.323ZM44.1193 13.8468C44.245 14.3098 44.2348 14.7944 44.0631 15.323L45.9653 15.9407C46.2488 15.0678 46.2837 14.1862 46.0495 13.3231L44.1193 13.8468ZM43.2963 12.5416C43.7317 12.9492 43.9924 13.3827 44.1198 13.8487L46.049 13.3212C45.8136 12.4601 45.3382 11.7136 44.6632 11.0816L43.2963 12.5416ZM41.5565 11.5878C42.293 11.8154 42.8717 12.144 43.2963 12.5416L44.6632 11.0816C43.9773 10.4394 43.1159 9.97637 42.147 9.67697L41.5565 11.5878ZM39.5781 11.3951C40.1681 11.3073 40.8232 11.3612 41.5565 11.5878L42.147 9.67697C41.1749 9.37658 40.2154 9.27825 39.2838 9.41685L39.5781 11.3951ZM38.1147 12.009C38.4975 11.6955 38.9744 11.4849 39.5781 11.3951L39.2838 9.41685C38.3659 9.5534 37.5415 9.89322 36.8473 10.4618L38.1147 12.009ZM37.2813 13.2573C37.4511 12.7343 37.7333 12.3195 38.1123 12.011L36.8497 10.4598C36.1497 11.0296 35.6586 11.7787 35.3791 12.6395L37.2813 13.2573ZM37.2309 14.7066C37.1046 14.2499 37.1133 13.7745 37.2813 13.2573L35.3791 12.6395C35.0977 13.5061 35.066 14.3822 35.3034 15.2399L37.2309 14.7066ZM45.3815 10.7931C45.2717 10.7592 45.2094 10.7243 45.1771 10.7015C45.1478 10.6807 45.1397 10.6677 45.1369 10.663L43.4209 11.6904C43.7398 12.223 44.247 12.5358 44.7911 12.704L45.3815 10.7931ZM44.1358 11.4379L44.1353 11.4393L46.0373 12.0577L46.0378 12.0563L44.1358 11.4379ZM45.459 10.8154L45.382 10.7916L44.7915 12.7025L44.8685 12.7263L45.459 10.8154ZM45.7512 10.8448C45.7477 10.8464 45.6762 10.8825 45.459 10.8154L44.8685 12.7263C45.4119 12.8942 46.0072 12.9226 46.5716 12.6688L45.7512 10.8448ZM45.8134 10.7158C45.7858 10.8006 45.7604 10.8349 45.754 10.8427C45.7508 10.8466 45.7503 10.8465 45.7525 10.8447C45.7548 10.843 45.756 10.8426 45.7542 10.8434L46.5685 12.6701C47.1685 12.4027 47.5318 11.8995 47.7156 11.3335L45.8134 10.7158ZM45.8621 10.5656L45.8134 10.7158L47.7156 11.3335L47.7644 11.1833L45.8621 10.5656ZM47.8948 10.162L47.1085 9.91905L46.518 11.8299L47.3043 12.0729L47.8948 10.162ZM48.0914 10.1943C48.0978 10.191 48.0979 10.1941 48.0776 10.1949C48.0527 10.1958 47.9946 10.1929 47.8948 10.162L47.3043 12.0729C47.8489 12.2412 48.4525 12.2609 49.0142 11.9688L48.0914 10.1943ZM48.1707 10.0381C48.1427 10.1245 48.1156 10.1662 48.1033 10.182C48.0973 10.1898 48.0939 10.1927 48.0934 10.1931C48.093 10.1935 48.0927 10.1937 48.0915 10.1943L49.0142 11.9688C49.5662 11.6817 49.8988 11.1919 50.0729 10.6559L48.1707 10.0381ZM48.202 9.88643C48.1985 9.87952 48.1997 9.87556 48.2001 9.88755C48.2007 9.90384 48.1989 9.95147 48.1707 10.0381L50.0729 10.6559C50.2466 10.1211 50.267 9.52504 49.9783 8.96724L48.202 9.88643ZM48.0367 9.81751C48.1368 9.84843 48.1845 9.87827 48.2015 9.89094C48.2146 9.90069 48.2085 9.89897 48.202 9.88643L49.9783 8.96724C49.6845 8.39957 49.1702 8.07443 48.6272 7.90666L48.0367 9.81751ZM47.2504 9.57453L48.0367 9.81751L48.6272 7.90666L47.8409 7.66368L47.2504 9.57453ZM46.7901 7.70812L46.5946 8.31024L48.4968 8.92798L48.6923 8.32586L46.7901 7.70812ZM48.8227 7.30454L48.0364 7.06156L47.446 8.97241L48.2323 9.21539L48.8227 7.30454ZM49.0194 7.33685C49.0258 7.33355 49.0259 7.33662 49.0055 7.33739C48.9807 7.33832 48.9225 7.33537 48.8227 7.30454L48.2323 9.21539C48.7769 9.38367 49.3804 9.40338 49.9421 9.11128L49.0194 7.33685ZM49.0987 7.18064C49.0706 7.26703 49.0435 7.30869 49.0313 7.3245C49.0253 7.33227 49.0218 7.33521 49.0213 7.33564C49.0209 7.33598 49.0207 7.33619 49.0194 7.33685L49.9421 9.11128C50.4941 8.82422 50.8268 8.33446 51.0009 7.79838L49.0987 7.18064ZM49.13 7.02894C49.1264 7.02203 49.1277 7.01807 49.1281 7.03006C49.1286 7.04635 49.1268 7.09398 49.0987 7.18064L51.0009 7.79838C51.1746 7.26358 51.1949 6.66756 50.9063 6.10975L49.13 7.02894ZM48.9647 6.96002C49.0648 6.99094 49.1124 7.02078 49.1294 7.03345C49.1425 7.04321 49.1365 7.04149 49.13 7.02894L50.9063 6.10975C50.6125 5.54208 50.0981 5.21694 49.5552 5.04917L48.9647 6.96002ZM48.1784 6.71704L48.9647 6.96002L49.5552 5.04917L48.7689 4.8062L48.1784 6.71704ZM47.6057 5.1966L47.5225 5.45276L49.4247 6.07048L49.5079 5.81433L47.6057 5.1966ZM47.6361 5.07887C47.6357 5.07818 47.6339 5.07478 47.6324 5.06977C47.6308 5.06483 47.631 5.06295 47.6312 5.06618C47.6316 5.07282 47.6329 5.11302 47.6057 5.19659L49.5079 5.81433C49.6924 5.24619 49.6914 4.62275 49.3556 4.05741L47.6361 5.07887ZM47.3933 4.95172C47.5031 4.98565 47.5654 5.02048 47.5977 5.04334C47.6269 5.06408 47.6351 5.07715 47.6379 5.08182L49.3538 4.05446C49.0349 3.5218 48.5278 3.209 47.9837 3.04087L47.3933 4.95172ZM47.3163 4.92794L47.3933 4.95172L47.9837 3.04087L47.9067 3.01708L47.3163 4.92794ZM47.0241 4.89858C47.0276 4.897 47.0991 4.86082 47.3163 4.92793L47.9068 3.01708C47.3633 2.84916 46.768 2.82076 46.2037 3.0746L47.0241 4.89858ZM46.9619 5.02758C46.9894 4.94277 47.0148 4.90849 47.0213 4.90063C47.0245 4.89675 47.025 4.89689 47.0227 4.89861C47.0205 4.90035 47.0192 4.90076 47.021 4.89995L46.2067 3.07323C45.6067 3.34069 45.2435 3.84385 45.0597 4.40984L46.9619 5.02758ZM45.1691 10.5482L46.9619 5.02758L45.0597 4.40984L43.2669 9.93049L45.1691 10.5482ZM45.1369 10.663C45.1376 10.6642 45.1397 10.6682 45.1415 10.6741C45.1433 10.6798 45.1433 10.6824 45.1431 10.6796C45.1427 10.6737 45.1414 10.6334 45.1691 10.5482L43.2669 9.93049C43.0834 10.4953 43.0799 11.1208 43.4209 11.6904L45.1369 10.663ZM36.0144 14.0536L36.006 14.0648L37.6021 15.27L37.6105 15.2588L36.0144 14.0536ZM36.2228 15.4639L37.4694 16.3739L38.6487 14.7586L37.4021 13.8486L36.2228 15.4639ZM37.2059 16.088C37.2225 16.1151 37.2397 16.1414 37.2574 16.167L38.8998 15.0257C38.9039 15.0316 38.9081 15.0379 38.9121 15.0445L37.2059 16.088ZM36.2151 15.4755L37.4896 16.4045L38.6676 14.7882L37.393 13.8592L36.2151 15.4755ZM37.4896 16.4045L37.9262 16.7226L39.1041 15.1063L38.6676 14.7882L37.4896 16.4045ZM37.2574 16.1669C37.5169 16.5403 37.8808 16.7304 38.1208 16.8334L38.9095 14.9955C38.8863 14.9855 38.8693 14.9773 38.8573 14.9709C38.8453 14.9645 38.8403 14.961 38.8405 14.9612C38.8408 14.9613 38.8686 14.9807 38.8998 15.0257L37.2574 16.1669ZM38.1208 16.8334C38.1443 16.8435 38.1676 16.8532 38.1903 16.8623L38.9363 15.0066C38.9267 15.0028 38.9178 14.9991 38.9095 14.9955L38.1208 16.8334ZM37.9262 16.7226L39.4423 17.8276L40.6203 16.2114L39.1041 15.1063L37.9262 16.7226ZM39.3205 17.7229C39.4618 17.8657 39.6576 18.0302 39.916 18.1464L40.7364 16.3224C40.7467 16.327 40.7545 16.3313 40.7597 16.3344C40.7648 16.3375 40.7674 16.3394 40.7674 16.3394C40.7674 16.3394 40.7652 16.3378 40.7608 16.3339C40.7564 16.33 40.7502 16.3242 40.7422 16.3161L39.3205 17.7229ZM39.7372 18.0425L41.0097 18.9699L42.1877 17.3537L40.9152 16.4263L39.7372 18.0425ZM42.3966 18.7645L42.4021 18.7572L40.8062 17.5518L40.8007 17.5591L42.3966 18.7645ZM41.0145 18.9622L41.0245 18.9695L42.2038 17.3541L42.1938 17.3468L41.0145 18.9622ZM42.4124 18.7642L45.5317 14.6304L43.9353 13.4257L40.8159 17.5595L42.4124 18.7642ZM45.3232 13.2204L45.3147 13.2142L44.1354 14.8296L44.1439 14.8358L45.3232 13.2204ZM45.523 14.6246L45.5315 14.6134L43.9355 13.408L43.9271 13.4192L45.523 14.6246ZM45.3225 13.2026L43.9897 12.2312L42.8117 13.8475L44.1445 14.8189L45.3225 13.2026ZM44.2556 12.5205C44.22 12.4619 44.1803 12.4058 44.1368 12.3524L42.5873 13.617C42.5724 13.5987 42.5585 13.5791 42.5459 13.5583L44.2556 12.5205ZM44.1368 12.3524C43.9181 12.0844 43.635 11.9255 43.3596 11.8447L42.7968 13.7639C42.7517 13.7507 42.6646 13.7117 42.5873 13.6169L44.1368 12.3524ZM43.6672 11.9962L42.182 10.9138L41.004 12.53L42.4892 13.6124L43.6672 11.9962ZM42.4116 11.1475C42.243 10.9072 41.9997 10.6964 41.6821 10.5776L40.9812 12.4507C40.8764 12.4115 40.8089 12.3454 40.7745 12.2963L42.4116 11.1475ZM41.6823 10.5776C41.6408 10.5621 41.5988 10.5484 41.5565 10.5367L41.0212 12.4637C41.0077 12.46 40.9943 12.4556 40.9811 12.4507L41.6823 10.5776ZM41.8778 10.6921L40.5279 9.70817L39.3499 11.3245L40.6999 12.3084L41.8778 10.6921ZM39.1409 9.91364L39.1354 9.92092L40.7314 11.1263L40.7369 11.119L39.1409 9.91364ZM40.5231 9.71596L40.5131 9.70871L39.3337 11.324L39.3437 11.3312L40.5231 9.71596ZM39.1252 9.91399L36.0058 14.0477L37.6023 15.2524L40.7217 11.1187L39.1252 9.91399ZM36.2144 15.4577L36.2228 15.4638L37.4022 13.8486L37.3938 13.8425L36.2144 15.4577ZM39.1354 9.92095L36.0145 14.0536L37.6105 15.2589L40.7314 11.1262L39.1354 9.92095ZM41.8515 10.6858L40.523 9.71594L39.3437 11.3313L40.6722 12.3012L41.8515 10.6858ZM41.2118 12.602C41.2492 12.5004 41.2987 12.4524 41.3101 12.4436C41.3143 12.4404 41.2974 12.4548 41.2548 12.467C41.2098 12.4798 41.1362 12.4898 41.0466 12.4701L41.4771 10.5169C40.9246 10.3952 40.43 10.5983 40.0935 10.8562C39.7502 11.1193 39.489 11.493 39.3352 11.9104L41.2118 12.602ZM40.9464 12.5776C41.0395 12.6124 41.1045 12.6692 41.1421 12.7171C41.1599 12.7398 41.1704 12.7588 41.1763 12.771C41.1821 12.7833 41.1838 12.7902 41.1839 12.7904C41.184 12.7907 41.1827 12.786 41.1819 12.7759C41.1811 12.766 41.1807 12.752 41.1819 12.7344C41.1844 12.6986 41.193 12.6531 41.2118 12.602L39.3352 11.9104C39.172 12.353 39.1318 12.8395 39.2465 13.2869C39.3599 13.7294 39.6616 14.2323 40.2456 14.4508L40.9464 12.5776ZM40.7159 12.4264C40.6971 12.4774 40.6742 12.5172 40.6532 12.5455C40.6317 12.5745 40.6169 12.5852 40.6174 12.5848C40.6182 12.5843 40.6247 12.5798 40.6378 12.5739C40.651 12.5681 40.6723 12.5602 40.7016 12.5545C40.7635 12.5424 40.8519 12.5422 40.9466 12.5777L40.2454 14.4507C40.8319 14.6703 41.3907 14.4852 41.7654 14.2225C42.144 13.9571 42.4294 13.5606 42.5925 13.118L40.7159 12.4264ZM40.7665 12.2845C40.7501 12.2586 40.7448 12.2416 40.744 12.2387C40.7431 12.2357 40.7454 12.2423 40.7462 12.2593C40.748 12.2946 40.7426 12.3539 40.7159 12.4264L42.5925 13.118C42.8114 12.524 42.8229 11.7913 42.4544 11.2116L40.7665 12.2845ZM43.6348 11.9878L42.2001 10.9404L41.0208 12.5557L42.4555 13.6031L43.6348 11.9878ZM43.282 11.8239C42.6407 11.6676 41.9564 11.874 41.4458 12.2376L42.6057 13.8669C42.6746 13.8178 42.7409 13.7905 42.7899 13.7786C42.8434 13.7655 42.8482 13.7767 42.8083 13.767L43.282 11.8239ZM42.9811 13.3477L42.9815 13.3463L41.0709 12.7553L41.0704 12.7567L42.9811 13.3477ZM41.4462 12.2362C41.0673 12.506 40.7534 12.8798 40.5952 13.317C40.4366 13.7554 40.4126 14.3616 40.8216 14.8661L42.3751 13.6065C42.4449 13.6926 42.478 13.7901 42.486 13.8712C42.4933 13.9459 42.4785 13.9903 42.4759 13.9975C42.4728 14.006 42.4985 13.9421 42.6062 13.8654L41.4462 12.2362ZM40.8222 14.8668C41.216 15.3516 41.7927 15.4684 42.2277 15.4467C42.6789 15.4241 43.1317 15.256 43.5146 14.9834L42.3547 13.3541C42.306 13.3887 42.2576 13.4131 42.2147 13.4287C42.171 13.4446 42.1406 13.4485 42.128 13.4492C42.1138 13.4499 42.1341 13.4461 42.1791 13.4621C42.2274 13.4793 42.3053 13.5206 42.3745 13.6057L40.8222 14.8668ZM43.5146 14.9834C43.864 14.7346 44.1544 14.4005 44.322 14.0126C44.4864 13.6321 44.5646 13.1054 44.3021 12.603L42.5294 13.5291C42.4823 13.4389 42.4713 13.355 42.4729 13.2987C42.4736 13.2714 42.4772 13.2512 42.4801 13.2387C42.4831 13.2261 42.4859 13.2197 42.486 13.2193C42.4862 13.2189 42.4845 13.223 42.4794 13.231C42.4744 13.239 42.4668 13.2499 42.4557 13.263C42.4334 13.2896 42.4002 13.3217 42.3547 13.3541L43.5146 14.9834ZM45.3147 13.2143L44.0054 12.2584L42.8261 13.8737L44.1354 14.8296L45.3147 13.2143ZM42.4022 18.7572L45.5231 14.6246L43.927 13.4193L40.8061 17.5519L42.4022 18.7572ZM39.7772 18.0589L41.0145 18.9622L42.1938 17.3469L40.9565 16.4436L39.7772 18.0589ZM40.5451 16.3003C40.5476 16.2995 40.5707 16.2931 40.6093 16.2941C40.6486 16.295 40.687 16.3032 40.7196 16.3155L40.0142 18.1869C40.3663 18.3197 40.7479 18.3297 41.1298 18.2129L40.5451 16.3003ZM40.1848 15.2712C40.1316 15.2331 40.123 15.2085 40.1425 15.2389C40.1597 15.2657 40.1869 15.3173 40.2164 15.3978C40.2761 15.5611 40.3208 15.7767 40.3334 15.9964C40.3464 16.2237 40.3212 16.3871 40.2947 16.4665C40.2621 16.5642 40.2934 16.3773 40.5451 16.3003L41.1298 18.2129C41.7695 18.0174 42.0654 17.4783 42.1917 17.1002C42.3241 16.7038 42.3522 16.2678 42.3301 15.8821C42.3076 15.4888 42.2289 15.0777 42.0946 14.7106C41.972 14.3755 41.7509 13.9328 41.3493 13.6451L40.1848 15.2712ZM41.7218 14.7555L41.7223 14.7541L39.8119 14.1622L39.8114 14.1637L41.7218 14.7555ZM38.9667 15.2175C38.9627 15.514 38.7637 15.5987 38.8737 15.5254C38.9551 15.4711 39.1218 15.3967 39.3603 15.3408C39.5911 15.2867 39.8284 15.2643 40.0185 15.2726C40.2456 15.2826 40.2628 15.3288 40.1844 15.2726L41.3489 13.6466C40.9524 13.3627 40.4619 13.2901 40.106 13.2745C39.7132 13.2573 39.2922 13.3026 38.9039 13.3936C38.5232 13.4828 38.1099 13.631 37.7647 13.861C37.4482 14.0719 36.9761 14.5024 36.9669 15.1907L38.9667 15.2175ZM38.9121 15.0445C38.9323 15.0776 38.9475 15.1133 38.9567 15.1484C38.9658 15.1829 38.9668 15.2076 38.9667 15.2175L36.9669 15.1907C36.9626 15.5112 37.0405 15.8176 37.2059 16.088L38.9121 15.0445ZM39.153 15.1268L38.6487 14.7586L37.4694 16.3739L37.9737 16.7421L39.153 15.1268ZM37.9737 16.7421L39.4 17.7835L40.5793 16.1682L39.153 15.1268L37.9737 16.7421ZM39.199 15.0975C39.0848 15.0606 39.0059 15.0346 38.9363 15.0066L38.1904 16.8623C38.3354 16.9206 38.481 16.9673 38.5837 17.0005L39.199 15.0975ZM39.9655 15.4419C39.6909 15.2454 39.3356 15.1416 39.199 15.0975L38.5837 17.0005C38.6867 17.0338 38.7488 17.0542 38.7986 17.0738C38.8209 17.0826 38.8313 17.0876 38.8336 17.0887C38.8362 17.09 38.8232 17.0838 38.8014 17.0682L39.9655 15.4419ZM40.5352 16.0558C40.4521 15.9429 40.2427 15.6403 39.9655 15.4419L38.8014 17.0682C38.7795 17.0525 38.7689 17.0419 38.7699 17.0428C38.7707 17.0437 38.7778 17.0508 38.7922 17.0679C38.8248 17.1066 38.8619 17.1565 38.9249 17.242L40.5352 16.0558ZM40.7252 16.2983C40.6749 16.2437 40.6223 16.174 40.5352 16.0558L38.9249 17.242C39.0002 17.3442 39.1169 17.5043 39.2542 17.6534L40.7252 16.2983ZM39.2542 17.6534C39.2753 17.6763 39.2974 17.6995 39.3205 17.7229L40.7422 16.3161C40.7371 16.311 40.7314 16.3051 40.7252 16.2983L39.2542 17.6534ZM39.4423 17.8276L39.7372 18.0425L40.9152 16.4263L40.6203 16.2114L39.4423 17.8276ZM39.916 18.1464C39.9478 18.1607 39.9805 18.1743 40.0141 18.1869L40.7196 16.3155C40.7257 16.3178 40.7313 16.3201 40.7364 16.3224L39.916 18.1464ZM40.9565 16.4436L40.5793 16.1682L39.4 17.7835L39.7772 18.0589L40.9565 16.4436ZM44.0054 12.2584L43.6348 11.9878L42.4555 13.6031L42.8261 13.8737L44.0054 12.2584ZM43.3596 11.8447C43.3336 11.8371 43.3077 11.8302 43.282 11.8239L42.8083 13.767C42.8049 13.7662 42.801 13.7651 42.7967 13.7639L43.3596 11.8447ZM43.9897 12.2312L43.6672 11.9962L42.4892 13.6124L42.8117 13.8475L43.9897 12.2312ZM44.3021 12.603C44.2875 12.5751 44.272 12.5475 44.2555 12.5204L42.5459 13.5583C42.5401 13.5487 42.5346 13.5389 42.5294 13.529L44.3021 12.603ZM40.6722 12.3011L41.0208 12.5557L42.2001 10.9404L41.8515 10.6858L40.6722 12.3011ZM41.5565 10.5367C41.5301 10.5294 41.5036 10.5228 41.4771 10.5169L41.0466 12.4701C41.0382 12.4682 41.0297 12.4661 41.0213 12.4637L41.5565 10.5367ZM42.182 10.9138L41.8778 10.6921L40.6999 12.3084L41.004 12.53L42.182 10.9138ZM42.4544 11.2116C42.4407 11.19 42.4264 11.1686 42.4116 11.1474L40.7745 12.2963C40.7716 12.2922 40.7689 12.2882 40.7665 12.2845L42.4544 11.2116ZM38.7254 15.1124C39.3193 15.1899 39.8051 14.9059 40.1024 14.5675C40.3976 14.2317 40.5624 13.7964 40.6002 13.3539L38.6075 13.1836C38.6009 13.2599 38.576 13.2747 38.6001 13.2472C38.614 13.2315 38.6504 13.1958 38.7179 13.166C38.7895 13.1344 38.883 13.116 38.9842 13.1292L38.7254 15.1124ZM37.2716 13.0083C37.2323 13.4526 37.321 13.9042 37.5381 14.2826C37.7521 14.6556 38.1469 15.0369 38.7254 15.1124L38.9842 13.1292C39.193 13.1565 39.2714 13.2848 39.2728 13.2873C39.2773 13.2951 39.2573 13.2587 39.2639 13.1847L37.2716 13.0083ZM39.1454 11.2528C38.552 11.1759 38.067 11.4603 37.7704 11.7972C37.4751 12.1325 37.3093 12.5677 37.2714 13.0114L39.2641 13.1817C39.2705 13.1066 39.2952 13.0919 39.2714 13.1189C39.2578 13.1343 39.2218 13.1697 39.1548 13.1992C39.0838 13.2306 38.9902 13.2494 38.8882 13.2362L39.1454 11.2528ZM40.6002 13.3539C40.6381 12.9104 40.5489 12.4598 40.3323 12.0823C40.1191 11.7107 39.7248 11.3279 39.1454 11.2528L38.8882 13.2362C38.6768 13.2088 38.5982 13.0787 38.5976 13.0777C38.5936 13.0707 38.6139 13.1084 38.6075 13.1836L40.6002 13.3539ZM42.1995 13.8286C41.7747 13.9201 41.3633 14.1251 41.0611 14.4464C40.7586 14.7679 40.4998 15.2987 40.6786 15.9082L42.5977 15.3454C42.6331 15.4658 42.6247 15.5826 42.5961 15.6729C42.5696 15.7567 42.5314 15.8023 42.5179 15.8167C42.495 15.841 42.5193 15.8056 42.6206 15.7838L42.1995 13.8286ZM44.5025 14.9297C44.3308 14.3492 43.8581 14.0368 43.4753 13.899C43.0757 13.7551 42.6246 13.736 42.1971 13.8292L42.6229 15.7833C42.6685 15.7734 42.71 15.7708 42.7436 15.7725C42.7601 15.7734 42.7734 15.7752 42.7831 15.7771C42.7879 15.778 42.7916 15.7789 42.7941 15.7796C42.7954 15.78 42.7964 15.7802 42.797 15.7804C42.7977 15.7807 42.798 15.7808 42.798 15.7808C42.7979 15.7808 42.7976 15.7806 42.7969 15.7803C42.7962 15.7801 42.7951 15.7796 42.7937 15.7789C42.7908 15.7776 42.7864 15.7755 42.7806 15.7721C42.7693 15.7656 42.7507 15.7535 42.7284 15.7334C42.6826 15.6921 42.6194 15.6146 42.5847 15.4971L44.5025 14.9297ZM42.9823 17.0116C43.407 16.9201 43.8185 16.7151 44.1207 16.3938C44.4231 16.0723 44.6819 15.5415 44.5032 14.9319L42.584 15.4948C42.5487 15.3744 42.557 15.2576 42.5856 15.1673C42.6122 15.0835 42.6503 15.0379 42.6639 15.0235C42.6867 14.9992 42.6624 15.0346 42.5612 15.0564L42.9823 17.0116ZM40.6786 15.9082C40.8495 16.491 41.3233 16.8043 41.707 16.9421C42.1071 17.0857 42.5582 17.104 42.9846 17.011L42.5588 15.0569C42.5128 15.0669 42.471 15.0695 42.4371 15.0678C42.4205 15.067 42.4072 15.0652 42.3975 15.0633C42.3927 15.0624 42.389 15.0615 42.3865 15.0608C42.3839 15.0601 42.3827 15.0597 42.3828 15.0597C42.3828 15.0597 42.3844 15.0603 42.3873 15.0616C42.3902 15.0629 42.3948 15.0652 42.4007 15.0686C42.4122 15.0752 42.4311 15.0875 42.4536 15.1079C42.5001 15.1498 42.5633 15.2278 42.5977 15.3454L40.6786 15.9082Z" fill="#754C29" mask="url(#path-1-outside-1_2102_2629)"/>
<mask id="path-3-outside-2_2102_2629" maskUnits="userSpaceOnUse" x="0" y="0.625641" width="27" height="18" fill="black">
<rect fill="white" y="0.625641" width="27" height="18"/>
<path d="M20.4572 16.9682C20.1764 16.9682 19.9546 16.8965 19.7907 16.7521C19.6269 16.6078 19.5455 16.4026 19.5455 16.1366V14.0848H16.3567C16.0379 14.0848 15.7972 14.0132 15.6333 13.8688C15.4695 13.7244 15.3881 13.5192 15.3881 13.2532C15.3881 12.9873 15.4695 12.7821 15.6333 12.6377C15.7961 12.4933 16.0379 12.4217 16.3567 12.4217H24.5567C24.8754 12.4217 25.1162 12.4933 25.28 12.6377C25.4427 12.7821 25.5252 12.9873 25.5252 13.2532C25.5252 13.5192 25.4439 13.7244 25.28 13.8688C25.1162 14.0132 24.8754 14.0848 24.5567 14.0848H21.4247V16.1366C21.4247 16.4026 21.3433 16.6078 21.1795 16.7521C21.0156 16.8965 20.7938 16.9682 20.513 16.9682H20.4561H20.4572ZM20.377 10.4784C19.7996 11.0039 19.0105 11.4435 18.0085 11.7985C17.8268 11.8582 17.6663 11.8875 17.5303 11.8875C17.2116 11.8875 16.9686 11.7475 16.8014 11.4663C16.7256 11.348 16.6877 11.2188 16.6877 11.0777C16.6877 10.9366 16.7334 10.8074 16.8248 10.689C16.9162 10.5707 17.041 10.4784 17.2004 10.4122C17.9974 10.0865 18.5914 9.77062 18.9826 9.46339C19.3739 9.15616 19.5734 8.77403 19.5801 8.31482H17.8491C17.5827 8.31482 17.371 8.24425 17.2116 8.10421C17.0522 7.96417 16.9719 7.75682 16.9719 7.48324C16.9719 7.20967 17.05 7.01209 17.2049 6.86771C17.3609 6.72332 17.5749 6.65167 17.848 6.65167H23.0865C23.3596 6.65167 23.5747 6.72332 23.7296 6.86771C23.8857 7.01209 23.9626 7.21727 23.9626 7.48324C23.9626 7.74922 23.8846 7.9544 23.7296 8.09878C23.5736 8.24317 23.3596 8.31482 23.0865 8.31482H21.4013C21.4013 8.57428 21.3667 8.8218 21.2987 9.05846C22.2851 9.53178 23.0865 9.97145 23.7018 10.3786C23.9826 10.5555 24.1231 10.7813 24.1231 11.0549C24.1231 11.2177 24.0662 11.3914 23.9525 11.576C23.8768 11.6943 23.7742 11.7888 23.6449 11.8593C23.5156 11.9299 23.3752 11.9646 23.2236 11.9646C23.0341 11.9646 22.8591 11.9125 22.6998 11.8094C21.9329 11.3209 21.1583 10.8779 20.3759 10.4784H20.377Z"/>
<path d="M10.6632 11.9395C10.4565 11.8319 10.2236 11.7847 9.96602 11.801C9.83646 11.8092 9.70946 11.8327 9.58195 11.8733C8.88091 12.0755 8.18288 12.2249 7.48627 12.3216L7.37497 10.5631L4.71114 10.7317L4.82643 12.5534L2.82461 12.6801C2.37274 12.7087 2.0379 12.832 1.81862 13.0517C1.59934 13.2714 1.50214 13.5653 1.52536 13.9321C1.54857 14.2989 1.68205 14.5783 1.92728 14.7686C2.17093 14.959 2.52022 15.039 2.9721 15.0104L5.47477 14.852C6.53019 14.7852 7.45007 14.6821 8.23439 14.5427C9.0203 14.4032 9.75124 14.2223 10.4288 13.9999C10.7038 13.9083 10.9108 13.7714 11.0516 13.5892C11.1908 13.407 11.2531 13.1896 11.2371 12.9368C11.2265 12.7688 11.1897 12.6133 11.1266 12.4688C11.0237 12.2215 10.8698 12.0456 10.663 11.9364L10.6632 11.9395Z"/>
<path d="M16.0333 6.86382C15.8227 6.65379 15.5235 6.54878 15.1357 6.54878H14.3108V2.80855C14.3108 2.43021 14.1953 2.13834 13.9626 1.93295C13.7298 1.72756 13.4148 1.62564 13.0158 1.62564H12.9351C12.5362 1.62564 12.2211 1.72756 11.9884 1.93295C11.7557 2.13834 11.6401 2.43021 11.6401 2.80855V15.7635C11.6401 16.1418 11.7557 16.4337 11.9884 16.6391C12.2195 16.8445 12.5362 16.9464 12.9351 16.9464H13.0158C13.4148 16.9464 13.7298 16.8445 13.9626 16.6391C14.1937 16.4337 14.3108 16.1418 14.3108 15.7635V8.91615H15.1357C15.5235 8.91615 15.8227 8.81114 16.0333 8.60112C16.2439 8.3911 16.3483 8.10232 16.3483 7.73324C16.3483 7.36416 16.2439 7.07538 16.0333 6.86536V6.86382Z"/>
<path d="M1 5.38438V8.96324V8.98363C1 9.76358 1.24042 10.376 1.71958 10.8243C2.19875 11.2726 2.8494 11.4959 3.66817 11.4959H8.48669C9.30547 11.4959 9.93427 11.2726 10.3714 10.8243C10.8085 10.376 11.0271 9.76358 11.0271 8.98363V5.38438L10.901 5.20048L9.47192 2.76047C9.35927 2.56836 9.07682 2.56836 8.96417 2.76047L7.53005 5.18734H4.50208L3.08309 2.75883C2.97045 2.56672 2.68799 2.56672 2.57535 2.75883"/>
</mask>
<path d="M20.4572 16.9682C20.1764 16.9682 19.9546 16.8965 19.7907 16.7521C19.6269 16.6078 19.5455 16.4026 19.5455 16.1366V14.0848H16.3567C16.0379 14.0848 15.7972 14.0132 15.6333 13.8688C15.4695 13.7244 15.3881 13.5192 15.3881 13.2532C15.3881 12.9873 15.4695 12.7821 15.6333 12.6377C15.7961 12.4933 16.0379 12.4217 16.3567 12.4217H24.5567C24.8754 12.4217 25.1162 12.4933 25.28 12.6377C25.4427 12.7821 25.5252 12.9873 25.5252 13.2532C25.5252 13.5192 25.4439 13.7244 25.28 13.8688C25.1162 14.0132 24.8754 14.0848 24.5567 14.0848H21.4247V16.1366C21.4247 16.4026 21.3433 16.6078 21.1795 16.7521C21.0156 16.8965 20.7938 16.9682 20.513 16.9682H20.4561H20.4572ZM20.377 10.4784C19.7996 11.0039 19.0105 11.4435 18.0085 11.7985C17.8268 11.8582 17.6663 11.8875 17.5303 11.8875C17.2116 11.8875 16.9686 11.7475 16.8014 11.4663C16.7256 11.348 16.6877 11.2188 16.6877 11.0777C16.6877 10.9366 16.7334 10.8074 16.8248 10.689C16.9162 10.5707 17.041 10.4784 17.2004 10.4122C17.9974 10.0865 18.5914 9.77062 18.9826 9.46339C19.3739 9.15616 19.5734 8.77403 19.5801 8.31482H17.8491C17.5827 8.31482 17.371 8.24425 17.2116 8.10421C17.0522 7.96417 16.9719 7.75682 16.9719 7.48324C16.9719 7.20967 17.05 7.01209 17.2049 6.86771C17.3609 6.72332 17.5749 6.65167 17.848 6.65167H23.0865C23.3596 6.65167 23.5747 6.72332 23.7296 6.86771C23.8857 7.01209 23.9626 7.21727 23.9626 7.48324C23.9626 7.74922 23.8846 7.9544 23.7296 8.09878C23.5736 8.24317 23.3596 8.31482 23.0865 8.31482H21.4013C21.4013 8.57428 21.3667 8.8218 21.2987 9.05846C22.2851 9.53178 23.0865 9.97145 23.7018 10.3786C23.9826 10.5555 24.1231 10.7813 24.1231 11.0549C24.1231 11.2177 24.0662 11.3914 23.9525 11.576C23.8768 11.6943 23.7742 11.7888 23.6449 11.8593C23.5156 11.9299 23.3752 11.9646 23.2236 11.9646C23.0341 11.9646 22.8591 11.9125 22.6998 11.8094C21.9329 11.3209 21.1583 10.8779 20.3759 10.4784H20.377Z" fill="#C68B1A"/>
<path d="M10.6632 11.9395C10.4565 11.8319 10.2236 11.7847 9.96602 11.801C9.83646 11.8092 9.70946 11.8327 9.58195 11.8733C8.88091 12.0755 8.18288 12.2249 7.48627 12.3216L7.37497 10.5631L4.71114 10.7317L4.82643 12.5534L2.82461 12.6801C2.37274 12.7087 2.0379 12.832 1.81862 13.0517C1.59934 13.2714 1.50214 13.5653 1.52536 13.9321C1.54857 14.2989 1.68205 14.5783 1.92728 14.7686C2.17093 14.959 2.52022 15.039 2.9721 15.0104L5.47477 14.852C6.53019 14.7852 7.45007 14.6821 8.23439 14.5427C9.0203 14.4032 9.75124 14.2223 10.4288 13.9999C10.7038 13.9083 10.9108 13.7714 11.0516 13.5892C11.1908 13.407 11.2531 13.1896 11.2371 12.9368C11.2265 12.7688 11.1897 12.6133 11.1266 12.4688C11.0237 12.2215 10.8698 12.0456 10.663 11.9364L10.6632 11.9395Z" fill="#C68B1A"/>
<path d="M16.0333 6.86382C15.8227 6.65379 15.5235 6.54878 15.1357 6.54878H14.3108V2.80855C14.3108 2.43021 14.1953 2.13834 13.9626 1.93295C13.7298 1.72756 13.4148 1.62564 13.0158 1.62564H12.9351C12.5362 1.62564 12.2211 1.72756 11.9884 1.93295C11.7557 2.13834 11.6401 2.43021 11.6401 2.80855V15.7635C11.6401 16.1418 11.7557 16.4337 11.9884 16.6391C12.2195 16.8445 12.5362 16.9464 12.9351 16.9464H13.0158C13.4148 16.9464 13.7298 16.8445 13.9626 16.6391C14.1937 16.4337 14.3108 16.1418 14.3108 15.7635V8.91615H15.1357C15.5235 8.91615 15.8227 8.81114 16.0333 8.60112C16.2439 8.3911 16.3483 8.10232 16.3483 7.73324C16.3483 7.36416 16.2439 7.07538 16.0333 6.86536V6.86382Z" fill="#C68B1A"/>
<path d="M1 5.38438V8.96324V8.98363C1 9.76358 1.24042 10.376 1.71958 10.8243C2.19875 11.2726 2.8494 11.4959 3.66817 11.4959H8.48669C9.30547 11.4959 9.93427 11.2726 10.3714 10.8243C10.8085 10.376 11.0271 9.76358 11.0271 8.98363V5.38438L10.901 5.20048L9.47192 2.76047C9.35927 2.56836 9.07682 2.56836 8.96417 2.76047L7.53005 5.18734H4.50208L3.08309 2.75883C2.97045 2.56672 2.68799 2.56672 2.57535 2.75883" fill="#C68B1A"/>
<path d="M20.4572 16.9682C20.1764 16.9682 19.9546 16.8965 19.7907 16.7521C19.6269 16.6078 19.5455 16.4026 19.5455 16.1366V14.0848H16.3567C16.0379 14.0848 15.7972 14.0132 15.6333 13.8688C15.4695 13.7244 15.3881 13.5192 15.3881 13.2532C15.3881 12.9873 15.4695 12.7821 15.6333 12.6377C15.7961 12.4933 16.0379 12.4217 16.3567 12.4217H24.5567C24.8754 12.4217 25.1162 12.4933 25.28 12.6377C25.4427 12.7821 25.5252 12.9873 25.5252 13.2532C25.5252 13.5192 25.4439 13.7244 25.28 13.8688C25.1162 14.0132 24.8754 14.0848 24.5567 14.0848H21.4247V16.1366C21.4247 16.4026 21.3433 16.6078 21.1795 16.7521C21.0156 16.8965 20.7938 16.9682 20.513 16.9682H20.4561H20.4572ZM20.377 10.4784C19.7996 11.0039 19.0105 11.4435 18.0085 11.7985C17.8268 11.8582 17.6663 11.8875 17.5303 11.8875C17.2116 11.8875 16.9686 11.7475 16.8014 11.4663C16.7256 11.348 16.6877 11.2188 16.6877 11.0777C16.6877 10.9366 16.7334 10.8074 16.8248 10.689C16.9162 10.5707 17.041 10.4784 17.2004 10.4122C17.9974 10.0865 18.5914 9.77062 18.9826 9.46339C19.3739 9.15616 19.5734 8.77403 19.5801 8.31482H17.8491C17.5827 8.31482 17.371 8.24425 17.2116 8.10421C17.0522 7.96417 16.9719 7.75682 16.9719 7.48324C16.9719 7.20967 17.05 7.01209 17.2049 6.86771C17.3609 6.72332 17.5749 6.65167 17.848 6.65167H23.0865C23.3596 6.65167 23.5747 6.72332 23.7296 6.86771C23.8857 7.01209 23.9626 7.21727 23.9626 7.48324C23.9626 7.74922 23.8846 7.9544 23.7296 8.09878C23.5736 8.24317 23.3596 8.31482 23.0865 8.31482H21.4013C21.4013 8.57428 21.3667 8.8218 21.2987 9.05846C22.2851 9.53178 23.0865 9.97145 23.7018 10.3786C23.9826 10.5555 24.1231 10.7813 24.1231 11.0549C24.1231 11.2177 24.0662 11.3914 23.9525 11.576C23.8768 11.6943 23.7742 11.7888 23.6449 11.8593C23.5156 11.9299 23.3752 11.9646 23.2236 11.9646C23.0341 11.9646 22.8591 11.9125 22.6998 11.8094C21.9329 11.3209 21.1583 10.8779 20.3759 10.4784H20.377Z" stroke="#754C29" stroke-width="2" mask="url(#path-3-outside-2_2102_2629)"/>
<path d="M10.6632 11.9395C10.4565 11.8319 10.2236 11.7847 9.96602 11.801C9.83646 11.8092 9.70946 11.8327 9.58195 11.8733C8.88091 12.0755 8.18288 12.2249 7.48627 12.3216L7.37497 10.5631L4.71114 10.7317L4.82643 12.5534L2.82461 12.6801C2.37274 12.7087 2.0379 12.832 1.81862 13.0517C1.59934 13.2714 1.50214 13.5653 1.52536 13.9321C1.54857 14.2989 1.68205 14.5783 1.92728 14.7686C2.17093 14.959 2.52022 15.039 2.9721 15.0104L5.47477 14.852C6.53019 14.7852 7.45007 14.6821 8.23439 14.5427C9.0203 14.4032 9.75124 14.2223 10.4288 13.9999C10.7038 13.9083 10.9108 13.7714 11.0516 13.5892C11.1908 13.407 11.2531 13.1896 11.2371 12.9368C11.2265 12.7688 11.1897 12.6133 11.1266 12.4688C11.0237 12.2215 10.8698 12.0456 10.663 11.9364L10.6632 11.9395Z" stroke="#754C29" stroke-width="2" mask="url(#path-3-outside-2_2102_2629)"/>
<path d="M16.0333 6.86382C15.8227 6.65379 15.5235 6.54878 15.1357 6.54878H14.3108V2.80855C14.3108 2.43021 14.1953 2.13834 13.9626 1.93295C13.7298 1.72756 13.4148 1.62564 13.0158 1.62564H12.9351C12.5362 1.62564 12.2211 1.72756 11.9884 1.93295C11.7557 2.13834 11.6401 2.43021 11.6401 2.80855V15.7635C11.6401 16.1418 11.7557 16.4337 11.9884 16.6391C12.2195 16.8445 12.5362 16.9464 12.9351 16.9464H13.0158C13.4148 16.9464 13.7298 16.8445 13.9626 16.6391C14.1937 16.4337 14.3108 16.1418 14.3108 15.7635V8.91615H15.1357C15.5235 8.91615 15.8227 8.81114 16.0333 8.60112C16.2439 8.3911 16.3483 8.10232 16.3483 7.73324C16.3483 7.36416 16.2439 7.07538 16.0333 6.86536V6.86382Z" stroke="#754C29" stroke-width="2" mask="url(#path-3-outside-2_2102_2629)"/>
<path d="M1 5.38438V8.96324V8.98363C1 9.76358 1.24042 10.376 1.71958 10.8243C2.19875 11.2726 2.8494 11.4959 3.66817 11.4959H8.48669C9.30547 11.4959 9.93427 11.2726 10.3714 10.8243C10.8085 10.376 11.0271 9.76358 11.0271 8.98363V5.38438L10.901 5.20048L9.47192 2.76047C9.35927 2.56836 9.07682 2.56836 8.96417 2.76047L7.53005 5.18734H4.50208L3.08309 2.75883C2.97045 2.56672 2.68799 2.56672 2.57535 2.75883" stroke="#754C29" stroke-width="2" mask="url(#path-3-outside-2_2102_2629)"/>
<path d="M6.92206 8.95554C6.92206 9.01271 6.91659 9.04909 6.90382 9.06295C6.89105 9.07681 6.85639 9.08374 6.80167 9.08374H4.81696C4.76588 9.08374 4.73669 9.07855 4.72575 9.06642C4.7148 9.05429 4.71116 9.01791 4.71116 8.95554V8.72338C4.71116 8.44791 4.9483 8.22269 5.23834 8.22269H6.39305C6.68492 8.22269 6.92024 8.44791 6.92024 8.72338V8.95554H6.92206Z" fill="#754C29"/>
<path d="M4.15842 6.71274C4.15842 6.87157 4.01701 7.00033 3.84258 7.00033C3.66814 7.00033 3.52673 6.87157 3.52673 6.71274C3.52673 6.5539 3.66814 6.42514 3.84258 6.42514C4.01701 6.42514 4.15842 6.5539 4.15842 6.71274Z" fill="#754C29"/>
<path d="M8.10647 6.71277C8.10647 6.8716 7.96506 7.00036 7.79063 7.00036C7.61619 7.00036 7.47478 6.8716 7.47478 6.71277C7.47478 6.55393 7.61619 6.42517 7.79063 6.42517C7.96506 6.42517 8.10647 6.55393 8.10647 6.71277Z" fill="#754C29"/>
</svg>
