<svg width="13" height="13" viewBox="0 0 13 13" fill="none" xmlns="http://www.w3.org/2000/svg">
<g id="Icon/search">
<path id="Vector" d="M5.4318 2C4.70361 2 3.99177 2.21593 3.3863 2.62049C2.78083 3.02506 2.30893 3.60007 2.03026 4.27283C1.7516 4.94559 1.67868 5.68588 1.82075 6.40008C1.96281 7.11428 2.31347 7.77031 2.82838 8.28522C3.34328 8.80013 3.99932 9.15079 4.71352 9.29285C5.42771 9.43491 6.168 9.362 6.84076 9.08333C7.51352 8.80467 8.08854 8.33276 8.4931 7.72729C8.89766 7.12183 9.1136 6.40999 9.1136 5.6818C9.11353 4.70534 8.72561 3.7689 8.03515 3.07844C7.3447 2.38798 6.40825 2.00006 5.4318 2Z" stroke="#333333" stroke-width="1.25" stroke-miterlimit="10"/>
<path id="Vector_2" d="M8.17867 8.42871L10.75 11" stroke="#333333" stroke-width="1.25" stroke-miterlimit="10" stroke-linecap="round"/>
</g>
</svg>
