<svg width="149" height="149" viewBox="0 0 149 149" fill="none" xmlns="http://www.w3.org/2000/svg">
<g id="splashImg">
<g id="Group">
<path id="Vector" d="M96.0143 52.4347C95.1741 52.0723 94.3999 51.6934 93.6915 51.2816C92.9832 50.8862 92.3407 50.4744 91.7641 50.0296L93.2138 49.1236C95.0753 50.1614 96.8709 51.018 98.5842 51.6934C100.297 52.3689 102.126 52.9125 104.053 53.3078C105.981 53.7032 108.122 53.9833 110.462 54.1645C112.801 54.3457 115.535 54.4116 118.616 54.4116V45.071C115.157 45.071 112.438 44.8075 110.478 44.2803C108.518 43.7532 107.183 42.8142 106.491 41.4798H118.616V32.1393H76.2954V41.4798H88.3705C87.6787 42.8142 86.3443 43.7367 84.4004 44.2803C82.4565 44.8239 79.7549 45.071 76.2954 45.071V54.4116C80.3809 54.4445 84.005 54.3127 87.135 54.0162C90.265 53.7197 93.2303 53.1925 96.0143 52.4183V52.4347Z" fill="#C68B1A"/>
<g id="Group_2">
<path id="Vector_2" d="M38.754 77.2818C39.227 78.0244 39.5109 78.8933 39.5109 79.8413C39.5109 82.464 37.3979 84.5811 34.7804 84.5811C32.9671 84.5811 31.4061 83.5541 30.6176 82.0532V88.8469C30.6176 89.2735 30.9645 89.6052 31.3903 89.5737C31.9264 89.5263 32.4783 89.4631 33.0617 89.3525C33.929 89.2103 34.7331 88.9891 35.5058 88.7047V93.8237C35.5058 95.5458 35.3796 97.0151 35.1431 98.2001C34.9066 99.4008 34.5754 100.38 34.1339 101.17C33.7082 101.96 33.1878 102.561 32.6044 103.019C32.021 103.461 31.3587 103.777 30.6176 103.983V104.457C30.6176 104.457 30.5388 104.425 30.4915 104.425C29.6085 104.425 28.8989 105.136 28.8989 106.021C28.8989 106.905 29.6085 107.616 30.4915 107.616C30.5388 107.616 30.5703 107.601 30.6176 107.585V109.086C29.7346 109.086 29.0251 109.797 29.0251 110.682C29.0251 111.566 29.7346 112.277 30.6176 112.277V116.527C32.9356 116.401 35.0958 115.879 37.0983 114.979C39.0851 114.063 40.8196 112.799 42.286 111.171C43.7525 109.544 44.8878 107.553 45.7077 105.215C46.5277 102.877 46.9219 100.191 46.9219 97.1889V77.2186H38.7698L38.754 77.2818Z" fill="#FFD233"/>
<path id="Vector (Stroke)" fill-rule="evenodd" clip-rule="evenodd" d="M36.9148 78.4534C36.5934 77.9489 36.4934 77.3345 36.6382 76.7541L36.6539 76.6909C36.8962 75.7197 37.7686 75.0382 38.7696 75.0382H46.9217C48.1259 75.0382 49.1022 76.0144 49.1022 77.2187V97.189C49.1022 100.375 48.6845 103.315 47.7652 105.937C46.8646 108.505 45.5937 110.758 43.9057 112.631C42.2366 114.483 40.2599 115.922 38.0114 116.959L37.9925 116.968C35.736 117.982 33.3118 118.564 30.7362 118.705C30.1382 118.737 29.5531 118.522 29.1182 118.111C28.6833 117.699 28.437 117.126 28.437 116.527V113.766C27.4719 113.082 26.8444 111.955 26.8444 110.682C26.8444 109.839 27.1193 109.06 27.5849 108.432C27.0432 107.778 26.7183 106.937 26.7183 106.021C26.7183 104.481 27.6358 103.156 28.9582 102.568C29.2336 102.245 29.6041 102.001 30.0351 101.881C30.531 101.744 30.9334 101.546 31.272 101.293C31.6082 101.026 31.9309 100.662 32.2143 100.136C32.2196 100.126 32.2249 100.116 32.2304 100.107C32.5269 99.5761 32.7961 98.8319 33.0035 97.7788L33.0046 97.7733C33.2051 96.7689 33.3251 95.45 33.3251 93.8238V91.5212C32.6983 91.6339 32.116 91.6986 31.5821 91.7458L31.5515 91.7483C29.823 91.8765 28.437 90.5026 28.437 88.847V82.0533C28.437 81.0502 29.1214 80.1765 30.0953 79.9362C31.0692 79.696 32.0814 80.1512 32.5479 81.0393C32.9789 81.86 33.8181 82.4007 34.7803 82.4007C36.1894 82.4007 37.3302 81.2639 37.3302 79.8414C37.3302 79.3415 37.1832 78.8748 36.9148 78.4534ZM35.5056 93.8238C35.5056 95.5459 35.3794 97.0152 35.1429 98.2002C34.9064 99.4009 34.5753 100.38 34.1338 101.17C33.708 101.96 33.1877 102.561 32.6043 103.019C32.078 103.418 31.4875 103.714 30.8329 103.919C30.7618 103.941 30.69 103.963 30.6175 103.983V104.457C30.6175 104.457 30.5386 104.425 30.4913 104.425C30.3821 104.425 30.2756 104.436 30.1727 104.457C29.4437 104.604 28.8987 105.245 28.8987 106.021C28.8987 106.451 29.0664 106.84 29.3402 107.126C29.56 107.356 29.8481 107.52 30.1727 107.585C30.2756 107.606 30.3821 107.617 30.4913 107.617C30.5288 107.617 30.5563 107.607 30.5896 107.595C30.5984 107.592 30.6076 107.588 30.6175 107.585V109.086C30.575 109.086 30.5329 109.088 30.4913 109.091C30.0579 109.124 29.6745 109.33 29.4086 109.64C29.1692 109.919 29.0249 110.283 29.0249 110.682C29.0249 111.566 29.7345 112.277 30.6175 112.277V116.527C31.3605 116.487 32.0873 116.406 32.798 116.285C34.3042 116.028 35.7376 115.591 37.0982 114.979C39.0849 114.063 40.8194 112.799 42.2859 111.171C43.7523 109.544 44.8876 107.553 45.7075 105.215C46.5275 102.877 46.9217 100.191 46.9217 97.189V77.2187H38.7696L38.7538 77.2819C38.7591 77.2902 38.7643 77.2985 38.7696 77.3068C39.1593 77.9264 39.4175 78.6329 39.4899 79.3992C39.5036 79.5445 39.5107 79.692 39.5107 79.8414C39.5107 82.4641 37.3978 84.5812 34.7803 84.5812C34.0704 84.5812 33.3993 84.4238 32.798 84.1422C31.8632 83.7045 31.0973 82.9667 30.6175 82.0533V88.847C30.6175 89.2736 30.9644 89.6053 31.3901 89.5737C31.9262 89.5264 32.4781 89.4632 33.0615 89.3526C33.15 89.338 33.2379 89.3227 33.3251 89.3066C34.0926 89.1646 34.8118 88.9602 35.5056 88.7048V93.8238Z" fill="#C68B1A"/>
<path id="Vector_3" d="M34.7161 84.0374C37.4507 84.0374 39.6582 81.83 39.6582 79.0954C39.6582 78.1069 39.3616 77.2009 38.8674 76.4266H35.2927C32.558 76.4266 30.3506 78.6341 30.3506 81.3687V81.4017C31.1743 82.9666 32.8052 84.0374 34.6996 84.0374H34.7161Z" fill="#754C29"/>
<path id="Vector (Stroke)_2" fill-rule="evenodd" clip-rule="evenodd" d="M38.8677 74.2462C39.6122 74.2462 40.3052 74.626 40.7057 75.2536C41.405 76.3491 41.839 77.658 41.839 79.0955C41.839 83.0343 38.6553 86.218 34.7164 86.218H34.6999C31.9565 86.218 29.6034 84.6631 28.4213 82.4173C28.2565 82.1042 28.1704 81.7556 28.1704 81.4018V81.3688C28.1704 77.4299 31.3541 74.2462 35.293 74.2462H38.8677ZM30.3509 81.4018V81.3688C30.3509 78.6342 32.5584 76.4267 35.293 76.4267H38.8677C39.362 77.201 39.6585 78.107 39.6585 79.0955C39.6585 81.8301 37.451 84.0375 34.7164 84.0375H34.6999C32.8055 84.0375 31.1746 82.9667 30.3509 81.4018Z" fill="#C68B1A"/>
</g>
<g id="Group_3">
<path id="Vector_4" d="M89.7708 73.1581H105.141V66.058H118.616V55.482H76.2954V66.058H89.7708V73.1581Z" fill="#C68B1A"/>
<path id="Vector_5" d="M62.0724 91.5456H60.8258V77.3737H49.874V116.682H60.8258V102.179H62.0724V116.682H73.0242V77.3737H62.0724V91.5456Z" fill="#FFD233"/>
<path id="Vector (Stroke)_3" fill-rule="evenodd" clip-rule="evenodd" d="M60.8256 91.5457H62.0723V77.3738H73.024V116.682H62.0723V102.179H60.8256V116.682H49.8738V77.3738H60.8256V91.5457ZM61.4489 75.2837C61.6464 75.2249 61.8556 75.1933 62.0723 75.1933H73.024C74.2283 75.1933 75.2045 76.1695 75.2045 77.3738V116.682C75.2045 117.887 74.2283 118.863 73.024 118.863H62.0723C61.8556 118.863 61.6464 118.831 61.4489 118.772C61.2514 118.831 61.0422 118.863 60.8256 118.863H49.8738C48.6696 118.863 47.6934 117.887 47.6934 116.682V77.3738C47.6934 76.1695 48.6696 75.1933 49.8738 75.1933H60.8256C61.0422 75.1933 61.2514 75.2249 61.4489 75.2837Z" fill="#C68B1A"/>
<path id="Vector_6" d="M118.858 84.9719V78.9973H115.216V77.3737H100.872V85.2556C99.7794 85.8231 98.5603 86.2487 97.1829 86.501C95.8054 86.7532 94.3171 86.8793 92.718 86.8793C92.053 86.8793 91.5147 86.7059 91.1031 86.3749C90.7072 86.0438 90.5014 85.5709 90.5014 84.9719V77.3737H76.4419V87.7936C76.4419 89.5749 76.6002 91.0883 76.9169 92.3021C77.2335 93.5317 77.8035 94.5248 78.6427 95.2815C79.466 96.0381 80.6218 96.5899 82.0784 96.9367C83.535 97.2677 85.4033 97.4411 87.6673 97.4411C93.2247 97.4411 97.6262 96.7475 100.856 95.3445V97.8825H115.201V95.4864H118.842V88.8495H115.201V85.5018H118.842L118.858 84.9719Z" fill="#FFD233"/>
<path id="Vector (Stroke)_4" fill-rule="evenodd" clip-rule="evenodd" d="M121.039 84.972C121.039 84.9937 121.038 85.0154 121.038 85.0371L121.022 85.567C121.003 86.2147 120.702 86.7894 120.24 87.1757C120.718 87.5757 121.023 88.1771 121.023 88.8496V95.4865C121.023 96.6908 120.047 97.667 118.842 97.667H117.381V97.8826C117.381 99.0869 116.405 100.063 115.201 100.063H100.856C99.8242 100.063 98.9595 99.3459 98.7335 98.3827C95.6209 99.2309 91.91 99.6217 87.6677 99.6217C85.3085 99.6217 83.2651 99.4425 81.5955 99.0631L81.5736 99.058C79.8858 98.6561 78.354 97.9744 77.1751 96.894C75.9785 95.8121 75.2132 94.4265 74.8065 92.8494C74.4282 91.3976 74.2617 89.6866 74.2617 87.7937V77.3738C74.2617 76.1695 75.238 75.1933 76.4422 75.1933H90.5017C91.706 75.1933 92.6822 76.1695 92.6822 77.3738V84.6985C92.6937 84.6988 92.7058 84.6989 92.7183 84.6989C94.2039 84.6989 95.5592 84.5817 96.7904 84.3562C97.4756 84.2308 98.1066 84.0565 98.6917 83.8402V77.3738C98.6917 76.1695 99.668 75.1933 100.872 75.1933H115.217C116.229 75.1933 117.079 75.8824 117.325 76.817H118.858C120.063 76.817 121.039 77.7932 121.039 78.9974V84.972ZM76.9172 92.3022C76.6005 91.0884 76.4422 89.575 76.4422 87.7937V77.3738H90.5017V84.972C90.5017 85.571 90.7076 86.0439 91.1034 86.375C91.515 86.706 92.0533 86.8794 92.7183 86.8794C94.3174 86.8794 95.8057 86.7533 97.1832 86.5011C98.5606 86.2488 99.7797 85.8232 100.872 85.2557V77.3738H115.217V78.9974H118.858V84.972L118.842 85.5019H115.201V88.8496H118.842V95.4865H115.201V97.8826H100.856V95.3446C100.181 95.6381 99.4539 95.9005 98.6759 96.1321C95.7345 97.0074 92.0625 97.4412 87.6677 97.4412C85.4036 97.4412 83.5353 97.2678 82.0787 96.9368C80.6221 96.59 79.4663 96.0382 78.643 95.2816C77.8038 94.5249 77.2338 93.5318 76.9172 92.3022Z" fill="#C68B1A"/>
<path id="Vector_7" d="M113.865 107.255C113.121 106.15 111.997 105.235 110.46 104.54C108.924 103.83 106.976 103.325 104.6 102.994C102.224 102.662 99.4211 102.505 96.1743 102.505C94.4004 102.505 92.785 102.552 91.2645 102.662C91.2328 102.536 91.1695 102.41 91.0586 102.315L88.2711 99.7745C87.8593 99.4115 87.21 99.6166 87.0991 100.153L86.418 103.231C86.323 103.246 86.228 103.262 86.1488 103.278C86.1488 103.278 86.1488 103.246 86.1171 103.231L83.3296 100.69C82.9178 100.327 82.2685 100.532 82.1576 101.069L81.3499 104.746C81.3499 104.746 81.3499 104.809 81.3499 104.84C80.0987 105.503 79.1325 106.308 78.4832 107.271C77.7546 108.375 77.3745 109.732 77.3745 111.311C77.3745 112.889 77.7388 114.246 78.4832 115.351C79.2117 116.455 80.3521 117.371 81.8884 118.065C83.4247 118.775 85.3727 119.28 87.7484 119.612C90.1242 119.943 92.9275 120.101 96.1743 120.101C99.4211 120.101 102.224 119.943 104.6 119.612C106.976 119.28 108.924 118.759 110.46 118.065C111.997 117.355 113.121 116.455 113.865 115.351C114.594 114.246 114.974 112.889 114.974 111.311C114.974 109.732 114.61 108.375 113.865 107.271V107.255ZM96.1585 112.037C95.0973 111.879 94.052 111.642 93.0225 111.358C92.0564 111.09 91.1378 110.758 90.2667 110.364C90.2509 110.364 90.235 110.364 90.2192 110.348C90.1875 110.348 90.1558 110.332 90.14 110.316C89.9341 110.174 89.7916 109.953 89.7916 109.701C89.7916 109.306 90.1242 108.975 90.5201 108.975C90.6627 108.975 90.7894 109.022 90.9002 109.085C91.6921 109.448 92.5474 109.764 93.466 110.017C94.4638 110.301 95.4616 110.522 96.4594 110.695C97.473 110.853 98.4867 110.979 99.5003 111.027C100.387 111.074 101.242 111.074 102.066 111.027C101.971 111.2 101.924 111.405 101.924 111.61C101.924 111.879 102.019 112.115 102.161 112.321C101.258 112.368 100.324 112.384 99.3578 112.336C98.2966 112.289 97.2196 112.194 96.1585 112.021V112.037Z" fill="#FFD233"/>
<path id="Vector (Stroke)_5" fill-rule="evenodd" clip-rule="evenodd" d="M115.789 106.229C116.742 107.727 117.154 109.468 117.154 111.311C117.154 113.246 116.685 115.036 115.686 116.552L115.674 116.57C114.656 118.08 113.18 119.21 111.375 120.045L111.358 120.052C109.576 120.858 107.412 121.421 104.901 121.772C102.395 122.121 99.4846 122.282 96.1741 122.282C92.8637 122.282 89.9536 122.121 87.447 121.772C84.9551 121.424 82.7804 120.879 80.9817 120.049C79.1712 119.229 77.6734 118.08 76.6687 116.561C75.6375 115.026 75.1938 113.224 75.1938 111.311C75.1938 109.377 75.6632 107.586 76.6627 106.071L76.6753 106.052C77.3799 105.007 78.316 104.154 79.4007 103.456L80.0256 100.611C80.4992 98.3801 83.1605 97.6346 84.7713 99.0545C84.7804 99.0625 84.7894 99.0706 84.7983 99.0787L85.0697 99.3261C85.7428 97.3864 88.1944 96.8008 89.7128 98.1392C89.7218 98.1472 89.7309 98.1553 89.7398 98.1634L92.2144 100.419C93.4679 100.353 94.7791 100.325 96.1741 100.325C99.4846 100.325 102.395 100.485 104.901 100.835C107.393 101.182 109.568 101.728 111.367 102.558C113.194 103.385 114.663 104.537 115.674 106.037C115.716 106.099 115.754 106.164 115.789 106.229ZM110.46 104.541C111.996 105.235 113.121 106.151 113.865 107.255V107.271C114.61 108.376 114.974 109.733 114.974 111.311C114.974 112.889 114.594 114.246 113.865 115.351C113.121 116.456 111.996 117.355 110.46 118.065C108.924 118.76 106.976 119.281 104.6 119.612C102.224 119.943 99.4209 120.101 96.1741 120.101C92.9273 120.101 90.124 119.943 87.7483 119.612C85.3726 119.281 83.4245 118.776 81.8882 118.065C80.3519 117.371 79.2116 116.456 78.483 115.351C77.7386 114.246 77.3743 112.889 77.3743 111.311C77.3743 109.733 77.7545 108.376 78.483 107.271C79.1324 106.308 80.0985 105.504 81.3497 104.841V104.746L82.1574 101.069C82.2683 100.532 82.9177 100.327 83.3294 100.69L86.117 103.231C86.1341 103.24 86.142 103.253 86.1456 103.263C86.1486 103.272 86.1486 103.278 86.1486 103.278C86.2278 103.263 86.3227 103.247 86.4177 103.231L87.0989 100.154C87.2098 99.6171 87.8591 99.4119 88.2709 99.7749L89.2236 100.643L91.0584 102.316C91.1693 102.41 91.2326 102.537 91.2643 102.663C92.7848 102.552 94.4003 102.505 96.1741 102.505C99.4209 102.505 102.224 102.663 104.6 102.994C106.976 103.326 108.924 103.831 110.46 104.541ZM89.2343 100.595C89.2327 100.603 89.2311 100.61 89.2294 100.618L89.2343 100.595ZM84.2928 101.51C84.2914 101.517 84.2899 101.524 84.2885 101.531L84.2928 101.51ZM91.4263 110.842C91.9431 111.034 92.4751 111.206 93.0224 111.358C93.0414 111.364 93.0604 111.369 93.0795 111.374C93.0836 111.375 93.0877 111.376 93.0918 111.378C93.3984 111.461 93.7064 111.541 94.0158 111.616C94.6886 111.778 95.3679 111.916 96.0539 112.021C96.0878 112.026 96.1218 112.032 96.1558 112.037C96.1566 112.037 96.1574 112.037 96.1583 112.037V112.021C96.1591 112.021 96.1598 112.021 96.1606 112.022C96.1826 112.025 96.2046 112.029 96.2267 112.032C96.2346 112.034 96.2426 112.035 96.2505 112.036C96.2524 112.036 96.2543 112.037 96.2562 112.037C96.9427 112.146 97.6354 112.223 98.3257 112.275C98.6706 112.301 99.0149 112.322 99.3576 112.337C99.3817 112.338 99.4059 112.339 99.43 112.34C99.4329 112.34 99.4359 112.341 99.4388 112.341C99.5689 112.347 99.6985 112.351 99.8275 112.355C100.62 112.378 101.391 112.361 102.14 112.322C102.147 112.322 102.154 112.321 102.161 112.321C102.153 112.31 102.146 112.299 102.138 112.288C102.008 112.09 101.923 111.865 101.923 111.611C101.923 111.406 101.971 111.201 102.066 111.027C101.332 111.069 100.574 111.074 99.7896 111.041C99.6935 111.037 99.597 111.032 99.5001 111.027C99.4741 111.026 99.448 111.024 99.422 111.023C99.42 111.023 99.4181 111.023 99.4162 111.023C98.4305 110.973 97.4449 110.849 96.4592 110.696C96.432 110.691 96.4047 110.686 96.3775 110.681C96.3718 110.68 96.3661 110.679 96.3604 110.678C95.8259 110.584 95.2915 110.475 94.757 110.351C94.3266 110.25 93.8962 110.14 93.4658 110.017C93.4438 110.011 93.4218 110.005 93.3999 109.999C93.3992 109.999 93.3984 109.998 93.3977 109.998C92.9006 109.859 92.4222 109.702 91.9625 109.529C91.7374 109.444 91.5167 109.355 91.3005 109.263C91.2746 109.252 91.2488 109.241 91.223 109.23C91.1372 109.193 91.0521 109.155 90.9677 109.117C90.9451 109.106 90.9225 109.096 90.9 109.086C90.8857 109.078 90.8711 109.07 90.8562 109.062C90.7561 109.011 90.644 108.975 90.5199 108.975C90.4313 108.975 90.3458 108.992 90.2665 109.022C90.2504 109.028 90.2346 109.035 90.219 109.042C89.9689 109.159 89.7914 109.413 89.7914 109.701C89.7914 109.954 89.9339 110.175 90.1398 110.317C90.1498 110.327 90.166 110.337 90.1845 110.343C90.1954 110.346 90.2072 110.348 90.219 110.348C90.2348 110.364 90.2507 110.364 90.2665 110.364C90.2796 110.37 90.2928 110.376 90.306 110.382C90.377 110.414 90.4483 110.445 90.5199 110.477C90.8167 110.605 91.1188 110.727 91.4263 110.842Z" fill="#C68B1A"/>
</g>
<path id="Exclude" fill-rule="evenodd" clip-rule="evenodd" d="M70.6781 32.1724H70.711L70.6781 32.1559V32.1724ZM70.6781 32.1724H57.285V61.6272C55.5224 61.9237 53.595 62.072 51.4863 62.072H50.745V59.5845H55.8848V32.1724H43.9579V36.6697H42.3105V32.1724H30.3837V55.2849C30.3837 56.784 30.7296 57.8712 31.405 58.5466C32.0804 59.2221 33.1842 59.568 34.6668 59.568H35.3587V62.0555H30.3672V73.1422H50.9756C52.1123 73.1422 53.1996 73.0269 54.2374 72.7963C55.2917 72.5657 56.2966 72.2362 57.2521 71.7914V73.1422H70.6781V56.9652H74.467V45.1866H70.6781V32.1724ZM48.5046 41.1338C48.5376 41.1503 48.6035 41.1668 48.6035 41.1668L48.587 41.1833C49.559 41.5292 49.8884 42.7647 49.6248 43.7037C49.3283 45.1863 48.0763 46.669 46.4784 46.6525C46.2972 46.636 46.116 46.5866 45.9512 46.4878C44.864 45.8123 44.8805 44.2309 45.4241 43.193C45.9677 42.0234 47.1538 40.9032 48.5046 41.1338ZM41.0751 40.3431C41.4704 39.6183 42.3765 39.0252 43.1837 39.2888H43.2001C43.3155 39.3217 43.4143 39.3712 43.5296 39.4535C44.6992 40.2772 44.831 41.9905 44.4027 43.2754C44.1062 44.2638 43.2331 45.3017 42.1129 45.104C41.9482 45.0875 41.7999 45.0216 41.6681 44.9392C40.2678 43.9014 40.2678 41.7763 41.0751 40.3431ZM47.0714 48.6623C47.6645 47.4103 49.0977 46.356 50.4979 46.7678L50.5144 46.7843C51.4864 47.1796 51.6182 48.4646 51.2063 49.3377C50.6792 50.6885 49.0977 51.924 47.6315 51.4134C46.5937 50.9521 46.5608 49.5354 47.0714 48.6623ZM36.7095 43.2754C37.1049 42.7318 37.8133 42.5835 38.3899 42.7977V42.8306C38.6205 42.913 38.8346 43.0448 38.9994 43.2425C40.0537 44.3297 40.2349 46.2407 39.3618 47.5091C38.95 48.1022 38.1428 48.4316 37.4838 48.0527C35.9188 47.1138 35.6223 44.7086 36.7095 43.2754ZM39.9384 48.2504C40.9927 47.6409 42.3765 47.4597 43.5131 47.8715V47.8551C44.0732 48.0527 44.5839 48.3822 44.9628 48.8764C45.9273 50.0698 46.2754 51.6362 46.6026 53.109L46.6102 53.1431C46.6122 53.1611 46.6142 53.1792 46.6162 53.1973C46.7141 54.0752 46.8285 55.102 46.2313 55.8283C45.5394 56.5202 44.4521 56.2566 43.8097 55.6635C43.6483 55.5262 43.4905 55.381 43.3322 55.2353C42.7312 54.6823 42.1238 54.1232 41.2892 53.9668C40.7357 53.8053 40.1571 53.8197 39.5784 53.834C38.9172 53.8504 38.2559 53.8668 37.6321 53.6208C36.6601 53.2749 36.3307 51.957 36.9731 51.1333C37.698 49.9472 38.7688 48.9917 39.9384 48.2504Z" fill="#C68B1A"/>
<path id="Ellipse 8" d="M84.5211 104.875C84.5211 105.132 84.3124 105.341 84.055 105.341C83.7976 105.341 83.5889 105.132 83.5889 104.875C83.5889 104.618 83.7976 104.409 84.055 104.409C84.3124 104.409 84.5211 104.618 84.5211 104.875Z" fill="#C68B1A"/>
<path id="Ellipse 9" d="M89.338 103.477C89.338 103.734 89.1293 103.943 88.8719 103.943C88.6144 103.943 88.4058 103.734 88.4058 103.477C88.4058 103.219 88.6144 103.01 88.8719 103.01C89.1293 103.01 89.338 103.219 89.338 103.477Z" fill="#C68B1A"/>
</g>
<path id="Vector_8" d="M74.5 0C33.3528 0 0 33.3528 0 74.5C0 115.647 33.3528 149 74.5 149C115.647 149 149 115.647 149 74.5C149 33.3528 115.647 0 74.5 0ZM74.5 139.63C38.5262 139.63 9.37032 110.474 9.37032 74.5C9.37032 38.5262 38.5262 9.37032 74.5 9.37032C110.474 9.37032 139.63 38.5262 139.63 74.5C139.63 110.474 110.474 139.63 74.5 139.63Z" fill="url(#paint0_linear_104_627)"/>
</g>
<defs>
<linearGradient id="paint0_linear_104_627" x1="74.5" y1="0" x2="74.5" y2="149" gradientUnits="userSpaceOnUse">
<stop stop-color="#FFD686"/>
<stop offset="1" stop-color="#E4B648"/>
</linearGradient>
</defs>
</svg>
