<svg width="14" height="13" viewBox="0 0 14 13" fill="none" xmlns="http://www.w3.org/2000/svg">
<g id="Property 1=star">
<path id="Vector" d="M11.5793 5.09565C11.6335 5.26312 9.20239 7.35622 9.15091 7.52268C9.09942 7.68913 9.89421 10.887 9.75675 10.9888C9.61929 11.0907 6.88841 9.32732 6.71744 9.32567C6.5465 9.32401 3.84359 11.0347 3.70445 10.9302C3.56532 10.8256 4.30866 7.64277 4.25453 7.47527C4.20036 7.3078 1.7351 5.16724 1.78658 5.0008C1.83806 4.83435 5.02837 4.63056 5.16583 4.52871C5.3033 4.42686 6.48256 1.39325 6.65353 1.3949C6.8245 1.39655 8.05285 4.45348 8.19198 4.55803C8.33111 4.66256 11.5252 4.92815 11.5793 5.09565Z" fill="#FFC800"/>
</g>
</svg>
