<svg width="14" height="13" viewBox="0 0 14 13" fill="none" xmlns="http://www.w3.org/2000/svg">
<g id="Property 1=starEmpty">
<path id="Vector" d="M8.20239 10.8355C8.08257 10.919 5.83225 9.49621 5.68765 9.49566C5.54304 9.49511 3.19718 10.9006 3.08304 10.8161C2.9689 10.7317 3.70713 8.13685 3.66703 8.00073C3.62694 7.86464 1.61432 6.13348 1.66361 5.99772C1.71288 5.86196 4.41945 5.68106 4.53929 5.59752C4.65911 5.51396 5.76111 3.03859 5.9057 3.03915C6.05029 3.03969 6.98481 5.52274 7.09895 5.60719C7.21309 5.69164 9.90676 5.89292 9.94686 6.02903C9.98696 6.16515 7.85795 7.88063 7.80867 8.01639C7.75939 8.15215 8.32223 10.7519 8.20239 10.8355Z" stroke="#FFC800"/>
</g>
</svg>
