<?xml version="1.0" standalone="no"?>
<!DOCTYPE svg PUBLIC "-//W3C//DTD SVG 20010904//EN"
 "http://www.w3.org/TR/2001/REC-SVG-20010904/DTD/svg10.dtd">
<svg version="1.0" xmlns="http://www.w3.org/2000/svg"
 width="700.000000pt" height="700.000000pt" viewBox="0 0 700.000000 700.000000"
 preserveAspectRatio="xMidYMid meet">
<metadata>
Created by potrace 1.14, written by Peter Selinger 2001-2017
</metadata>
<g transform="translate(0.000000,700.000000) scale(0.100000,-0.100000)"
fill="#000000" stroke="none">
<path d="M3278 6996 c-1 -2 -39 -6 -83 -10 -478 -37 -993 -197 -1425 -444 -86
-49 -301 -187 -339 -218 -9 -7 -52 -41 -96 -75 -472 -368 -860 -885 -1085
-1449 -64 -161 -142 -412 -165 -531 -3 -13 -11 -58 -20 -99 -29 -147 -35 -192
-52 -370 -15 -162 -8 -591 12 -711 2 -13 6 -46 9 -74 47 -408 239 -953 466
-1318 30 -48 60 -95 65 -105 38 -68 237 -329 314 -412 59 -64 208 -214 257
-260 113 -105 358 -295 459 -357 11 -6 61 -36 110 -67 379 -230 862 -401 1304
-462 25 -3 57 -8 71 -10 163 -25 682 -25 842 1 13 2 46 7 73 10 72 10 86 12
120 19 17 3 44 8 60 11 728 138 1435 541 1935 1104 36 41 70 79 76 85 29 30
185 242 240 326 120 184 241 412 315 597 66 163 147 422 175 558 16 75 54 300
60 350 4 33 9 76 11 95 8 71 10 517 3 595 -17 172 -22 220 -25 225 -2 3 -6 30
-10 60 -3 30 -10 71 -15 90 -5 19 -12 51 -15 70 -3 19 -19 87 -35 151 -163
647 -525 1249 -1031 1714 -349 321 -790 581 -1244 733 -168 57 -420 119 -555
137 -19 3 -46 7 -60 10 -13 2 -54 7 -90 11 -36 3 -78 8 -95 11 -33 5 -531 13
-537 9z m532 -450 c58 -9 123 -18 152 -21 166 -22 421 -88 613 -160 854 -320
1528 -1016 1822 -1880 32 -95 77 -251 87 -305 2 -14 9 -47 15 -74 7 -27 13
-61 15 -75 2 -14 9 -60 15 -100 32 -214 36 -667 6 -820 -2 -13 -7 -44 -10 -70
-20 -177 -110 -500 -199 -714 -154 -372 -371 -694 -665 -988 -307 -306 -647
-532 -1031 -682 -186 -73 -332 -116 -510 -152 -240 -49 -348 -59 -615 -59
-218 0 -320 6 -465 29 -52 9 -108 17 -125 20 -58 9 -301 75 -400 108 -449 153
-833 393 -1176 736 -251 251 -426 494 -579 806 -107 217 -193 450 -235 634
-32 138 -59 304 -72 436 -15 153 -7 605 12 675 2 8 6 38 10 65 3 28 15 95 26
150 99 486 299 914 610 1306 106 133 344 372 479 479 470 374 1050 607 1628
656 42 4 79 8 81 10 5 5 472 -5 511 -10z"/>
<path d="M1430 5483 c-1 -5 -1 -264 -1 -577 l0 -569 23 -46 c30 -60 72 -83
149 -85 l60 -1 -3 -60 -3 -60 -110 1 c-60 0 -112 -3 -115 -7 -4 -5 -5 -484 -1
-510 1 -3 243 -4 539 -3 575 2 544 -1 705 51 13 4 17 -1 17 -24 l0 -28 313 -1
312 0 5 380 5 379 87 1 87 1 -2 275 -2 275 -70 1 c-38 1 -78 2 -87 3 -17 1
-18 23 -18 306 l0 305 -315 0 -315 0 0 -695 0 -695 -22 -1 c-13 0 -37 -2 -54
-4 -81 -11 -224 -12 -226 -1 0 6 -2 32 -2 59 l-2 47 121 0 120 0 0 643 0 642
-274 3 c-185 1 -277 -1 -281 -8 -4 -6 -6 -53 -5 -104 2 -89 1 -94 -19 -98 -53
-10 -56 -4 -56 108 l0 104 -280 0 c-154 0 -280 -3 -280 -7z m632 -354 c56 -67
35 -203 -37 -238 -89 -43 -155 100 -95 206 12 23 32 46 44 52 28 14 67 5 88
-20z m243 -81 c46 -40 33 -135 -26 -196 -30 -31 -85 -50 -113 -39 -48 19 -61
99 -27 166 42 82 115 112 166 69z m-457 -102 c45 -66 22 -191 -38 -206 -109
-28 -161 201 -56 245 38 16 64 5 94 -39z m546 -163 c25 -41 26 -68 5 -110 -24
-50 -65 -82 -113 -90 -96 -15 -120 95 -38 180 44 46 124 57 146 20z m-321 -47
c44 -30 74 -78 96 -155 31 -104 31 -171 1 -201 -33 -33 -72 -25 -133 25 -70
56 -92 65 -174 65 -111 0 -160 43 -133 116 15 38 113 132 162 154 57 26 139
24 181 -4z"/>
<path d="M3585 5273 l0 -218 285 -5 285 -5 -40 -40 c-79 -79 -185 -109 -430
-120 -38 -2 -77 -4 -85 -4 -14 -1 -15 -29 -14 -213 1 -117 2 -216 3 -219 0 -4
73 -5 160 -3 298 5 482 24 681 72 l75 18 -55 28 c-70 37 -130 76 -130 87 0 5
13 15 30 24 29 15 32 14 120 -30 149 -75 341 -139 475 -160 183 -28 315 -38
504 -39 l124 -1 1 217 c1 187 -1 218 -14 219 -8 0 -49 2 -90 4 -239 12 -357
44 -433 120 -15 15 -27 32 -27 36 0 5 126 9 280 9 260 0 280 1 281 18 1 19 0
377 0 405 -1 16 -55 17 -994 17 l-992 0 0 -217z"/>
<path d="M3605 4392 c-20 -3 -20 -9 -20 -247 0 -211 2 -245 15 -246 8 -1 150
-2 315 -3 l300 -1 2 -160 c1 -88 2 -163 2 -166 1 -3 163 -6 361 -6 l360 0 2
166 3 166 313 0 c201 0 312 4 312 10 5 95 1 477 -4 482 -6 6 -1918 11 -1961 5z"/>
<path d="M1558 3496 c-137 -50 -229 -167 -229 -291 1 -270 9 -412 25 -443 28
-55 70 -74 147 -68 l67 5 -3 -115 c-4 -133 -11 -180 -36 -250 -22 -59 -56 -94
-119 -123 -60 -28 -116 -75 -137 -114 -21 -42 -20 -108 2 -158 16 -34 17 -44
6 -62 -17 -27 -22 -101 -9 -138 5 -15 21 -40 35 -56 23 -24 27 -37 29 -110 2
-61 8 -90 21 -108 19 -26 75 -47 108 -41 11 2 46 7 78 10 89 11 231 61 320
114 150 89 279 234 350 397 l26 59 3 -266 c3 -264 3 -267 26 -288 13 -12 35
-25 50 -29 15 -4 277 -7 583 -6 509 0 558 2 582 18 42 27 50 53 50 166 l0 106
17 -63 c49 -179 206 -296 466 -346 113 -22 136 -25 259 -33 239 -14 532 -5
693 23 357 61 535 221 534 481 -2 308 -216 466 -692 509 -41 4 -166 7 -277 8
-190 1 -204 3 -223 22 l-21 20 48 2 c54 3 284 40 291 47 3 3 14 -9 24 -25 10
-17 30 -35 45 -41 16 -6 163 -9 394 -7 345 3 368 4 388 22 12 11 25 33 29 50
8 28 12 31 58 36 63 7 101 31 112 73 5 17 8 109 7 203 0 136 -4 176 -16 194
-14 21 -14 26 1 55 13 26 16 65 16 215 l-1 182 -35 29 c-28 24 -43 29 -87 29
-29 0 -53 4 -53 8 0 16 -36 51 -62 61 -15 5 -174 9 -375 9 -382 0 -403 -3
-425 -57 -6 -14 -11 -97 -12 -183 0 -90 -5 -161 -11 -166 -14 -14 -105 -31
-194 -38 l-76 -6 -1 189 c-1 211 -7 233 -67 252 -18 5 -180 10 -372 10 -312 0
-343 -2 -376 -19 -34 -17 -38 -17 -53 -2 -15 15 -70 17 -586 19 -380 1 -580
-1 -600 -9 -23 -7 -34 -7 -46 2 -10 9 -65 13 -185 14 -139 1 -171 4 -179 16
-13 21 -278 26 -332 6z m2078 -1055 c37 -33 127 -81 152 -81 16 0 15 -3 -7
-42 -10 -18 -26 -65 -36 -104 -15 -65 -21 -75 -70 -118 -57 -49 -111 -132
-121 -185 -4 -17 -10 -33 -14 -36 -3 -2 -7 153 -7 346 l0 349 32 -48 c18 -26
50 -63 71 -81z"/>
</g>
</svg>
