<?xml version="1.0" encoding="utf-8"?><svg xml:space="preserve" viewBox="0 0 100 100" y="0px" x="0px" xmlns:xlink="http://www.w3.org/1999/xlink" xmlns="http://www.w3.org/2000/svg" id="圖層_1" version="1.1" width="60px" height="60px" style="width:100%;height:100%;background-size:initial;background-repeat:initial;background-position-y:initial;background-position-x:initial;background-origin:initial;background-image:initial;background-color:rgb(255, 255, 255);background-clip:initial;background-attachment:initial;animation-play-state:paused" ><g class="ldl-scale" style="transform-origin:50% 50%;transform:rotate(0deg) scale(0.8, 0.8);animation-play-state:paused" ><g style="animation-play-state:paused" ><path d="M67.91,91.57H32.09c-7.73,0-14-6.27-14-14V37.58c0-1.93,1.57-3.5,3.5-3.5h56.82c1.93,0,3.5,1.57,3.5,3.5 v39.98C81.91,85.3,75.64,91.57,67.91,91.57z" fill="#ECB9A5" style="fill:rgb(236, 185, 165);animation-play-state:paused" ></path>
<ellipse ry="14.3" rx="16.94" cy="72.02" cx="50.13" fill="#FFF7E9" style="fill:rgb(255, 247, 233);animation-play-state:paused" ></ellipse></g>
<g style="animation-play-state:paused" ><ellipse ry="5.82" rx="4.63" cy="52.75" cx="34.19" style="animation-play-state:paused" ></ellipse>
<ellipse ry="5.82" rx="4.63" cy="52.75" cx="65.91" style="animation-play-state:paused" ></ellipse></g>
<g style="animation-play-state:paused" ><ellipse ry="19.43" rx="12.79" cy="27.53" cx="25.04" fill="#ECB9A5" transform="matrix(0.9692 -0.2462 0.2462 0.9692 -6.0073 7.0124)" style="fill:rgb(236, 185, 165);animation-play-state:paused" ></ellipse>
<ellipse ry="10.36" rx="5.84" cy="29.31" cx="25.49" fill="#F2F2F3" transform="matrix(0.9692 -0.2462 0.2462 0.9692 -6.4306 7.1781)" style="fill:rgb(242, 242, 243);animation-play-state:paused" ></ellipse></g>
<g style="animation-play-state:paused" ><ellipse ry="12.79" rx="19.43" cy="27.53" cx="74.96" fill="#ECB9A5" transform="matrix(0.2462 -0.9692 0.9692 0.2462 29.8217 93.405)" style="fill:rgb(236, 185, 165);animation-play-state:paused" ></ellipse>
<ellipse ry="5.84" rx="10.36" cy="29.31" cx="74.51" fill="#F2F2F3" transform="matrix(0.2462 -0.9692 0.9692 0.2462 27.761 94.3061)" style="fill:rgb(242, 242, 243);animation-play-state:paused" ></ellipse></g>
<g style="animation-play-state:paused" ><path d="M40.13,73.2 c4.08,5.65,5.27,2.51,8.61,0.41c0.82-0.52,2.01-0.59,2.78,0c2.75,2.1,4.52,5.24,8.61-0.41" stroke-miterlimit="10" stroke-linecap="round" stroke-width="3.5" stroke="#000000" fill="none" style="animation-play-state:paused" ></path>
<line y2="73.2" x2="50.13" y1="65.96" x1="50.13" stroke-miterlimit="10" stroke-linecap="round" stroke-width="3.5" stroke="#000000" fill="none" style="animation-play-state:paused" ></line>
<ellipse ry="3.98" rx="5" cy="65.43" cx="50.13" style="animation-play-state:paused" ></ellipse></g>
<metadata xmlns:d="https://loading.io/stock/" style="animation-play-state:paused" ><d:name style="animation-play-state:paused" >animal</d:name>


<d:tags style="animation-play-state:paused" >animal,rodent,pet,bunny,cute</d:tags>


<d:license style="animation-play-state:paused" >by</d:license>


<d:slug style="animation-play-state:paused" >i9h8y5</d:slug></metadata></g><!-- generated by https://loading.io/ --></svg>