<?xml version="1.0" encoding="utf-8"?><svg xml:space="preserve" viewBox="0 0 100 100" y="0px" x="0px" xmlns:xlink="http://www.w3.org/1999/xlink" xmlns="http://www.w3.org/2000/svg" id="圖層_1" version="1.1" width="60px" height="60px" style="width:100%;height:100%;background-size:initial;background-repeat:initial;background-position-y:initial;background-position-x:initial;background-origin:initial;background-image:initial;background-color:rgb(255, 255, 255);background-clip:initial;background-attachment:initial;animation-play-state:paused" ><g class="ldl-scale" style="transform-origin:50% 50%;transform:rotate(0deg) scale(0.8, 0.8);animation-play-state:paused" ><g style="animation-play-state:paused" ><path d="M42.55,20.14c0,7.33-5.94,13.28-13.28,13.28S16,27.47,16,20.14S27.28,6.86,27.28,6.86 S42.55,12.81,42.55,20.14z" fill="#998675" style="fill:rgb(153, 134, 117);animation-play-state:paused" ></path>
<path d="M36.52,20.14c0,4-3.24,7.24-7.24,7.24s-7.24-3.24-7.24-7.24s5.24-7.24,5.24-7.24S36.52,16.14,36.52,20.14z" fill="#FFFFFF" style="fill:rgb(255, 255, 255);animation-play-state:paused" ></path></g>
<g style="animation-play-state:paused" ><path d="M57.45,20.14c0,7.33,5.94,13.28,13.28,13.28S84,27.47,84,20.14S72.72,6.86,72.72,6.86 S57.45,12.81,57.45,20.14z" fill="#998675" style="fill:rgb(153, 134, 117);animation-play-state:paused" ></path>
<path d="M63.48,20.14c0,4,3.24,7.24,7.24,7.24c4,0,7.24-3.24,7.24-7.24s-5.24-7.24-5.24-7.24 S63.48,16.14,63.48,20.14z" fill="#FFFFFF" style="fill:rgb(255, 255, 255);animation-play-state:paused" ></path></g>
<g style="animation-play-state:paused" ><path d="M84,63.11V20.14H16v42.97c9.45-7.98,20.66-12.79,34-12.79S74.55,55.13,84,63.11z" fill="#998675" style="fill:rgb(153, 134, 117);animation-play-state:paused" ></path>
<path d="M32.59,90.14h34.83c9.16,0,16.59-7.43,16.59-16.59V63.11c-9.45-7.98-20.66-12.79-34-12.79 s-24.55,4.82-34,12.79v10.45C16,82.71,23.43,90.14,32.59,90.14z" fill="#FFF7E9" style="fill:rgb(255, 247, 233);animation-play-state:paused" ></path></g>
<g style="animation-play-state:paused" ><path d="M61,53.99c5.44,0.49,10.79,1.33,16,2.51" stroke-miterlimit="10" stroke-linejoin="round" stroke-linecap="round" stroke-width="3.5" stroke="#000000" fill="none" style="animation-play-state:paused" ></path>
<path d="M60.89,58.98c4.96,1.58,9.76,3.46,14.38,5.6" stroke-miterlimit="10" stroke-linejoin="round" stroke-linecap="round" stroke-width="3.5" stroke="#000000" fill="none" style="animation-play-state:paused" ></path></g>
<g style="animation-play-state:paused" ><path d="M39,53.99c-5.44,0.49-10.79,1.33-16,2.51" stroke-miterlimit="10" stroke-linejoin="round" stroke-linecap="round" stroke-width="3.5" stroke="#000000" fill="none" style="animation-play-state:paused" ></path>
<path d="M39.11,58.98c-4.96,1.58-9.76,3.46-14.38,5.6" stroke-miterlimit="10" stroke-linejoin="round" stroke-linecap="round" stroke-width="3.5" stroke="#000000" fill="none" style="animation-play-state:paused" ></path></g>
<g style="animation-play-state:paused" ><path d="M50,32.25c0.97,0,1.75-0.74,1.75-1.66V20.14h-3.5v10.45C48.25,31.51,49.03,32.25,50,32.25z" fill="#534741" style="fill:rgb(83, 71, 65);animation-play-state:paused" ></path>
<path d="M45,28.45c0.97,0,1.75-0.74,1.75-1.66v-6.65h-3.5v6.65C43.25,27.71,44.03,28.45,45,28.45z" fill="#534741" style="fill:rgb(83, 71, 65);animation-play-state:paused" ></path>
<path d="M55,28.45c0.97,0,1.75-0.74,1.75-1.66v-6.65h-3.5v6.65C53.25,27.71,54.03,28.45,55,28.45z" fill="#534741" style="fill:rgb(83, 71, 65);animation-play-state:paused" ></path></g>
<g style="animation-play-state:paused" ><path d="M75.25,39.5c0,0.97,0.78,1.75,1.75,1.75h7v-3.5h-7C76.03,37.75,75.25,38.53,75.25,39.5z" fill="#534741" style="fill:rgb(83, 71, 65);animation-play-state:paused" ></path>
<path d="M78.25,44.5c0,0.97,0.78,1.75,1.75,1.75h4v-3.5h-4C79.03,42.75,78.25,43.53,78.25,44.5z" fill="#534741" style="fill:rgb(83, 71, 65);animation-play-state:paused" ></path>
<path d="M75.25,49.5c0,0.97,0.78,1.75,1.75,1.75h7v-3.5h-7C76.03,47.75,75.25,48.53,75.25,49.5z" fill="#534741" style="fill:rgb(83, 71, 65);animation-play-state:paused" ></path></g>
<g style="animation-play-state:paused" ><path d="M24.75,39.5c0-0.97-0.78-1.75-1.75-1.75h-7v3.5h7C23.97,41.25,24.75,40.47,24.75,39.5z" fill="#534741" style="fill:rgb(83, 71, 65);animation-play-state:paused" ></path>
<path d="M21.75,44.5c0-0.97-0.78-1.75-1.75-1.75h-4v3.5h4C20.97,46.25,21.75,45.47,21.75,44.5z" fill="#534741" style="fill:rgb(83, 71, 65);animation-play-state:paused" ></path>
<path d="M24.75,49.5c0-0.97-0.78-1.75-1.75-1.75h-7v3.5h7C23.97,51.25,24.75,50.47,24.75,49.5z" fill="#534741" style="fill:rgb(83, 71, 65);animation-play-state:paused" ></path></g>
<g style="animation-play-state:paused" ><path d="M55.74,49.58c0,3.17-2.57,5.74-5.74,5.74s-5.74-2.57-5.74-5.74s2.57-3.41,5.74-3.41S55.74,46.41,55.74,49.58z" style="animation-play-state:paused" ></path>
<line y2="61.5" x2="50" y1="51.5" x1="50" stroke-miterlimit="10" stroke-linejoin="round" stroke-linecap="round" stroke-width="3.5" stroke="#000000" fill="none" style="animation-play-state:paused" ></line>
<path d="M59.28,67.49c-2.18,0-4.52-2.62-7.06-4.65c-1.23-0.99-3.13-0.86-4.44,0c-2.95,1.94-5.38,4.65-7.06,4.63" stroke-miterlimit="10" stroke-linejoin="round" stroke-linecap="round" stroke-width="3.5" stroke="#000000" fill="none" style="animation-play-state:paused" ></path></g>
<g style="animation-play-state:paused" ><path d="M66.02,30.42v-0.85c0-1.13-0.92-2.05-2.05-2.05h-3.15c-1.13,0-2.05,0.92-2.05,2.05v0.85 c0,1.13,0.92,2.05,2.05,2.05h3.15C65.1,32.47,66.02,31.55,66.02,30.42z" fill="#FFFFFF" style="fill:rgb(255, 255, 255);animation-play-state:paused" ></path>
<polyline points="70.75,39.35 72.57,34.5 67.9,36.26" style="animation-play-state:paused" ></polyline>
<circle r="5.5" cy="41.37" cx="65.86" style="animation-play-state:paused" ></circle></g>
<g style="animation-play-state:paused" ><path d="M33.98,30.42v-0.85c0-1.13,0.92-2.05,2.05-2.05h3.15c1.13,0,2.05,0.92,2.05,2.05v0.85 c0,1.13-0.92,2.05-2.05,2.05h-3.15C34.9,32.47,33.98,31.55,33.98,30.42z" fill="#FFFFFF" style="fill:rgb(255, 255, 255);animation-play-state:paused" ></path>
<polyline points="29.36,39.35 27.54,34.5 32.21,36.26" style="animation-play-state:paused" ></polyline>
<circle r="5.5" cy="41.37" cx="34.24" style="animation-play-state:paused" ></circle></g>
<metadata xmlns:d="https://loading.io/stock/" style="animation-play-state:paused" ><d:name style="animation-play-state:paused" >animal</d:name>


<d:tags style="animation-play-state:paused" >animal,cute,pet,mammals,kitty,cat</d:tags>


<d:license style="animation-play-state:paused" >by</d:license>


<d:slug style="animation-play-state:paused" >z69ngk</d:slug></metadata></g><!-- generated by https://loading.io/ --></svg>