<?xml version="1.0" encoding="utf-8"?><svg xml:space="preserve" viewBox="0 0 100 100" y="0px" x="0px" xmlns:xlink="http://www.w3.org/1999/xlink" xmlns="http://www.w3.org/2000/svg" id="圖層_1" version="1.1" width="60px" height="60px" style="width:100%;height:100%;background-size:initial;background-repeat:initial;background-position-y:initial;background-position-x:initial;background-origin:initial;background-image:initial;background-color:rgb(255, 255, 255);background-clip:initial;background-attachment:initial;animation-play-state:paused" ><g class="ldl-scale" style="transform-origin:50% 50%;transform:rotate(0deg) scale(0.8, 0.8);animation-play-state:paused" ><g style="animation-play-state:paused" ><circle r="13.28" cy="20.14" cx="29.28" fill="#F7B26A" style="fill:rgb(247, 178, 106);animation-play-state:paused" ></circle>
<circle r="7.24" cy="20.14" cx="29.28" fill="#FFFFFF" style="fill:rgb(255, 255, 255);animation-play-state:paused" ></circle></g>
<g style="animation-play-state:paused" ><circle r="13.28" cy="20.14" cx="70.72" fill="#F7B26A" style="fill:rgb(247, 178, 106);animation-play-state:paused" ></circle>
<ellipse ry="7.24" rx="7.24" cy="20.14" cx="70.72" fill="#FFFFFF" transform="matrix(0.7071 -0.7071 0.7071 0.7071 6.475 55.9078)" style="fill:rgb(255, 255, 255);animation-play-state:paused" ></ellipse></g>
<g style="animation-play-state:paused" ><path d="M84,63.11V20.14H16v42.97c9.45-7.98,20.66-12.79,34-12.79S74.55,55.13,84,63.11z" fill="#F7B26A" style="fill:rgb(247, 178, 106);animation-play-state:paused" ></path>
<path d="M32.59,90.14h34.83c9.16,0,16.59-7.43,16.59-16.59V63.11c-9.45-7.98-20.66-12.79-34-12.79 s-24.55,4.82-34,12.79v10.45C16,82.71,23.43,90.14,32.59,90.14z" fill="#FFF7E9" style="fill:rgb(255, 247, 233);animation-play-state:paused" ></path></g>
<g style="animation-play-state:paused" ><path d="M34.05,62.17 c6.51,9.43,8.4,4.19,13.73,0.68c1.31-0.86,3.21-0.99,4.44,0c4.39,3.51,7.22,8.75,13.73-0.68" stroke-miterlimit="10" stroke-linecap="round" stroke-width="3.5" stroke="#000000" fill="none" style="animation-play-state:paused" ></path>
<path d="M55.74,49.58c0,3.17-2.57,5.74-5.74,5.74s-5.74-2.57-5.74-5.74s2.57-3.41,5.74-3.41S55.74,46.41,55.74,49.58z" style="animation-play-state:paused" ></path></g>
<g style="animation-play-state:paused" ><path d="M66.02,30.42v-0.85c0-1.13-0.92-2.05-2.05-2.05h-3.15c-1.13,0-2.05,0.92-2.05,2.05v0.85 c0,1.13,0.92,2.05,2.05,2.05h3.15C65.1,32.47,66.02,31.55,66.02,30.42z" fill="#FFFFFF" style="fill:rgb(255, 255, 255);animation-play-state:paused" ></path>
<circle r="5.5" cy="41.37" cx="65.86" style="animation-play-state:paused" ></circle></g>
<g style="animation-play-state:paused" ><path d="M33.98,30.42v-0.85c0-1.13,0.92-2.05,2.05-2.05h3.15c1.13,0,2.05,0.92,2.05,2.05v0.85 c0,1.13-0.92,2.05-2.05,2.05h-3.15C34.9,32.47,33.98,31.55,33.98,30.42z" fill="#FFFFFF" style="fill:rgb(255, 255, 255);animation-play-state:paused" ></path>
<circle r="5.5" cy="41.37" cx="33.98" style="animation-play-state:paused" ></circle></g>
<metadata xmlns:d="https://loading.io/stock/" style="animation-play-state:paused" ><d:name style="animation-play-state:paused" >animal</d:name>


<d:tags style="animation-play-state:paused" >animal,dog,cute,pet,puppy,mammals</d:tags>


<d:license style="animation-play-state:paused" >by</d:license>


<d:slug style="animation-play-state:paused" >yf8na7</d:slug></metadata></g><!-- generated by https://loading.io/ --></svg>